<svg width="61" height="16" viewBox="0 0 61 16" fill="none" xmlns="http://www.w3.org/2000/svg">
<g opacity="0.7" clip-path="url(#clip0_68_29)">
<path d="M61 16H0V0H61V16ZM30.7686 15.4678H60.4346V0.561523H30.7686V15.4678ZM15.8936 4.42871C15.6776 4.4274 15.4672 4.42938 15.2559 4.47852C15.2337 4.48433 15.212 4.48947 15.1904 4.49512C14.4558 4.68124 13.794 5.01936 13.293 5.5957C13.2697 5.62379 13.2472 5.65145 13.2246 5.67871C13.1146 5.81009 13.0121 5.94436 12.9219 6.08984C12.4224 6.93196 12.2633 7.96991 12.5088 8.92188C12.5167 8.95092 12.5245 8.97962 12.5322 9.00781C12.5866 9.20891 12.6389 9.40836 12.7344 9.59473C12.7491 9.62058 12.7631 9.64581 12.7773 9.6709C12.9981 10.0679 13.2495 10.441 13.5996 10.7373C13.6238 10.7568 13.6474 10.776 13.6709 10.7949C14.0612 11.1162 14.4829 11.3398 14.9717 11.4785C15.0218 11.4915 15.0219 11.4921 15.0713 11.5049C15.7958 11.6962 16.6619 11.6518 17.3643 11.3867C17.7653 11.2219 18.4852 10.8877 18.6709 10.4717C18.6754 10.4104 18.6754 10.4101 18.6357 10.3545C18.6151 10.335 18.5952 10.3158 18.5752 10.2969C18.5415 10.2644 18.5408 10.2643 18.5078 10.2324C18.4614 10.189 18.4152 10.1454 18.3691 10.1016C18.3462 10.0795 18.3231 10.0575 18.3008 10.0361C18.2148 9.95376 18.1331 9.86976 18.0547 9.78027C18.0034 9.72084 17.952 9.66196 17.8984 9.60449C17.8822 9.58819 17.8663 9.57247 17.8506 9.55664C17.7829 9.4877 17.7214 9.44476 17.6328 9.40527C17.4764 9.56367 17.3118 9.70149 17.1201 9.81641C16.6003 10.0904 15.971 10.1967 15.3984 10.0254C14.8721 9.85287 14.4961 9.5269 14.2451 9.03809C14.2323 9.01199 14.2195 8.98628 14.207 8.96094C14.0521 8.67029 14.026 8.37969 14.0215 8.05566C14.0213 8.02494 14.0217 7.99466 14.0215 7.96484C14.0204 7.85294 14.0206 7.74156 14.0283 7.62988C14.0929 7.16744 14.3315 6.67198 14.7061 6.37695C14.729 6.36074 14.7512 6.34484 14.7734 6.3291C15.0601 6.12581 15.3657 5.9656 15.7217 5.93848C16.3515 5.91418 16.9226 6.00703 17.4131 6.42676C17.503 6.50665 17.5807 6.57789 17.6924 6.625C17.7383 6.58056 17.7823 6.53546 17.8242 6.4873C18.0682 6.21907 18.0682 6.2191 18.3291 5.9668C18.3742 5.92336 18.4191 5.87971 18.4639 5.83594C18.4783 5.82181 18.4928 5.80766 18.5068 5.79395C18.594 5.70957 18.6595 5.65334 18.6748 5.53027C18.6125 5.47419 18.5494 5.41853 18.4863 5.36328C18.4594 5.33979 18.4334 5.31675 18.4072 5.29395C17.7549 4.71545 16.9481 4.42683 16.0781 4.42773C16.0167 4.42811 15.955 4.42902 15.8936 4.42871ZM10.9316 4.49512C10.8658 4.49512 10.8652 4.49553 10.7559 4.59766C10.65 4.69802 10.5431 4.79656 10.4307 4.88965C10.2854 5.00535 10.1441 5.12407 10.0078 5.25C9.92224 5.32907 9.83601 5.40624 9.74609 5.48047C9.60076 5.59658 9.45976 5.7147 9.32324 5.84082C9.23805 5.91955 9.15212 5.99749 9.0625 6.07129C8.91097 6.19205 8.7648 6.31545 8.62305 6.44727C8.5064 6.55574 8.3883 6.66023 8.26367 6.75977C8.14595 6.85359 8.03331 6.95163 7.92285 7.05371C7.83769 7.13242 7.7517 7.20943 7.66211 7.2832C7.52838 7.38978 7.39794 7.49824 7.27246 7.61426C7.1387 7.73864 7.00411 7.8603 6.86133 7.97461C6.75002 8.06337 6.64313 8.15496 6.53809 8.25098C6.29804 8.46256 6.29764 8.4631 6.04688 8.66504V4.52539H4.52734V11.5635C4.63054 11.5635 4.63044 11.5634 5.06152 11.166C5.17457 11.0616 5.28996 10.9617 5.41016 10.8652C5.48997 10.8014 5.56793 10.7365 5.64453 10.6689C5.74435 10.5786 5.84417 10.4889 5.94824 10.4033C6.08293 10.2951 6.21665 10.1862 6.34473 10.0703C6.41969 10.0025 6.49501 9.93619 6.57324 9.87207C6.7139 9.75935 6.85133 9.645 6.98438 9.52344C7.09158 9.42547 7.20117 9.3312 7.31445 9.24023C7.42088 9.15494 7.52392 9.06707 7.625 8.97559C7.69995 8.90775 7.77529 8.84145 7.85352 8.77734C7.99428 8.66454 8.13249 8.55038 8.26562 8.42871C8.34604 8.35522 8.42663 8.28316 8.51074 8.21387C8.65082 8.10165 8.78844 7.98825 8.9209 7.86719C9.16106 7.65551 9.16098 7.65535 9.41211 7.45312C9.42224 8.83063 9.43255 10.1679 9.44238 11.5049H10.9912V4.43652H10.9316V4.49512ZM19.9561 11.5049H21.5049V5.91504H24.6621V11.5049H26.2109V4.52539H19.9561V11.5049Z" fill="black"/>
<path d="M48.8179 4.52496C49.3192 4.52496 49.8204 4.52496 50.3369 4.52496C50.3369 5.44237 50.3369 6.35978 50.3369 7.30499C51.4378 7.30499 52.5386 7.30499 53.6729 7.30499C53.6729 6.38758 53.6729 5.47017 53.6729 4.52496C54.184 4.52496 54.6951 4.52496 55.2217 4.52496C55.2217 6.82825 55.2217 9.13154 55.2217 11.5046C54.7106 11.5046 54.1995 11.5046 53.6729 11.5046C53.6729 10.5677 53.6729 9.63076 53.6729 8.66544C52.572 8.66544 51.4711 8.66544 50.3369 8.66544C50.3369 9.60237 50.3369 10.5393 50.3369 11.5046C49.8356 11.5046 49.3343 11.5046 48.8179 11.5046C48.8179 9.20133 48.8179 6.89804 48.8179 4.52496Z" fill="black"/>
<path d="M35.9805 4.52539C39.2519 4.52539 39.2521 4.52479 39.6943 4.7207C39.7297 4.73602 39.7297 4.73643 39.7656 4.75195C40.4624 5.06446 40.9168 5.61266 41.2021 6.30664C41.3986 6.89894 41.3441 7.67399 41.0723 8.23633C40.9514 8.4672 40.8026 8.67888 40.627 8.87207C40.608 8.89292 40.5888 8.91406 40.5693 8.93555C40.4251 9.08622 40.2666 9.20427 40.0908 9.31641C40.0495 9.34342 40.0491 9.34347 40.0068 9.37109C39.5751 9.63894 39.0807 9.71073 38.5791 9.70605C38.5484 9.706 38.517 9.70612 38.4854 9.70605C38.3727 9.70575 38.2601 9.70487 38.1475 9.7041C37.8944 9.70288 37.6407 9.70145 37.3799 9.7002V11.5049H35.9805V4.52539ZM38.0986 5.90527C37.7362 5.90993 37.736 5.91047 37.3809 5.91504V8.31055C37.6434 8.31243 37.8985 8.31458 38.1533 8.31641C38.2669 8.31755 38.3805 8.31888 38.4941 8.31934C38.5258 8.31943 38.5571 8.31925 38.5879 8.31934C38.9739 8.32465 39.2379 8.26426 39.5254 7.99609C39.7644 7.75139 39.8896 7.48213 39.8887 7.14062C39.8883 7.11872 39.8881 7.09744 39.8877 7.07617C39.8877 7.05373 39.8877 7.03155 39.8877 7.00977C39.8853 6.70929 39.7684 6.47982 39.5547 6.26953C39.1955 5.92773 38.797 5.89634 38.3232 5.90137C38.247 5.90275 38.1726 5.90393 38.0986 5.90527Z" fill="black"/>
<path d="M44.5879 4.4375C44.8109 4.90236 44.8111 4.90262 45.041 5.36426C45.1384 5.55559 45.2304 5.7494 45.3223 5.94336C45.3915 6.08899 45.463 6.23323 45.5361 6.37695C45.6483 6.59765 45.7559 6.82092 45.8633 7.04395C45.9612 7.24709 46.0597 7.44993 46.1592 7.65234C46.1716 7.67757 46.1845 7.7035 46.1973 7.72949C46.2589 7.85492 46.321 7.9801 46.3828 8.10547C46.5225 8.38921 46.6594 8.67434 46.793 8.96094C46.8344 9.0491 46.8753 9.13752 46.917 9.22559C46.9311 9.25553 46.931 9.25568 46.9453 9.28613C47.0273 9.45932 47.1143 9.63 47.2012 9.80078C47.3732 10.1397 47.5386 10.4826 47.7031 10.8252C47.7423 10.9066 47.7817 10.988 47.8213 11.0693C47.8431 11.1146 47.8649 11.1598 47.8867 11.2051C47.8966 11.2253 47.9068 11.2457 47.917 11.2666C47.9578 11.3517 47.9844 11.4093 47.9844 11.5049H46.5244C46.342 11.113 46.3425 11.1124 46.2861 10.9912C46.1916 10.7886 46.0935 10.5881 45.9902 10.3896C45.9584 10.3218 45.959 10.3216 45.959 10.2627H43.0996C43.0702 10.3503 43.0699 10.3504 43.04 10.4395C43.0243 10.4759 43.0068 10.5123 42.9893 10.5479C42.9798 10.5671 42.9706 10.5867 42.9609 10.6064C42.9509 10.6266 42.941 10.6472 42.9307 10.668C42.9204 10.6889 42.91 10.7099 42.8994 10.7314C42.8663 10.7987 42.833 10.8664 42.7998 10.9336C42.7665 11.0011 42.7324 11.0682 42.6992 11.1357C42.6786 11.1776 42.6584 11.2199 42.6377 11.2617C42.5981 11.3421 42.5617 11.4199 42.5332 11.5049H41.0742C41.1001 11.3762 41.1299 11.2909 41.1865 11.1748C41.2033 11.1402 41.221 11.1059 41.2383 11.0703C41.2471 11.0524 41.2556 11.0341 41.2646 11.0156C41.2912 10.9617 41.3175 10.9076 41.3438 10.8535C41.4849 10.5647 41.4856 10.5644 41.5557 10.4482C41.6135 10.3456 41.6555 10.2423 41.6982 10.1328C41.75 10.0045 41.8097 9.88028 41.8701 9.75586C41.8831 9.7289 41.8968 9.70161 41.9102 9.67383C42.0348 9.41646 42.1632 9.1611 42.293 8.90625C42.4297 8.63737 42.5629 8.36668 42.6934 8.09473C42.8188 7.83344 42.9459 7.57285 43.0732 7.3125C43.2137 7.02542 43.3534 6.73801 43.4902 6.44922C43.5506 6.32221 43.6121 6.19572 43.6758 6.07031C43.7793 5.86638 43.8786 5.66024 43.9775 5.4541C44.0929 5.21376 44.2098 4.97327 44.3262 4.7334C44.3348 4.71563 44.3437 4.69799 44.3525 4.67969C44.4014 4.57888 44.4501 4.47775 44.499 4.37695H44.5586C44.573 4.40683 44.5732 4.40702 44.5879 4.4375ZM44.499 7.39355C44.4693 7.45269 44.44 7.51219 44.4102 7.57129C44.3432 7.70286 44.2759 7.83471 44.21 7.9668C44.1969 7.99298 44.1845 8.01853 44.1719 8.04395C44.124 8.14006 44.0757 8.23665 44.0283 8.33301C44.0117 8.36683 43.9956 8.39979 43.9795 8.43262C43.9632 8.46544 43.9475 8.49744 43.9316 8.5293C43.9164 8.56053 43.9015 8.59078 43.8867 8.62109C43.8265 8.74338 43.8078 8.82016 43.7842 8.96094H45.3037C45.3037 8.90203 45.3029 8.90193 45.2646 8.82129C45.1898 8.67669 45.1155 8.53196 45.0459 8.38477C44.8913 8.05052 44.7254 7.72195 44.5586 7.39355H44.499Z" fill="black"/>
</g>
<defs>
<clipPath id="clip0_68_29">
<rect width="61" height="16" fill="white"/>
</clipPath>
</defs>
</svg>
