<svg width="61" height="16" viewBox="0 0 61 16" fill="none" xmlns="http://www.w3.org/2000/svg">
<g clip-path="url(#clip0_65_26)">
<path d="M0 0C20.13 0 40.26 0 61 0C61 5.28 61 10.56 61 16C40.87 16 20.74 16 0 16C0 10.72 0 5.44 0 0Z" fill="black"/>
<path d="M30.7681 0.561924C40.5579 0.561924 50.3476 0.561924 60.4341 0.561924C60.4341 5.48082 60.4341 10.3997 60.4341 15.4677C50.6443 15.4677 40.8545 15.4677 30.7681 15.4677C30.7681 10.5488 30.7681 5.62987 30.7681 0.561924Z" fill="white"/>
<path d="M35.9805 4.52496C39.252 4.52496 39.252 4.52496 39.6943 4.72089C39.7298 4.73625 39.7298 4.73625 39.766 4.75192C40.4628 5.06443 40.9171 5.61239 41.2024 6.30638C41.399 6.89876 41.344 7.67408 41.0721 8.23649C40.9512 8.46744 40.8026 8.67921 40.627 8.87246C40.608 8.89331 40.5891 8.91417 40.5696 8.93565C40.4253 9.08636 40.2666 9.20393 40.0908 9.31608C40.0494 9.34319 40.0494 9.34319 40.007 9.37084C39.5751 9.63888 39.0805 9.71104 38.5788 9.70633C38.5481 9.70627 38.5174 9.70621 38.4858 9.70615C38.373 9.70585 38.2602 9.70502 38.1473 9.70425C37.8942 9.70303 37.6411 9.70181 37.3804 9.70056C37.3804 10.2959 37.3804 10.8912 37.3804 11.5046C36.9184 11.5046 36.4564 11.5046 35.9805 11.5046C35.9805 9.20133 35.9805 6.89804 35.9805 4.52496Z" fill="black"/>
<path d="M19.9561 4.52496C22.0202 4.52496 24.0843 4.52496 26.2109 4.52496C26.2109 6.82825 26.2109 9.13154 26.2109 11.5046C25.6998 11.5046 25.1887 11.5046 24.6621 11.5046C24.6621 9.66004 24.6621 7.81545 24.6621 5.91497C23.6202 5.91497 22.5783 5.91497 21.5049 5.91497C21.5049 7.75956 21.5049 9.60414 21.5049 11.5046C20.9938 11.5046 20.4827 11.5046 19.9561 11.5046C19.9561 9.20133 19.9561 6.89804 19.9561 4.52496Z" fill="white"/>
<path d="M48.8179 4.52496C49.3192 4.52496 49.8204 4.52496 50.3369 4.52496C50.3369 5.44237 50.3369 6.35978 50.3369 7.30499C51.4378 7.30499 52.5386 7.30499 53.6729 7.30499C53.6729 6.38758 53.6729 5.47017 53.6729 4.52496C54.184 4.52496 54.6951 4.52496 55.2217 4.52496C55.2217 6.82825 55.2217 9.13154 55.2217 11.5046C54.7106 11.5046 54.1995 11.5046 53.6729 11.5046C53.6729 10.5677 53.6729 9.63076 53.6729 8.66544C52.572 8.66544 51.4711 8.66544 50.3369 8.66544C50.3369 9.60237 50.3369 10.5393 50.3369 11.5046C49.8356 11.5046 49.3343 11.5046 48.8179 11.5046C48.8179 9.20133 48.8179 6.89804 48.8179 4.52496Z" fill="black"/>
<path d="M10.9312 4.43623C10.9508 4.43623 10.9705 4.43623 10.9907 4.43623C10.9907 6.7688 10.9907 9.10137 10.9907 11.5046C10.4796 11.5046 9.9685 11.5046 9.44189 11.5046C9.43207 10.1675 9.42224 8.83046 9.41211 7.45287C9.16086 7.6552 9.16086 7.6552 8.92065 7.86691C8.78819 7.98798 8.65118 8.10128 8.51111 8.21349C8.42679 8.28295 8.34598 8.35517 8.26538 8.42884C8.13225 8.5505 7.99462 8.66457 7.85386 8.77738C7.7755 8.84159 7.70008 8.90802 7.625 8.97597C7.52385 9.06752 7.42062 9.15494 7.31412 9.2403C7.20083 9.33126 7.09182 9.42514 6.98462 9.52311C6.85148 9.64477 6.71386 9.75884 6.5731 9.87165C6.49474 9.93586 6.41931 10.0023 6.34424 10.0702C6.21616 10.1861 6.08334 10.2948 5.94865 10.403C5.84443 10.4886 5.74494 10.5789 5.64499 10.6694C5.56831 10.737 5.48962 10.8012 5.40973 10.8651C5.28949 10.9616 5.17471 11.0619 5.06161 11.1664C4.63054 11.5638 4.63054 11.5638 4.52734 11.5638C4.52734 9.24096 4.52734 6.91815 4.52734 4.52495C5.02863 4.52495 5.52991 4.52495 6.04639 4.52495C6.04639 5.89131 6.04639 7.25767 6.04639 8.66543C6.29764 8.46311 6.29764 8.46311 6.53784 8.25139C6.64315 8.15512 6.75014 8.0631 6.86176 7.97412C7.00459 7.85977 7.13857 7.73831 7.27238 7.61387C7.39786 7.49785 7.52862 7.3902 7.66235 7.28362C7.75198 7.20981 7.83765 7.13234 7.92285 7.05361C8.03331 6.95152 8.1458 6.85352 8.26352 6.7597C8.38817 6.66016 8.50614 6.55581 8.6228 6.44732C8.76461 6.31545 8.91067 6.19185 9.06225 6.07105C9.15188 5.99724 9.23755 5.91977 9.32275 5.84104C9.4594 5.71477 9.60078 5.59682 9.74626 5.48059C9.83626 5.40629 9.92216 5.32868 10.0078 5.24954C10.1441 5.12361 10.285 5.00584 10.4303 4.89013C10.5429 4.7969 10.6499 4.69804 10.7559 4.59751C10.8653 4.49538 10.8653 4.49538 10.9312 4.49538C10.9312 4.47586 10.9312 4.45634 10.9312 4.43623Z" fill="white"/>
<path d="M15.8934 4.42852C15.9549 4.42883 16.0164 4.42852 16.0779 4.42814C16.948 4.42718 17.7548 4.71535 18.4072 5.2939C18.4335 5.31677 18.4598 5.33965 18.4868 5.36322C18.55 5.41857 18.6128 5.4743 18.6753 5.5305C18.66 5.65373 18.594 5.7098 18.5066 5.79436C18.4926 5.80807 18.4786 5.82179 18.4641 5.83592C18.4193 5.87974 18.3742 5.92324 18.329 5.96673C18.0682 6.21905 18.0682 6.21905 17.8242 6.48732C17.7822 6.53548 17.7383 6.58032 17.6924 6.62477C17.5807 6.57766 17.5031 6.50688 17.4131 6.42699C16.9226 6.00716 16.3519 5.91381 15.722 5.93811C15.3659 5.96517 15.0602 6.12567 14.7734 6.32902C14.7512 6.34476 14.7289 6.36051 14.706 6.37673C14.3313 6.67183 14.0933 7.16775 14.0288 7.63031C14.0211 7.742 14.0203 7.85296 14.0214 7.96488C14.0216 7.9947 14.0218 8.02451 14.022 8.05524C14.0265 8.37958 14.0523 8.67028 14.2075 8.96118C14.2201 8.98665 14.2326 9.01212 14.2456 9.03835C14.4967 9.52734 14.8723 9.85341 15.3989 10.0259C15.9715 10.1972 16.6006 10.0909 17.1204 9.81689C17.3122 9.70191 17.4764 9.5633 17.6328 9.4048C17.7215 9.44431 17.7829 9.48739 17.8506 9.55638C17.8665 9.57231 17.8823 9.58825 17.8987 9.60467C17.9522 9.66216 18.0035 9.72081 18.0548 9.78027C18.1333 9.86988 18.215 9.95402 18.3011 10.0365C18.3234 10.0579 18.3457 10.0793 18.3687 10.1013C18.415 10.1454 18.4614 10.1892 18.5081 10.2328C18.5411 10.2646 18.5411 10.2646 18.5748 10.2971C18.5948 10.3161 18.6149 10.335 18.6355 10.3545C18.6753 10.4103 18.6753 10.4103 18.6708 10.4721C18.4851 10.8881 17.7658 11.2215 17.3647 11.3863C16.6623 11.6516 15.796 11.696 15.0713 11.5046C15.0218 11.4918 15.0218 11.4918 14.9712 11.4786C14.4824 11.3399 14.0617 11.1161 13.6714 10.7948C13.6479 10.7758 13.6243 10.7568 13.6001 10.7372C13.2498 10.4409 12.9986 10.0681 12.7778 9.67098C12.7635 9.64578 12.7492 9.62058 12.7344 9.59461C12.6389 9.40812 12.5865 9.20863 12.5321 9.00739C12.5244 8.9792 12.5167 8.95101 12.5088 8.92196C12.2632 7.96988 12.4221 6.9316 12.9217 6.08942C13.012 5.94386 13.1145 5.80981 13.2246 5.67837C13.2472 5.65111 13.2698 5.62386 13.293 5.59577C13.7941 5.01942 14.4558 4.6815 15.1904 4.49538C15.212 4.48972 15.2336 4.48406 15.2559 4.47824C15.4672 4.4291 15.6775 4.42721 15.8934 4.42852Z" fill="white"/>
<path d="M44.499 4.37708C44.5187 4.37708 44.5383 4.37708 44.5586 4.37708C44.573 4.40696 44.573 4.40696 44.5876 4.43744C44.8108 4.90246 44.8108 4.90246 45.0407 5.36414C45.1381 5.55554 45.2307 5.74899 45.3226 5.94302C45.3918 6.08869 45.4628 6.23331 45.5359 6.37708C45.648 6.59778 45.7556 6.82053 45.863 7.04355C45.961 7.24696 46.06 7.44993 46.1595 7.65261C46.1719 7.67783 46.1843 7.70306 46.1971 7.72904C46.2589 7.85471 46.3207 7.98034 46.3826 8.10594C46.5222 8.38969 46.6589 8.67458 46.7925 8.96118C46.8339 9.04935 46.8755 9.13744 46.9172 9.22551C46.9313 9.2555 46.9313 9.2555 46.9458 9.2861C47.0278 9.45939 47.1142 9.6303 47.2011 9.80118C47.3731 10.1401 47.5385 10.4822 47.7031 10.8248C47.7423 10.9063 47.7819 10.9878 47.8215 11.0692C47.8433 11.1145 47.8652 11.1598 47.8871 11.2052C47.8971 11.2256 47.9071 11.2459 47.9173 11.2669C47.9581 11.352 47.9839 11.4091 47.9839 11.5046C47.5023 11.5046 47.0206 11.5046 46.5244 11.5046C46.342 11.1128 46.342 11.1128 46.2857 10.9915C46.1911 10.7889 46.0937 10.5882 45.9904 10.3897C45.9585 10.3216 45.9585 10.3216 45.9585 10.2625C45.0149 10.2625 44.0713 10.2625 43.0991 10.2625C43.0696 10.3503 43.0696 10.3503 43.0396 10.4399C43.0237 10.4764 43.0071 10.5126 42.9895 10.5483C42.9801 10.5675 42.9706 10.5867 42.9609 10.6066C42.9509 10.6267 42.9409 10.6469 42.9305 10.6676C42.9201 10.6888 42.9097 10.71 42.8989 10.7319C42.8659 10.7991 42.8327 10.8663 42.7994 10.9335C42.7661 11.0009 42.7328 11.0685 42.6995 11.136C42.6789 11.1779 42.6582 11.2198 42.6375 11.2616C42.5979 11.3419 42.5617 11.4196 42.5332 11.5046C42.0516 11.5046 41.57 11.5046 41.0737 11.5046C41.0997 11.3759 41.1303 11.291 41.1869 11.1749C41.2038 11.1403 41.2206 11.1057 41.238 11.07C41.2468 11.0521 41.2556 11.0342 41.2647 11.0158C41.2913 10.9616 41.3177 10.9074 41.3441 10.853C41.4852 10.5642 41.4852 10.5642 41.5553 10.448C41.6132 10.3453 41.6551 10.2421 41.6979 10.1327C41.7496 10.0044 41.8101 9.88043 41.8705 9.75601C41.8835 9.72905 41.8965 9.70209 41.9099 9.67431C42.0346 9.41668 42.1634 9.16112 42.2932 8.90602C42.43 8.63711 42.5626 8.36645 42.693 8.09446C42.8185 7.83317 42.9457 7.57274 43.0731 7.31238C43.2136 7.02523 43.3532 6.73774 43.4901 6.44888C43.5505 6.32179 43.6125 6.19573 43.6762 6.07024C43.7798 5.86623 43.879 5.66026 43.978 5.45404C44.0934 5.2137 44.2095 4.9737 44.3259 4.73383C44.3346 4.71589 44.3433 4.69796 44.3523 4.67949C44.4012 4.57868 44.4501 4.47788 44.499 4.37708Z" fill="black"/>
<path d="M37.3804 5.91497C37.7361 5.9104 37.7361 5.9104 38.0989 5.90573C38.1729 5.90438 38.2468 5.90304 38.323 5.90165C38.7969 5.89661 39.1954 5.92787 39.5547 6.26987C39.7684 6.48016 39.8854 6.70888 39.8879 7.00936C39.8879 7.03128 39.8879 7.0532 39.8879 7.07578C39.8883 7.09725 39.8886 7.11871 39.889 7.14083C39.8899 7.4825 39.7641 7.75151 39.5249 7.9963C39.2373 8.26456 38.9737 8.32456 38.5875 8.3192C38.5567 8.31911 38.526 8.31902 38.4943 8.31893C38.3805 8.31847 38.2667 8.31723 38.1529 8.31608C37.898 8.31425 37.643 8.31242 37.3804 8.31053C37.3804 7.52 37.3804 6.72946 37.3804 5.91497Z" fill="white"/>
<path d="M44.499 7.39371C44.5187 7.39371 44.5383 7.39371 44.5586 7.39371C44.7254 7.72213 44.8913 8.05055 45.046 8.38482C45.1156 8.53206 45.1901 8.67665 45.2649 8.82128C45.3032 8.90203 45.3032 8.90203 45.3032 8.96118C44.8019 8.96118 44.3007 8.96118 43.7842 8.96118C43.8078 8.82026 43.8265 8.74366 43.8867 8.6213C43.9015 8.59091 43.9163 8.56052 43.9316 8.52921C43.9475 8.4973 43.9633 8.4654 43.9796 8.43253C43.9957 8.3997 44.0119 8.36686 44.0284 8.33303C44.0758 8.23667 44.1235 8.14048 44.1714 8.04436C44.1842 8.01868 44.197 7.993 44.2101 7.96654C44.2761 7.83445 44.3427 7.70273 44.4097 7.57116C44.4395 7.51203 44.4693 7.45288 44.499 7.39371Z" fill="white"/>
<path d="M14.8032 6.26987C14.8229 6.27963 14.8425 6.28939 14.8628 6.29945C14.7154 6.44584 14.5679 6.59224 14.416 6.74307C14.416 6.58917 14.5502 6.49402 14.6543 6.38817C14.7026 6.34717 14.7516 6.30671 14.8032 6.26987Z" fill="black"/>
</g>
<defs>
<clipPath id="clip0_65_26">
<rect width="61" height="16" fill="white"/>
</clipPath>
</defs>
</svg>
