<svg width="97" height="16" viewBox="0 0 97 16" fill="none" xmlns="http://www.w3.org/2000/svg">
<g clip-path="url(#clip0_65_39)">
<path d="M95.9636 7.53257H95.0227C94.5396 7.53257 94.1104 7.57855 93.7336 7.67028C93.3568 7.76222 93.0388 7.90925 92.7775 8.1123C92.5177 8.31469 92.3196 8.5823 92.184 8.91525C92.0491 9.2482 91.9815 9.65648 91.9815 10.1387V15.0898H93.8642V10.4429C93.8642 10.2112 93.8764 10.0109 93.9 9.84231C93.9238 9.67308 93.984 9.53305 94.0817 9.42183C94.1771 9.31138 94.3128 9.22657 94.4865 9.16854C94.6608 9.11118 94.9013 9.0817 95.2107 9.0817C95.3649 9.0817 95.5581 9.08373 95.7899 9.08983C96.0217 9.0939 96.2335 9.10202 96.4273 9.11199L96.7309 7.54846C96.4797 7.53829 96.2249 7.53257 95.9636 7.53257ZM89.1471 10.5895H86.0328C86.0328 10.2222 86.0532 9.92079 86.091 9.68471C86.1297 9.44793 86.2074 9.25992 86.3229 9.12C86.4384 8.98006 86.5985 8.8832 86.8009 8.83012C87.0039 8.77703 87.2696 8.75038 87.5969 8.75038C87.8969 8.75038 88.1474 8.77703 88.3505 8.83012C88.5529 8.8832 88.7122 8.96781 88.8278 9.0834C88.9442 9.19975 89.026 9.35391 89.074 9.54694C89.1228 9.73996 89.1472 9.97605 89.1472 10.2566L89.1471 10.5895ZM90.2403 8.12763C89.9848 7.87721 89.646 7.68202 89.2268 7.5421C88.8062 7.40216 88.278 7.33186 87.6406 7.33186C86.9552 7.33186 86.3881 7.40853 85.9395 7.56289C85.4902 7.71789 85.1328 7.94682 84.8679 8.25178C84.6024 8.5553 84.4165 8.92915 84.3103 9.3726C84.2032 9.81677 84.1509 10.3284 84.1509 10.9074V11.7183C84.1509 12.2593 84.2012 12.7393 84.3023 13.1591C84.4042 13.5789 84.5829 13.9334 84.8384 14.2225C85.0947 14.5124 85.4442 14.7348 85.8885 14.8891C86.3328 15.0435 86.897 15.1209 87.5831 15.1209H88.8062C89.0043 15.1209 89.2088 15.1189 89.422 15.1128C89.6337 15.1087 89.8756 15.1006 90.1455 15.0906L90.4355 13.6433C89.7988 13.6616 89.2627 13.672 88.8277 13.672H87.6693C87.3219 13.672 87.0419 13.6484 86.8295 13.6002C86.617 13.5513 86.4505 13.4645 86.3299 13.3389C86.2093 13.2134 86.1297 13.0398 86.0909 12.818C86.0523 12.5963 86.0327 12.3114 86.0327 11.9634H89.7987C90.0105 11.9634 90.1892 11.9431 90.3342 11.9061C90.4784 11.8674 90.5969 11.7897 90.6888 11.6736C90.7807 11.558 90.846 11.3966 90.8841 11.1892C90.9227 10.9818 90.9423 10.7135 90.9423 10.3855V10.1394C90.9423 9.734 90.8898 9.36015 90.7836 9.01789C90.6766 8.6756 90.4958 8.37949 90.2403 8.12763ZM84.0899 7.56196H81.816L78.9637 10.4143V5.03478H77.0811V15.0899H78.9637V11.6155L82.0766 15.0899H84.4229L80.6282 10.9209L84.0899 7.56196ZM73.9086 13.6002C73.5706 13.6002 73.2877 13.578 73.0609 13.5341C72.8341 13.491 72.6554 13.4035 72.5248 13.2736C72.3948 13.1436 72.303 12.9529 72.2499 12.7017C72.1968 12.4513 72.1701 12.1227 72.1701 11.7173V10.9351C72.1701 10.5304 72.1946 10.2018 72.2426 9.95134C72.2906 9.7002 72.3803 9.50933 72.511 9.37946C72.641 9.24888 72.8168 9.16203 73.0393 9.11897C73.261 9.07524 73.5503 9.0537 73.9084 9.0537C74.0814 9.0537 74.3205 9.05573 74.6248 9.06183C74.9291 9.0659 75.2837 9.07809 75.6892 9.09762L75.9935 7.57785C75.105 7.54917 74.3951 7.53412 73.8647 7.53412C73.1986 7.53412 72.6359 7.59432 72.1773 7.71575C71.7186 7.83637 71.3468 8.03147 71.0626 8.30128C70.7777 8.57181 70.5723 8.92412 70.4475 9.35895C70.3211 9.79307 70.2587 10.3198 70.2587 10.9362V11.7183C70.2587 12.3454 70.3189 12.875 70.4396 13.3041C70.5602 13.7332 70.7625 14.0833 71.0475 14.3532C71.3324 14.6237 71.7042 14.8195 72.1629 14.9394C72.6215 15.06 73.1885 15.121 73.8646 15.121C74.0965 15.121 74.3857 15.119 74.7338 15.1129C75.0812 15.1088 75.4092 15.1007 75.7179 15.0907L76.0222 13.5709C75.7129 13.5811 75.3655 13.5872 74.9793 13.5925C74.5932 13.5966 74.2359 13.6002 73.9086 13.6002ZM67.4465 13.7306H65.607C65.1239 13.7306 64.7937 13.6559 64.615 13.506C64.4364 13.3567 64.3473 13.1271 64.3473 12.8186V12.543C64.3473 12.1864 64.4435 11.9403 64.6372 11.8047C64.8295 11.6698 65.2014 11.6023 65.7519 11.6023H65.9687C66.2874 11.6023 66.5436 11.6186 66.7367 11.6531C66.929 11.6861 67.0791 11.742 67.186 11.8195C67.2922 11.8962 67.3612 11.9953 67.3956 12.1159C67.4294 12.2365 67.4466 12.3835 67.4466 12.5579L67.4465 13.7306ZM68.4449 8.15662C67.8951 7.74189 67.031 7.53381 65.8531 7.53381C65.3701 7.53381 64.9265 7.53584 64.521 7.54194C64.1155 7.54601 63.7774 7.55413 63.5068 7.56268L63.2032 9.08319C63.3863 9.08319 63.5894 9.08116 63.8119 9.07506C64.0336 9.07099 64.2576 9.06488 64.4851 9.06081C64.7119 9.05674 64.9358 9.05268 65.1583 9.05268H65.7663C66.0943 9.05268 66.3677 9.07301 66.5845 9.11084C66.802 9.14888 66.9728 9.21926 67.0984 9.32037C67.2234 9.42146 67.313 9.55932 67.3662 9.73297C67.4199 9.90667 67.4465 10.124 67.4465 10.3845V10.645C67.2821 10.5394 67.0331 10.4448 66.7008 10.363C66.3677 10.2804 65.95 10.2395 65.4476 10.2395C64.4434 10.2395 63.7049 10.4212 63.2319 10.7827C62.7589 11.1444 62.5227 11.7263 62.5227 12.5278V12.8457C62.5227 13.5697 62.7374 14.1244 63.1673 14.5104C63.5965 14.8972 64.3279 15.0895 65.3607 15.0895H67.7214C68.2906 15.0895 68.6911 14.9904 68.9229 14.7931C69.1547 14.5958 69.271 14.2406 69.271 13.729V10.1089C69.271 9.22131 68.9961 8.57138 68.4449 8.15662ZM60.8038 7.5322C60.3207 7.5322 59.8915 7.57817 59.5147 7.66991C59.1379 7.76185 58.8199 7.90884 58.5586 8.1119C58.2988 8.31428 58.1007 8.5819 57.9651 8.91484C57.8302 9.24779 57.7626 9.6561 57.7626 10.1383V15.0894H59.6452V10.4425C59.6452 10.2107 59.6575 10.0106 59.6811 9.84194C59.7049 9.67271 59.7651 9.53267 59.8627 9.42145C59.9582 9.31101 60.0939 9.22616 60.2675 9.16813C60.4419 9.11077 60.6824 9.08129 60.9918 9.08129C61.146 9.08129 61.3392 9.08332 61.571 9.08943C61.8028 9.09349 62.0146 9.10165 62.2083 9.11162L62.512 7.54806C62.2608 7.53789 62.006 7.53381 61.7447 7.53381L60.8038 7.5322ZM54.7252 13.5991C54.3871 13.5991 54.1043 13.577 53.8775 13.533C53.6507 13.4899 53.4719 13.4024 53.3413 13.2725C53.2113 13.1426 53.1195 12.9518 53.0664 12.7006C53.0141 12.4502 52.9867 12.1216 52.9867 11.7162V10.9341C52.9867 10.5293 53.0111 10.2007 53.0591 9.95025C53.1071 9.69912 53.1968 9.50825 53.3275 9.37838C53.4575 9.24779 53.6333 9.16098 53.8558 9.11792C54.0776 9.07419 54.3675 9.05262 54.725 9.05262C54.8979 9.05262 55.1377 9.05465 55.4413 9.06075C55.7456 9.06482 56.1002 9.07704 56.5057 9.09656L56.81 7.57677C55.9215 7.54809 55.2123 7.53304 54.6812 7.53304C54.0151 7.53304 53.4524 7.59326 52.9945 7.71469C52.5351 7.83531 52.164 8.03042 51.8791 8.30023C51.5942 8.57075 51.3889 8.92306 51.264 9.35789C51.1377 9.79201 51.0752 10.3187 51.0752 10.9351V11.7172C51.0752 12.3444 51.1354 12.8739 51.2561 13.303C51.3767 13.7321 51.579 14.0823 51.864 14.3521C52.1489 14.6226 52.5207 14.8185 52.9794 14.9383C53.438 15.0589 54.0051 15.1199 54.6812 15.1199C54.913 15.1199 55.2022 15.1179 55.5504 15.1118C55.8977 15.1077 56.2257 15.0996 56.5351 15.0897L56.8387 13.5699C56.5301 13.58 56.182 13.5861 55.7965 13.5914C55.4097 13.5955 55.0525 13.5991 54.7252 13.5991ZM50.1845 9.11124L50.4888 7.56131H47.7814V5.50551L45.8988 5.81048V12.2527C45.8988 12.8031 45.9425 13.2608 46.0288 13.6282C46.1157 13.9949 46.2728 14.287 46.4996 14.5044C46.7264 14.7211 47.035 14.8732 47.4262 14.9593C47.8174 15.0462 48.3169 15.0899 48.9249 15.0899H50.0984L50.402 13.5414H49.0555C48.795 13.5414 48.5796 13.5251 48.4117 13.4905C48.2422 13.4568 48.1117 13.3895 48.0198 13.2876C47.9278 13.1871 47.8656 13.0443 47.8318 12.8606C47.798 12.6777 47.7816 12.4408 47.7816 12.1516V9.11137L50.1845 9.11124ZM43.0931 10.588H39.9795C39.9795 10.2206 39.9978 9.91921 40.0369 9.68312C40.0756 9.44634 40.1531 9.25833 40.2687 9.11841C40.3851 8.97847 40.5443 8.88162 40.7468 8.82853C40.9498 8.77544 41.2154 8.7488 41.5435 8.7488C41.8428 8.7488 42.0933 8.77544 42.2964 8.82853C42.4988 8.88162 42.6581 8.96623 42.7744 9.08182C42.89 9.19817 42.9725 9.35232 43.0206 9.54535C43.0686 9.73838 43.093 9.97446 43.093 10.255L43.0931 10.588ZM44.1863 8.12605C43.9307 7.87562 43.5927 7.68044 43.1728 7.54052C42.7522 7.40058 42.2239 7.33028 41.5866 7.33028C40.9011 7.33028 40.3341 7.40695 39.8855 7.56131C39.4369 7.7163 39.0794 7.94521 38.8139 8.25017C38.5483 8.55368 38.3624 8.92753 38.2562 9.37099C38.15 9.81516 38.0969 10.3268 38.0969 10.9058V11.7167C38.0969 12.2577 38.1478 12.7377 38.2491 13.1575C38.3502 13.5773 38.529 13.9318 38.7845 14.2209C39.0408 14.5108 39.3903 14.7333 39.8346 14.8875C40.2789 15.0419 40.843 15.1193 41.5292 15.1193H42.7523C42.9504 15.1193 43.1556 15.1173 43.3681 15.1112C43.5805 15.1071 43.8217 15.099 44.0923 15.089L44.3822 13.6417C43.7449 13.66 43.2087 13.6704 42.7745 13.6704H41.616C41.2679 13.6704 40.9887 13.6468 40.7756 13.5986C40.5638 13.5498 40.3973 13.4629 40.276 13.3374C40.1553 13.2119 40.0758 13.0381 40.037 12.8164C39.9981 12.5947 39.9796 12.3098 39.9796 11.9618H43.7449C43.9574 11.9618 44.1361 11.9415 44.2804 11.9045C44.4254 11.8658 44.5431 11.7881 44.6349 11.672C44.7275 11.5564 44.7922 11.395 44.8308 11.1876C44.8695 10.9803 44.8882 10.7119 44.8882 10.384V10.1378C44.8882 9.73242 44.836 9.35857 44.7295 9.0163C44.6225 8.67402 44.4418 8.3779 44.1863 8.12605ZM35.2258 11.9331L30.2877 4.78131H28.6218V15.089H30.549V7.9952L35.4577 15.089H37.1379V4.78131H35.2258V11.9331Z" fill="black"/>
<path d="M21.2303 1.23559L15.8931 14.4422C15.578 15.2207 14.8222 15.7309 13.9824 15.7309H17.3688C18.6823 15.7309 19.8644 14.9337 20.3568 13.716L25.4004 1.23559H21.2303ZM10.6004 2.20213C12.2893 2.20213 13.7887 3.21319 14.421 4.77816L16.7623 10.5717L17.8052 7.99209L16.2132 4.05414C15.2845 1.7551 13.081 0.269051 10.6004 0.269051C8.1199 0.269051 5.91712 1.7551 4.98835 4.05414L0.269156 15.7309H2.35421L6.78057 4.77816C7.41291 3.21319 8.9123 2.20213 10.6004 2.20213ZM10.6011 4.77888C11.2328 4.77888 11.794 5.15774 12.0309 5.74327L15.372 14.0109L16.4149 11.4313L13.8238 5.01925C13.2898 3.69896 12.0252 2.84651 10.6011 2.84651C9.17643 2.84651 7.91103 3.69896 7.37775 5.01925L3.049 15.7309H5.13407L9.17066 5.74327C9.40679 5.15774 9.96883 4.77888 10.6011 4.77888ZM11.4337 5.98437C11.1308 5.23597 10.0707 5.23597 9.76784 5.98437L5.82883 15.7309H7.9139L10.6004 9.08277L12.669 14.2011C12.885 14.7364 13.4047 15.0865 13.9818 15.0865C14.3514 15.0865 14.6966 14.9415 14.955 14.6976L11.4337 5.98437Z" fill="black"/>
</g>
<defs>
<clipPath id="clip0_65_39">
<rect width="97" height="16" fill="white"/>
</clipPath>
</defs>
</svg>
