<svg width="54" height="16" viewBox="0 0 54 16" fill="none" xmlns="http://www.w3.org/2000/svg">
<path d="M0 0.0306578C0 0.0479031 0.224219 1.57698 0.498264 3.42798C0.772309 5.27897 1.01761 6.9556 1.04444 7.15679C1.40855 9.86047 2.08696 11.7651 3.17931 13.1447C3.3652 13.3804 3.92479 13.9399 4.15859 14.1258C5.14362 14.9038 6.32412 15.4039 7.94731 15.7315C8.1562 15.7737 8.34976 15.8082 8.37659 15.8082C8.47241 15.8082 8.53565 15.6664 8.47241 15.5916C8.46091 15.5763 8.34401 15.5112 8.21561 15.4479C7.33406 15.0149 6.6844 14.3174 6.16889 13.2501C5.68404 12.248 5.36017 11.0389 5.03055 9.00587C4.99222 8.76827 4.78717 7.40972 4.57445 5.98794L4.18734 3.40115L7.28232 3.3954C10.408 3.38966 11.0825 3.39924 11.8529 3.46055C14.5033 3.67133 16.0384 4.44736 17.2342 6.17956C17.4124 6.43824 17.4603 6.47273 17.5504 6.40566C17.6175 6.35584 17.6232 6.29836 17.5734 6.11824C16.8797 3.61384 15.289 1.85099 12.859 0.894837C11.5118 0.364066 10.0477 0.0900583 8.18303 0.0191603C7.88982 0.00766373 6.04816 -9.53674e-07 3.83855 -9.53674e-07C0.318122 -9.53674e-07 0 0.00191498 0 0.0306578Z" fill="black"/>
<path d="M48.1783 11.401V15.8465H48.6957H49.2113L49.217 13.848L49.2227 11.8513L49.2745 11.6616C49.4144 11.1558 49.7018 10.7955 50.1426 10.5771C50.4857 10.4085 50.8709 10.3433 51.3155 10.3817C51.7045 10.4161 51.969 10.4966 52.2066 10.6518C52.5324 10.8645 52.747 11.2133 52.8447 11.6961C52.9003 11.9682 52.9118 12.3859 52.9118 14.1258V15.8465H53.4197H53.9275V13.8729C53.9275 12.614 53.9198 11.8303 53.9064 11.7115C53.8259 10.968 53.5941 10.4315 53.1839 10.0368C52.8428 9.70909 52.4193 9.51939 51.8386 9.437C51.5761 9.40059 51.0203 9.39868 50.7942 9.437C50.156 9.54047 49.6367 9.84514 49.309 10.3127L49.2132 10.4487V8.70312V6.9556H48.6957H48.1783V11.401Z" fill="black"/>
<path d="M9.3712 7.32733C9.3712 7.33307 9.97678 8.25282 10.7165 9.37185C11.4562 10.4909 12.0599 11.4164 12.0599 11.4279C12.0599 11.4451 9.65099 15.4652 9.45935 15.766L9.40953 15.8465H10.452H11.4946L12.3531 14.3902C12.8246 13.5912 13.2155 12.9397 13.2232 12.9435C13.2308 12.9493 13.6294 13.6027 14.1066 14.3998L14.9767 15.8465H16.0269H17.077L17.0406 15.7928C17.0081 15.7449 14.3768 11.631 14.3481 11.5792C14.3385 11.5639 16.5136 8.0727 16.9755 7.36182L17.0023 7.31966H15.9617H14.9192L14.0951 8.68204L13.2711 10.0463L13.2385 10.0003C13.2193 9.97543 12.8303 9.36418 12.3723 8.6418L11.5406 7.32924L10.4559 7.32349C9.85988 7.32158 9.3712 7.32349 9.3712 7.32733Z" fill="black"/>
<path d="M18.0257 7.34266C18.0218 7.35607 17.8915 8.45019 17.7382 9.77232C17.583 11.0945 17.4527 12.1962 17.4469 12.2192L17.4392 12.2633H18.2901H19.1429L19.2004 12.1809C19.3326 11.9874 19.6144 11.7785 19.875 11.6808C20.2832 11.5275 20.8926 11.539 21.2586 11.7057C21.8163 11.9567 22.0942 12.4798 22.0214 13.1352C21.9773 13.5241 21.8795 13.7598 21.6687 13.9802C21.3985 14.2657 20.9731 14.3921 20.4863 14.3347C20.2353 14.304 20.105 14.2657 19.8922 14.1641C19.7428 14.0913 19.6814 14.0472 19.5549 13.9208C19.3461 13.7138 19.2407 13.5069 19.1736 13.1773L19.164 13.1256H18.2786H17.3952L17.4067 13.2731C17.4239 13.4896 17.4891 13.8116 17.5638 14.0377C17.8091 14.7869 18.2863 15.3349 18.98 15.6645C19.2368 15.7871 19.4783 15.8695 19.7428 15.9212C20.9328 16.1569 22.1536 15.8542 22.9048 15.1414C23.2555 14.806 23.4932 14.4381 23.6388 14.0012C23.7672 13.6123 23.7902 13.4551 23.7902 12.9531C23.7902 12.4645 23.7691 12.3055 23.656 11.9644C23.2421 10.7151 22.0194 9.99268 20.5611 10.1364C20.059 10.1862 19.6182 10.3299 19.3767 10.5196C19.3231 10.5618 19.279 10.5886 19.279 10.5771C19.279 10.5426 19.4112 9.15533 19.4246 9.06718L19.4342 8.9867H21.4158H23.3992L23.4069 8.94263C23.4127 8.91964 23.4529 8.57665 23.4951 8.18193C23.5391 7.7872 23.5794 7.4308 23.5851 7.39056L23.5966 7.31966H20.814C18.6044 7.31966 18.0314 7.32541 18.0257 7.34266Z" fill="black"/>
<path d="M26.8679 7.83702V8.35438H28.3531H29.8384V12.1004V15.8465H30.3941H30.9499V12.1004V8.35438H32.4351H33.9203V7.83702V7.31966H30.3941H26.8679V7.83702Z" fill="black"/>
<path d="M36.335 9.38335C36.2985 9.38718 36.1644 9.41209 36.036 9.437C34.7386 9.6976 33.7804 10.6672 33.5159 11.9874C33.4642 12.248 33.445 12.819 33.4776 13.0987C33.5466 13.6908 33.744 14.2254 34.0506 14.6585C34.2135 14.8884 34.5297 15.2065 34.7539 15.3655C35.0567 15.5782 35.5339 15.7871 35.9133 15.8733C36.2736 15.9557 36.8045 15.9845 37.1935 15.9404C38.3012 15.8197 39.0946 15.3119 39.589 14.4075C39.6331 14.327 39.6695 14.2542 39.6695 14.2427C39.6695 14.2235 38.7554 13.8786 38.7439 13.8939C38.74 13.8978 38.696 13.961 38.6442 14.0338C38.259 14.5818 37.8278 14.8597 37.2127 14.9574C36.9195 15.0053 36.3924 14.9861 36.1337 14.921C35.4917 14.7562 35.0031 14.3826 34.7252 13.8422C34.614 13.6238 34.5144 13.275 34.5144 13.0911V13.0489H37.1973C39.7366 13.0489 39.8822 13.047 39.8956 13.0144C39.9205 12.955 39.911 12.0909 39.8841 11.9376C39.7538 11.2133 39.4913 10.6825 39.0352 10.2322C38.6289 9.82789 38.0406 9.53281 37.4081 9.41784C37.2318 9.38526 36.5017 9.36227 36.335 9.38335ZM37.2452 10.3874C38.1115 10.5618 38.7649 11.2018 38.855 11.9606L38.8684 12.0717H36.7125H34.5565L34.5814 11.9414C34.7942 10.8358 35.9938 10.1345 37.2452 10.3874Z" fill="black"/>
<path d="M43.4831 9.437C42.2049 9.63245 41.2544 10.4008 40.8692 11.5543C40.5319 12.5641 40.6852 13.7407 41.2639 14.5876C41.4173 14.8099 41.7143 15.1203 41.9385 15.2889C42.4962 15.7104 43.1478 15.9308 43.9162 15.9557C44.6943 15.9825 45.3631 15.8101 45.9189 15.4422C46.1642 15.2774 46.5034 14.9363 46.6682 14.6872C46.8023 14.4841 46.9288 14.2446 46.9097 14.2274C46.8982 14.2159 46.03 13.892 46.0089 13.892C46.0032 13.892 45.9476 13.9629 45.8863 14.0492C45.572 14.4975 45.1619 14.7926 44.6751 14.921C44.426 14.9861 43.8932 15.0053 43.6249 14.9574C42.8814 14.829 42.3218 14.4113 42.0094 13.756C41.8484 13.4207 41.7775 13.0853 41.7775 12.6753C41.7775 11.9165 42.0669 11.2669 42.5901 10.8511C43.372 10.2322 44.6157 10.2111 45.411 10.8032C45.595 10.9412 45.8096 11.1634 45.9285 11.3436C45.9783 11.4164 46.0204 11.4777 46.0224 11.4777C46.0262 11.4777 46.8215 11.1845 46.9001 11.1539L46.9518 11.1328L46.8867 11.0025C46.7928 10.8166 46.6088 10.5464 46.4727 10.397C46.0281 9.90645 45.5203 9.62287 44.8189 9.47341C44.6119 9.42933 44.5314 9.42359 44.1251 9.41784C43.7917 9.41209 43.6154 9.41784 43.4831 9.437Z" fill="black"/>
</svg>
