<svg width="62" height="18" viewBox="0 0 62 18" fill="none" xmlns="http://www.w3.org/2000/svg">
<g clip-path="url(#clip0_86_622)">
<mask id="path-1-outside-1_86_622" maskUnits="userSpaceOnUse" x="0" y="0" width="62" height="18" fill="black">
<rect fill="white" width="62" height="18"/>
<path d="M61.5693 17H1V1H61.5693V17ZM31.5508 16.4678H61.0078V1.56152H31.5508V16.4678ZM16.7812 5.42871C16.5669 5.4274 16.3582 5.42942 16.1484 5.47852C16.1263 5.48434 16.1045 5.48946 16.083 5.49512C15.3536 5.68124 14.6967 6.01942 14.1992 6.5957C14.1761 6.62379 14.1533 6.65145 14.1309 6.67871C14.0217 6.81003 13.9196 6.94442 13.8301 7.08984C13.3343 7.93194 13.1772 8.96998 13.4209 9.92188C13.4288 9.95091 13.4357 9.97963 13.4434 10.0078C13.4974 10.2089 13.5497 10.4083 13.6445 10.5947C13.6591 10.6206 13.6733 10.6458 13.6875 10.6709C13.9067 11.068 14.1561 11.441 14.5039 11.7373C14.528 11.7569 14.5518 11.7759 14.5752 11.7949C14.9626 12.116 15.3801 12.3398 15.8652 12.4785C15.9154 12.4916 15.9157 12.492 15.9648 12.5049C16.6844 12.6963 17.5447 12.6519 18.2422 12.3867C18.6404 12.2219 19.3547 11.8877 19.5391 11.4717C19.5435 11.4104 19.5433 11.4102 19.5039 11.3545C19.4834 11.335 19.4633 11.3158 19.4434 11.2969C19.4102 11.2646 19.4096 11.2642 19.377 11.2324C19.3308 11.189 19.285 11.1454 19.2393 11.1016C19.2164 11.0795 19.194 11.0575 19.1719 11.0361C19.0865 10.9538 19.0056 10.8697 18.9277 10.7803C18.8768 10.7208 18.8256 10.662 18.7725 10.6045C18.7563 10.5881 18.7403 10.5725 18.7246 10.5566C18.6575 10.4878 18.5965 10.4447 18.5088 10.4053C18.3536 10.5636 18.1902 10.7015 18 10.8164C17.4838 11.0904 16.8586 11.1967 16.29 11.0254C15.7672 10.8529 15.3938 10.527 15.1445 10.0381C15.1318 10.012 15.1198 9.98628 15.1074 9.96094C14.9534 9.6702 14.9274 9.3798 14.9229 9.05566C14.9226 9.02494 14.9221 8.99466 14.9219 8.96484C14.9208 8.85294 14.9221 8.74156 14.9297 8.62988C14.9938 8.16743 15.2307 7.67196 15.6025 7.37695C15.6252 7.36081 15.6469 7.34477 15.6689 7.3291C15.9537 7.12576 16.2578 6.96554 16.6113 6.93848C17.2365 6.91423 17.8031 7.00716 18.29 7.42676C18.3794 7.50665 18.4565 7.57789 18.5674 7.625C18.6129 7.58056 18.6566 7.53545 18.6982 7.4873C18.9404 7.21912 18.9404 7.21888 19.1992 6.9668C19.2441 6.92331 19.2895 6.87976 19.334 6.83594C19.3483 6.82184 19.3621 6.80763 19.376 6.79395C19.4626 6.70951 19.5278 6.65339 19.543 6.53027C19.4811 6.47423 19.419 6.41849 19.3564 6.36328C19.3296 6.33973 19.3034 6.3168 19.2773 6.29395C18.6296 5.7155 17.8286 5.42688 16.9648 5.42773C16.9038 5.42811 16.8423 5.42903 16.7812 5.42871ZM11.8535 5.49512C11.7886 5.49512 11.788 5.49577 11.6797 5.59766C11.5745 5.69808 11.4682 5.79652 11.3564 5.88965C11.2122 6.00535 11.0728 6.12407 10.9375 6.25C10.8525 6.32906 10.767 6.40624 10.6777 6.48047C10.5333 6.59668 10.3925 6.71458 10.2568 6.84082C10.1722 6.91956 10.087 6.99748 9.99805 7.07129C9.84762 7.19203 9.70225 7.31547 9.56152 7.44727C9.44574 7.55569 9.32878 7.66027 9.20508 7.75977C9.08825 7.85354 8.97681 7.95169 8.86719 8.05371C8.78268 8.13236 8.69729 8.20947 8.6084 8.2832C8.47561 8.38978 8.34529 8.49824 8.2207 8.61426C8.08796 8.73857 7.95517 8.86036 7.81348 8.97461C7.7027 9.06356 7.59573 9.15475 7.49121 9.25098C7.25287 9.46255 7.25304 9.46299 7.00391 9.66504V5.52539H5.49512V12.5635C5.59757 12.5635 5.59745 12.5633 6.02539 12.166C6.13757 12.0616 6.25183 11.9616 6.37109 11.8652C6.45042 11.8014 6.52934 11.7366 6.60547 11.6689C6.70445 11.5787 6.80305 11.4888 6.90625 11.4033C7.03999 11.2951 7.17264 11.1862 7.2998 11.0703C7.37417 11.0025 7.44876 10.9361 7.52637 10.8721C7.66612 10.7593 7.80336 10.6451 7.93555 10.5234C8.04199 10.4255 8.15021 10.3312 8.2627 10.2402C8.36839 10.1549 8.4709 10.0671 8.57129 9.97559C8.64575 9.90772 8.72112 9.84148 8.79883 9.77734C8.9385 9.66461 9.07492 9.5503 9.20703 9.42871C9.28701 9.35509 9.3675 9.28328 9.45117 9.21387C9.59016 9.10173 9.72598 8.98816 9.85742 8.86719C10.0959 8.6555 10.0963 8.65538 10.3457 8.45312C10.3558 9.83063 10.3652 11.1679 10.375 12.5049H11.9131V5.43652H11.8535V5.49512ZM20.8154 12.5049H22.3535V6.91504H25.4883V12.5049H27.0254V5.52539H20.8154V12.5049Z"/>
</mask>
<path d="M61.5693 17H1V1H61.5693V17ZM31.5508 16.4678H61.0078V1.56152H31.5508V16.4678ZM16.7812 5.42871C16.5669 5.4274 16.3582 5.42942 16.1484 5.47852C16.1263 5.48434 16.1045 5.48946 16.083 5.49512C15.3536 5.68124 14.6967 6.01942 14.1992 6.5957C14.1761 6.62379 14.1533 6.65145 14.1309 6.67871C14.0217 6.81003 13.9196 6.94442 13.8301 7.08984C13.3343 7.93194 13.1772 8.96998 13.4209 9.92188C13.4288 9.95091 13.4357 9.97963 13.4434 10.0078C13.4974 10.2089 13.5497 10.4083 13.6445 10.5947C13.6591 10.6206 13.6733 10.6458 13.6875 10.6709C13.9067 11.068 14.1561 11.441 14.5039 11.7373C14.528 11.7569 14.5518 11.7759 14.5752 11.7949C14.9626 12.116 15.3801 12.3398 15.8652 12.4785C15.9154 12.4916 15.9157 12.492 15.9648 12.5049C16.6844 12.6963 17.5447 12.6519 18.2422 12.3867C18.6404 12.2219 19.3547 11.8877 19.5391 11.4717C19.5435 11.4104 19.5433 11.4102 19.5039 11.3545C19.4834 11.335 19.4633 11.3158 19.4434 11.2969C19.4102 11.2646 19.4096 11.2642 19.377 11.2324C19.3308 11.189 19.285 11.1454 19.2393 11.1016C19.2164 11.0795 19.194 11.0575 19.1719 11.0361C19.0865 10.9538 19.0056 10.8697 18.9277 10.7803C18.8768 10.7208 18.8256 10.662 18.7725 10.6045C18.7563 10.5881 18.7403 10.5725 18.7246 10.5566C18.6575 10.4878 18.5965 10.4447 18.5088 10.4053C18.3536 10.5636 18.1902 10.7015 18 10.8164C17.4838 11.0904 16.8586 11.1967 16.29 11.0254C15.7672 10.8529 15.3938 10.527 15.1445 10.0381C15.1318 10.012 15.1198 9.98628 15.1074 9.96094C14.9534 9.6702 14.9274 9.3798 14.9229 9.05566C14.9226 9.02494 14.9221 8.99466 14.9219 8.96484C14.9208 8.85294 14.9221 8.74156 14.9297 8.62988C14.9938 8.16743 15.2307 7.67196 15.6025 7.37695C15.6252 7.36081 15.6469 7.34477 15.6689 7.3291C15.9537 7.12576 16.2578 6.96554 16.6113 6.93848C17.2365 6.91423 17.8031 7.00716 18.29 7.42676C18.3794 7.50665 18.4565 7.57789 18.5674 7.625C18.6129 7.58056 18.6566 7.53545 18.6982 7.4873C18.9404 7.21912 18.9404 7.21888 19.1992 6.9668C19.2441 6.92331 19.2895 6.87976 19.334 6.83594C19.3483 6.82184 19.3621 6.80763 19.376 6.79395C19.4626 6.70951 19.5278 6.65339 19.543 6.53027C19.4811 6.47423 19.419 6.41849 19.3564 6.36328C19.3296 6.33973 19.3034 6.3168 19.2773 6.29395C18.6296 5.7155 17.8286 5.42688 16.9648 5.42773C16.9038 5.42811 16.8423 5.42903 16.7812 5.42871ZM11.8535 5.49512C11.7886 5.49512 11.788 5.49577 11.6797 5.59766C11.5745 5.69808 11.4682 5.79652 11.3564 5.88965C11.2122 6.00535 11.0728 6.12407 10.9375 6.25C10.8525 6.32906 10.767 6.40624 10.6777 6.48047C10.5333 6.59668 10.3925 6.71458 10.2568 6.84082C10.1722 6.91956 10.087 6.99748 9.99805 7.07129C9.84762 7.19203 9.70225 7.31547 9.56152 7.44727C9.44574 7.55569 9.32878 7.66027 9.20508 7.75977C9.08825 7.85354 8.97681 7.95169 8.86719 8.05371C8.78268 8.13236 8.69729 8.20947 8.6084 8.2832C8.47561 8.38978 8.34529 8.49824 8.2207 8.61426C8.08796 8.73857 7.95517 8.86036 7.81348 8.97461C7.7027 9.06356 7.59573 9.15475 7.49121 9.25098C7.25287 9.46255 7.25304 9.46299 7.00391 9.66504V5.52539H5.49512V12.5635C5.59757 12.5635 5.59745 12.5633 6.02539 12.166C6.13757 12.0616 6.25183 11.9616 6.37109 11.8652C6.45042 11.8014 6.52934 11.7366 6.60547 11.6689C6.70445 11.5787 6.80305 11.4888 6.90625 11.4033C7.03999 11.2951 7.17264 11.1862 7.2998 11.0703C7.37417 11.0025 7.44876 10.9361 7.52637 10.8721C7.66612 10.7593 7.80336 10.6451 7.93555 10.5234C8.04199 10.4255 8.15021 10.3312 8.2627 10.2402C8.36839 10.1549 8.4709 10.0671 8.57129 9.97559C8.64575 9.90772 8.72112 9.84148 8.79883 9.77734C8.9385 9.66461 9.07492 9.5503 9.20703 9.42871C9.28701 9.35509 9.3675 9.28328 9.45117 9.21387C9.59016 9.10173 9.72598 8.98816 9.85742 8.86719C10.0959 8.6555 10.0963 8.65538 10.3457 8.45312C10.3558 9.83063 10.3652 11.1679 10.375 12.5049H11.9131V5.43652H11.8535V5.49512ZM20.8154 12.5049H22.3535V6.91504H25.4883V12.5049H27.0254V5.52539H20.8154V12.5049Z" fill="#1F2328"/>
<path d="M61.5693 17V17.4H61.9693V17H61.5693ZM1 17H0.6V17.4H1V17ZM1 1V0.6H0.6V1H1ZM61.5693 1H61.9693V0.6H61.5693V1ZM31.5508 16.4678H31.1508V16.8678H31.5508V16.4678ZM61.0078 16.4678V16.8678H61.4078V16.4678H61.0078ZM61.0078 1.56152H61.4078V1.16152H61.0078V1.56152ZM31.5508 1.56152V1.16152H31.1508V1.56152H31.5508ZM16.7812 5.42871L16.7788 5.8287L16.7792 5.82871L16.7812 5.42871ZM16.1484 5.47852L16.0572 5.08889L16.0464 5.09174L16.1484 5.47852ZM16.083 5.49512L16.1819 5.88271L16.185 5.88189L16.083 5.49512ZM14.1992 6.5957L13.8963 6.33425L13.8903 6.34163L14.1992 6.5957ZM14.1309 6.67871L14.4384 6.93446L14.4398 6.93278L14.1309 6.67871ZM13.8301 7.08984L13.4894 6.88008L13.4854 6.88689L13.8301 7.08984ZM13.4209 9.92188L13.0334 10.0211L13.0349 10.0266L13.4209 9.92188ZM13.4434 10.0078L13.8297 9.90405L13.8294 9.90305L13.4434 10.0078ZM13.6445 10.5947L13.288 10.7761L13.2919 10.7838L13.2962 10.7913L13.6445 10.5947ZM13.6875 10.6709L14.0377 10.4776L14.0359 10.4743L13.6875 10.6709ZM14.5039 11.7373L14.2444 12.0419L14.2514 12.0475L14.5039 11.7373ZM14.5752 11.7949L14.8305 11.4869L14.8277 11.4847L14.5752 11.7949ZM15.8652 12.4785L15.7552 12.8632L15.764 12.8655L15.8652 12.4785ZM15.9648 12.5049L16.0677 12.1183L16.0661 12.1179L15.9648 12.5049ZM18.2422 12.3867L18.3844 12.7608L18.3951 12.7563L18.2422 12.3867ZM19.5391 11.4717L19.9048 11.6338L19.933 11.5701L19.938 11.5007L19.5391 11.4717ZM19.5039 11.3545L19.8304 11.1234L19.8079 11.0916L19.7797 11.0647L19.5039 11.3545ZM19.4434 11.2969L19.1645 11.5837L19.1676 11.5866L19.4434 11.2969ZM19.377 11.2324L19.6558 10.9456L19.6511 10.9411L19.377 11.2324ZM19.2393 11.1016L18.9614 11.3893L18.9624 11.3903L19.2393 11.1016ZM19.1719 11.0361L19.4497 10.7484L19.4496 10.7483L19.1719 11.0361ZM18.9277 10.7803L18.624 11.0406L18.626 11.0429L18.9277 10.7803ZM18.7725 10.6045L19.0662 10.3327L19.057 10.3234L18.7725 10.6045ZM18.7246 10.5566L18.4381 10.8358L18.4401 10.8378L18.7246 10.5566ZM18.5088 10.4053L18.6728 10.0404L18.4184 9.92606L18.2231 10.1253L18.5088 10.4053ZM18 10.8164L18.1875 11.1697L18.1973 11.1645L18.2068 11.1588L18 10.8164ZM16.29 11.0254L16.1647 11.4054L16.1746 11.4084L16.29 11.0254ZM15.1445 10.0381L14.7852 10.214L14.7882 10.2198L15.1445 10.0381ZM15.1074 9.96094L15.4669 9.78498L15.4609 9.77373L15.1074 9.96094ZM14.9229 9.05566L14.5229 9.05835L14.5229 9.06122L14.9229 9.05566ZM14.9219 8.96484L15.3219 8.96216L15.3219 8.96096L14.9219 8.96484ZM14.9297 8.62988L14.5335 8.57494L14.5316 8.58875L14.5306 8.60266L14.9297 8.62988ZM15.6025 7.37695L15.3705 7.05112L15.3621 7.05714L15.3539 7.06359L15.6025 7.37695ZM15.6689 7.3291L15.901 7.65494L15.9014 7.65463L15.6689 7.3291ZM16.6113 6.93848L16.5958 6.53878L16.5883 6.53907L16.5808 6.53964L16.6113 6.93848ZM18.29 7.42676L18.5568 7.12858L18.5512 7.12375L18.29 7.42676ZM18.5674 7.625L18.411 7.99315L18.6561 8.09731L18.8467 7.91128L18.5674 7.625ZM18.6982 7.4873L18.4013 7.21915L18.3957 7.22569L18.6982 7.4873ZM19.1992 6.9668L18.9207 6.67965L18.9201 6.68026L19.1992 6.9668ZM19.334 6.83594L19.6146 7.12098L19.6148 7.12078L19.334 6.83594ZM19.376 6.79395L19.0968 6.50747L19.0951 6.50911L19.376 6.79395ZM19.543 6.53027L19.94 6.57918L19.9653 6.37321L19.8116 6.23386L19.543 6.53027ZM19.3564 6.36328L19.621 6.06329L19.6202 6.06258L19.3564 6.36328ZM19.2773 6.29395L19.0109 6.5923L19.0136 6.59465L19.2773 6.29395ZM16.9648 5.42773L16.9645 5.02773L16.9624 5.02774L16.9648 5.42773ZM11.8535 5.49512L11.8535 5.89512L12.2535 5.89511V5.49512H11.8535ZM11.6797 5.59766L11.4056 5.3063L11.4035 5.30834L11.6797 5.59766ZM11.3564 5.88965L11.6068 6.20174L11.6126 6.19689L11.3564 5.88965ZM10.9375 6.25L11.21 6.54282L11.21 6.54282L10.9375 6.25ZM10.6777 6.48047L10.9285 6.79216L10.9335 6.78802L10.6777 6.48047ZM10.2568 6.84082L9.98434 6.548L9.98432 6.54801L10.2568 6.84082ZM9.99805 7.07129L10.2485 7.38327L10.2534 7.37919L9.99805 7.07129ZM9.56152 7.44727L9.83494 7.73923L9.83495 7.73922L9.56152 7.44727ZM9.20508 7.75977L9.45546 8.07171L9.45578 8.07146L9.20508 7.75977ZM8.86719 8.05371L8.59468 7.7609L8.59467 7.7609L8.86719 8.05371ZM8.6084 8.2832L8.85881 8.59519L8.86377 8.59108L8.6084 8.2832ZM8.2207 8.61426L7.9481 8.32153L7.94729 8.32229L8.2207 8.61426ZM7.81348 8.97461L8.06392 9.28651L8.06454 9.286L7.81348 8.97461ZM7.49121 9.25098L7.7568 9.55017L7.76214 9.54525L7.49121 9.25098ZM7.00391 9.66504H6.60391V10.5045L7.25586 9.97571L7.00391 9.66504ZM7.00391 5.52539H7.40391V5.12539H7.00391V5.52539ZM5.49512 5.52539V5.12539H5.09512V5.52539H5.49512ZM5.49512 12.5635H5.09512V12.9635H5.49512V12.5635ZM6.02539 12.166L6.29755 12.4592L6.2979 12.4588L6.02539 12.166ZM6.37109 11.8652L6.12024 11.5537L6.11964 11.5542L6.37109 11.8652ZM6.60547 11.6689L6.87118 11.968L6.87496 11.9645L6.60547 11.6689ZM6.90625 11.4033L6.65466 11.0923L6.65118 11.0952L6.90625 11.4033ZM7.2998 11.0703L7.56925 11.3659L7.56926 11.3659L7.2998 11.0703ZM7.52637 10.8721L7.27513 10.5608L7.27172 10.5636L7.52637 10.8721ZM7.93555 10.5234L8.20642 10.8178L8.20642 10.8178L7.93555 10.5234ZM8.2627 10.2402L8.01146 9.92897L8.01117 9.92921L8.2627 10.2402ZM8.57129 9.97559L8.30183 9.67996L8.30183 9.67997L8.57129 9.97559ZM8.79883 9.77734L8.54758 9.46606L8.54421 9.46884L8.79883 9.77734ZM9.20703 9.42871L9.47791 9.72303L9.47792 9.72302L9.20703 9.42871ZM9.45117 9.21387L9.19998 8.90253L9.19578 8.90601L9.45117 9.21387ZM9.85742 8.86719L9.59183 8.568L9.58655 8.57286L9.85742 8.86719ZM10.3457 8.45312L10.7457 8.45021L10.7396 7.61864L10.0937 8.14245L10.3457 8.45312ZM10.375 12.5049L9.97501 12.5078L9.97791 12.9049H10.375V12.5049ZM11.9131 12.5049V12.9049H12.3131V12.5049H11.9131ZM11.9131 5.43652H12.3131V5.03652H11.9131V5.43652ZM11.8535 5.43652V5.03652H11.4535V5.43652H11.8535ZM20.8154 12.5049H20.4154V12.9049H20.8154V12.5049ZM22.3535 12.5049V12.9049H22.7535V12.5049H22.3535ZM22.3535 6.91504V6.51504H21.9535V6.91504H22.3535ZM25.4883 6.91504H25.8883V6.51504H25.4883V6.91504ZM25.4883 12.5049H25.0883V12.9049H25.4883V12.5049ZM27.0254 12.5049V12.9049H27.4254V12.5049H27.0254ZM27.0254 5.52539H27.4254V5.12539H27.0254V5.52539ZM20.8154 5.52539V5.12539H20.4154V5.52539H20.8154ZM61.5693 17V16.6H1V17V17.4H61.5693V17ZM1 17H1.4V1H1H0.6V17H1ZM1 1V1.4H61.5693V1V0.6H1V1ZM61.5693 1H61.1693V17H61.5693H61.9693V1H61.5693ZM31.5508 16.4678V16.8678H61.0078V16.4678V16.0678H31.5508V16.4678ZM61.0078 16.4678H61.4078V1.56152H61.0078H60.6078V16.4678H61.0078ZM61.0078 1.56152V1.16152H31.5508V1.56152V1.96152H61.0078V1.56152ZM31.5508 1.56152H31.1508V16.4678H31.5508H31.9508V1.56152H31.5508ZM16.7812 5.42871L16.7837 5.02872C16.5706 5.02742 16.3184 5.02791 16.0573 5.08904L16.1484 5.47852L16.2396 5.86799C16.3979 5.83093 16.5632 5.82739 16.7788 5.8287L16.7812 5.42871ZM16.1484 5.47852L16.0464 5.09174C16.0385 5.09382 16.0302 5.0959 16.0189 5.09871C16.0085 5.1013 15.9949 5.10467 15.981 5.10834L16.083 5.49512L16.185 5.88189C16.1925 5.87991 16.2006 5.8779 16.212 5.87505C16.2226 5.87244 16.2362 5.86904 16.2504 5.86529L16.1484 5.47852ZM16.083 5.49512L15.9841 5.10754C15.1979 5.30816 14.4607 5.68064 13.8964 6.33432L14.1992 6.5957L14.502 6.85708C14.9327 6.3582 15.5094 6.05431 16.1819 5.8827L16.083 5.49512ZM14.1992 6.5957L13.8903 6.34163C13.8789 6.35549 13.8675 6.36927 13.8561 6.38313C13.8447 6.39693 13.8333 6.41082 13.8219 6.42464L14.1309 6.67871L14.4398 6.93278C14.4509 6.91934 14.462 6.90577 14.4735 6.89191C14.4849 6.87809 14.4965 6.864 14.5082 6.84977L14.1992 6.5957ZM14.1309 6.67871L13.8233 6.42296C13.707 6.56286 13.5923 6.71313 13.4895 6.88012L13.8301 7.08984L14.1707 7.29957C14.2469 7.17572 14.3364 7.05719 14.4384 6.93446L14.1309 6.67871ZM13.8301 7.08984L13.4854 6.88689C12.9373 7.81781 12.7628 8.96425 13.0334 10.0211L13.4209 9.92188L13.8084 9.82265C13.5915 8.97572 13.7312 8.04606 14.1748 7.2928L13.8301 7.08984ZM13.4209 9.92188L13.0349 10.0266C13.0379 10.038 13.041 10.0498 13.0447 10.0645C13.0483 10.0783 13.0526 10.0953 13.0573 10.1126L13.4434 10.0078L13.8294 9.90305C13.8264 9.89214 13.8235 9.88067 13.8197 9.86583C13.8161 9.85189 13.8117 9.83477 13.8069 9.81711L13.4209 9.92188ZM13.4434 10.0078L13.0571 10.1116C13.1087 10.3038 13.1708 10.5457 13.288 10.7761L13.6445 10.5947L14.001 10.4133C13.9286 10.271 13.8861 10.1141 13.8297 9.90405L13.4434 10.0078ZM13.6445 10.5947L13.2962 10.7913C13.3034 10.8042 13.3106 10.8169 13.3178 10.8296C13.3249 10.8423 13.332 10.8549 13.3391 10.8675L13.6875 10.6709L14.0359 10.4743C14.0288 10.4618 14.0217 10.4493 14.0146 10.4366C14.0074 10.4239 14.0002 10.4111 13.9929 10.3981L13.6445 10.5947ZM13.6875 10.6709L13.3373 10.8642C13.5658 11.2781 13.843 11.6997 14.2445 12.0418L14.5039 11.7373L14.7633 11.4328C14.4693 11.1823 14.2476 10.8579 14.0377 10.4776L13.6875 10.6709ZM14.5039 11.7373L14.2514 12.0475C14.2644 12.0581 14.2772 12.0684 14.2889 12.0779C14.301 12.0876 14.3119 12.0964 14.3227 12.1051L14.5752 11.7949L14.8277 11.4847C14.8151 11.4744 14.8024 11.4642 14.7907 11.4548C14.7787 11.4451 14.7675 11.4361 14.7564 11.4271L14.5039 11.7373ZM14.5752 11.7949L14.3199 12.1029C14.7486 12.4582 15.2153 12.7087 15.7553 12.8631L15.8652 12.4785L15.9752 12.0939C15.5449 11.9709 15.1766 11.7738 14.8305 11.487L14.5752 11.7949ZM15.8652 12.4785L15.764 12.8655C15.7881 12.8718 15.7999 12.875 15.8119 12.8782C15.8248 12.8816 15.838 12.8852 15.8636 12.8919L15.9648 12.5049L16.0661 12.1179C16.0425 12.1117 16.031 12.1086 16.0189 12.1054C16.006 12.102 15.9926 12.0984 15.9665 12.0915L15.8652 12.4785ZM15.9648 12.5049L15.862 12.8914C16.6626 13.1044 17.6086 13.0556 18.3844 12.7606L18.2422 12.3867L18.1 12.0128C17.4808 12.2483 16.7062 12.2882 16.0677 12.1183L15.9648 12.5049ZM18.2422 12.3867L18.3951 12.7563C18.6016 12.6709 18.9031 12.5364 19.1819 12.3632C19.4438 12.2005 19.7605 11.9593 19.9048 11.6338L19.5391 11.4717L19.1734 11.3096C19.1333 11.4001 19.0007 11.534 18.7598 11.6836C18.5358 11.8228 18.281 11.9378 18.0892 12.0171L18.2422 12.3867ZM19.5391 11.4717L19.938 11.5007C19.9387 11.4905 19.941 11.4625 19.941 11.4351C19.941 11.4013 19.938 11.3521 19.9209 11.2956C19.9045 11.2411 19.8812 11.2002 19.8661 11.176C19.853 11.155 19.8375 11.1335 19.8304 11.1234L19.5039 11.3545L19.1774 11.5856C19.19 11.6033 19.1894 11.6028 19.1873 11.5994C19.1831 11.5928 19.1669 11.5662 19.1549 11.5264C19.1423 11.4845 19.141 11.4504 19.141 11.4356C19.141 11.4272 19.1416 11.4222 19.1401 11.4426L19.5391 11.4717ZM19.5039 11.3545L19.7797 11.0647C19.752 11.0384 19.7461 11.0328 19.7191 11.0071L19.4434 11.2969L19.1676 11.5866C19.1804 11.5988 19.2148 11.6315 19.2282 11.6443L19.5039 11.3545ZM19.4434 11.2969L19.7222 11.0101C19.7054 10.9937 19.6968 10.9854 19.6883 10.9772C19.6801 10.9692 19.6719 10.9613 19.6558 10.9456L19.377 11.2324L19.0981 11.5192C19.1147 11.5353 19.1232 11.5435 19.1316 11.5517C19.1399 11.5597 19.1482 11.5678 19.1645 11.5837L19.4434 11.2969ZM19.377 11.2324L19.6511 10.9411C19.606 10.8987 19.561 10.8559 19.5161 10.8129L19.2393 11.1016L18.9624 11.3903C19.0089 11.4349 19.0557 11.4794 19.1028 11.5237L19.377 11.2324ZM19.2393 11.1016L19.5171 10.8138C19.5064 10.8035 19.4957 10.793 19.4844 10.782C19.4733 10.7712 19.4615 10.7598 19.4497 10.7484L19.1719 11.0361L18.894 11.3239C18.9044 11.3339 18.9149 11.3441 18.9263 11.3552C18.9374 11.366 18.9493 11.3776 18.9614 11.3893L19.2393 11.1016ZM19.1719 11.0361L19.4496 10.7483C19.3713 10.6727 19.2985 10.5971 19.2295 10.5177L18.9277 10.7803L18.626 11.0429C18.7126 11.1424 18.8018 11.2349 18.8941 11.324L19.1719 11.0361ZM18.9277 10.7803L19.2315 10.52C19.1796 10.4595 19.1245 10.396 19.0661 10.3329L18.7725 10.6045L18.4788 10.8761C18.5268 10.9279 18.5739 10.9821 18.624 11.0406L18.9277 10.7803ZM18.7725 10.6045L19.057 10.3234C19.0474 10.3137 19.0381 10.3044 19.0303 10.2967C19.0221 10.2885 19.0155 10.2819 19.0091 10.2755L18.7246 10.5566L18.4401 10.8378C18.4494 10.8472 18.4586 10.8564 18.4664 10.8641C18.4745 10.8722 18.4813 10.8789 18.4879 10.8856L18.7725 10.6045ZM18.7246 10.5566L19.0111 10.2775C18.9097 10.1734 18.8073 10.1009 18.6728 10.0404L18.5088 10.4053L18.3448 10.7701C18.3857 10.7885 18.4054 10.8022 18.4381 10.8358L18.7246 10.5566ZM18.5088 10.4053L18.2231 10.1253C18.0853 10.2659 17.9479 10.3805 17.7932 10.474L18 10.8164L18.2068 11.1588C18.4325 11.0224 18.6219 10.8613 18.7945 10.6853L18.5088 10.4053ZM18 10.8164L17.8125 10.4631C17.37 10.698 16.8538 10.7775 16.4055 10.6424L16.29 11.0254L16.1746 11.4084C16.8634 11.616 17.5977 11.4828 18.1875 11.1697L18 10.8164ZM16.29 11.0254L16.4154 10.6455C15.9948 10.5068 15.7033 10.2534 15.5009 9.85639L15.1445 10.0381L14.7882 10.2198C15.0843 10.8006 15.5397 11.199 16.1647 11.4052L16.29 11.0254ZM15.1445 10.0381L15.5038 9.86222C15.4985 9.85132 15.4932 9.84021 15.4869 9.82709C15.4809 9.81458 15.474 9.79992 15.4667 9.78507L15.1074 9.96094L14.7482 10.1368C14.7533 10.1473 14.7585 10.1582 14.7648 10.1714C14.7708 10.184 14.7778 10.1988 14.7853 10.214L15.1445 10.0381ZM15.1074 9.96094L15.4609 9.77373C15.353 9.57003 15.3271 9.35914 15.3228 9.05011L14.9229 9.05566L14.5229 9.06122C14.5276 9.40045 14.5539 9.77036 14.7539 10.1481L15.1074 9.96094ZM14.9229 9.05566L15.3228 9.05298C15.3227 9.03621 15.3225 9.01977 15.3223 9.00481C15.3221 8.98944 15.322 8.97564 15.3219 8.96216L14.9219 8.96484L14.5219 8.96753C14.522 8.98386 14.5222 9.00012 14.5224 9.01502C14.5226 9.03034 14.5228 9.04439 14.5229 9.05835L14.9229 9.05566ZM14.9219 8.96484L15.3219 8.96096C15.3208 8.85419 15.3221 8.75426 15.3288 8.6571L14.9297 8.62988L14.5306 8.60266C14.522 8.72886 14.5208 8.85169 14.5219 8.96873L14.9219 8.96484ZM14.9297 8.62988L15.3259 8.68482C15.3791 8.3009 15.5767 7.90807 15.8511 7.69032L15.6025 7.37695L15.3539 7.06359C14.8847 7.43586 14.6085 8.03397 14.5335 8.57494L14.9297 8.62988ZM15.6025 7.37695L15.8346 7.70279C15.8475 7.69358 15.8599 7.68456 15.8708 7.67671C15.882 7.66854 15.8916 7.66162 15.901 7.65494L15.6689 7.3291L15.4369 7.00327C15.4243 7.01225 15.412 7.02119 15.4012 7.02899C15.39 7.03712 15.3803 7.04419 15.3705 7.05112L15.6025 7.37695ZM15.6689 7.3291L15.9014 7.65463C16.1611 7.46919 16.3939 7.35629 16.6419 7.33731L16.6113 6.93848L16.5808 6.53964C16.1216 6.57479 15.7463 6.78232 15.4365 7.00358L15.6689 7.3291ZM16.6113 6.93848L16.6268 7.33818C17.2034 7.31582 17.6509 7.40397 18.0289 7.72977L18.29 7.42676L18.5512 7.12375C17.9554 6.61035 17.2697 6.51265 16.5958 6.53878L16.6113 6.93848ZM18.29 7.42676L18.0234 7.72489C18.1028 7.79598 18.2286 7.91565 18.411 7.99315L18.5674 7.625L18.7238 7.25685C18.6845 7.24014 18.6559 7.21733 18.5567 7.12863L18.29 7.42676ZM18.5674 7.625L18.8467 7.91128C18.8975 7.8618 18.9496 7.80822 19.0008 7.74892L18.6982 7.4873L18.3957 7.22569C18.3637 7.26268 18.3284 7.29933 18.288 7.33872L18.5674 7.625ZM18.6982 7.4873L18.9951 7.7554C19.2318 7.49335 19.2258 7.49927 19.4783 7.25333L19.1992 6.9668L18.9201 6.68026C18.655 6.93848 18.6491 6.94488 18.4014 7.21921L18.6982 7.4873ZM19.1992 6.9668L19.4777 7.25395C19.5203 7.21258 19.5687 7.16617 19.6146 7.12098L19.334 6.83594L19.0534 6.55089C19.0102 6.59335 18.9678 6.63405 18.9207 6.67965L19.1992 6.9668ZM19.334 6.83594L19.6148 7.12078C19.6237 7.112 19.6322 7.10343 19.639 7.09663C19.6462 7.08931 19.6516 7.08387 19.6568 7.07878L19.376 6.79395L19.0951 6.50911C19.0864 6.5177 19.078 6.52621 19.0713 6.53295C19.0641 6.54019 19.0585 6.54578 19.0532 6.5511L19.334 6.83594ZM19.376 6.79395L19.6551 7.08041C19.7233 7.01401 19.9049 6.86378 19.94 6.57918L19.543 6.53027L19.146 6.48136C19.1461 6.4805 19.1472 6.47314 19.1515 6.46244C19.1558 6.45172 19.1606 6.44433 19.1626 6.44161C19.1637 6.44015 19.1613 6.44367 19.1497 6.45559C19.144 6.46142 19.1372 6.46821 19.1281 6.47709C19.1236 6.4815 19.1189 6.48605 19.1136 6.49119C19.1084 6.4962 19.1027 6.50175 19.0968 6.50748L19.376 6.79395ZM19.543 6.53027L19.8116 6.23386C19.7488 6.17703 19.6854 6.12004 19.621 6.06329L19.3564 6.36328L19.0919 6.66327C19.1527 6.71695 19.2134 6.77142 19.2744 6.82669L19.543 6.53027ZM19.3564 6.36328L19.6202 6.06258C19.6067 6.05072 19.5934 6.03903 19.5802 6.0275C19.567 6.01596 19.554 6.00458 19.5411 5.99324L19.2773 6.29395L19.0136 6.59465C19.0267 6.60616 19.0398 6.61768 19.053 6.6292C19.0662 6.64075 19.0793 6.6523 19.0927 6.66398L19.3564 6.36328ZM19.2773 6.29395L19.5438 5.9956C18.819 5.34828 17.9216 5.02679 16.9645 5.02773L16.9648 5.42773L16.9652 5.82773C17.7357 5.82698 18.4403 6.08272 19.0109 6.59229L19.2773 6.29395ZM16.9648 5.42773L16.9624 5.02774C16.8966 5.02815 16.8414 5.02902 16.7833 5.02872L16.7812 5.42871L16.7792 5.82871C16.8432 5.82903 16.911 5.82808 16.9673 5.82773L16.9648 5.42773ZM11.8535 5.49512L11.8535 5.09512C11.8457 5.09512 11.8008 5.09425 11.7541 5.10135C11.6918 5.11081 11.6336 5.13172 11.5792 5.16393C11.5346 5.19028 11.4994 5.22047 11.4787 5.23879C11.4565 5.25837 11.4307 5.28271 11.4056 5.30631L11.6797 5.59766L11.9538 5.88901C11.9828 5.86166 11.9977 5.84771 12.0081 5.83851C12.0127 5.83452 12.0129 5.83449 12.0103 5.8365C12.0076 5.83857 11.9994 5.84485 11.9866 5.85242C11.973 5.86046 11.9551 5.8695 11.9334 5.87728C11.9114 5.88514 11.8912 5.88971 11.8743 5.89227C11.8587 5.89464 11.8476 5.89504 11.8453 5.89512C11.8438 5.89517 11.8441 5.89512 11.8535 5.89512L11.8535 5.49512ZM11.6797 5.59766L11.4035 5.30834C11.3008 5.40637 11.2019 5.49771 11.1003 5.58241L11.3564 5.88965L11.6126 6.19689C11.7344 6.09532 11.8482 5.98978 11.9559 5.88697L11.6797 5.59766ZM11.3564 5.88965L11.1062 5.57761C10.9558 5.6982 10.8088 5.82334 10.665 5.95718L10.9375 6.25L11.21 6.54282C11.3368 6.4248 11.4685 6.3125 11.6067 6.20169L11.3564 5.88965ZM10.9375 6.25L10.665 5.95718C10.5828 6.03368 10.5033 6.10532 10.422 6.17292L10.6777 6.48047L10.9335 6.78802C11.0307 6.70716 11.1223 6.62444 11.21 6.54282L10.9375 6.25ZM10.6777 6.48047L10.427 6.16882C10.2789 6.288 10.1299 6.41259 9.98434 6.548L10.2568 6.84082L10.5293 7.13364C10.6551 7.01657 10.7877 6.90536 10.9285 6.79212L10.6777 6.48047ZM10.2568 6.84082L9.98432 6.54801C9.90073 6.62581 9.82246 6.69725 9.74271 6.76339L9.99805 7.07129L10.2534 7.37919C10.3516 7.29771 10.4437 7.2133 10.5293 7.13363L10.2568 6.84082ZM9.99805 7.07129L9.74766 6.75935C9.59163 6.88459 9.43814 7.01479 9.2881 7.15531L9.56152 7.44727L9.83495 7.73922C9.96635 7.61616 10.1036 7.49947 10.2484 7.38323L9.99805 7.07129ZM9.56152 7.44727L9.28811 7.1553C9.17656 7.25976 9.06754 7.35706 8.95438 7.44808L9.20508 7.75977L9.45578 8.07146C9.59002 7.96348 9.71493 7.85162 9.83494 7.73923L9.56152 7.44727ZM9.20508 7.75977L8.9547 7.44782C8.82849 7.54912 8.70955 7.65399 8.59468 7.7609L8.86719 8.05371L9.1397 8.34652C9.24407 8.24939 9.34802 8.15795 9.45546 8.07171L9.20508 7.75977ZM8.86719 8.05371L8.59467 7.7609C8.5128 7.83711 8.43363 7.90848 8.35303 7.97533L8.6084 8.2832L8.86377 8.59108C8.96096 8.51046 9.05256 8.42762 9.1397 8.34652L8.86719 8.05371ZM8.6084 8.2832L8.35802 7.97125C8.22205 8.08039 8.08309 8.19583 7.94811 8.32153L8.2207 8.61426L8.4933 8.90699C8.6075 8.80064 8.72918 8.69917 8.85877 8.59515L8.6084 8.2832ZM8.2207 8.61426L7.94729 8.32229C7.81565 8.44556 7.69189 8.55882 7.56241 8.66322L7.81348 8.97461L8.06454 9.286C8.21845 9.16191 8.36026 9.03158 8.49412 8.90622L8.2207 8.61426ZM7.81348 8.97461L7.56304 8.66271C7.44617 8.75655 7.33226 8.85361 7.22028 8.9567L7.49121 9.25098L7.76214 9.54525C7.8592 9.45589 7.95923 9.37056 8.06391 9.28651L7.81348 8.97461ZM7.49121 9.25098L7.22567 8.95183C6.99122 9.15995 6.99594 9.15649 6.75195 9.35437L7.00391 9.66504L7.25586 9.97571C7.51015 9.76948 7.51451 9.76515 7.75675 9.55012L7.49121 9.25098ZM7.00391 9.66504H7.40391V5.52539H7.00391H6.60391V9.66504H7.00391ZM7.00391 5.52539V5.12539H5.49512V5.52539V5.92539H7.00391V5.52539ZM5.49512 5.52539H5.09512V12.5635H5.49512H5.89512V5.52539H5.49512ZM5.49512 12.5635V12.9635C5.51199 12.9635 5.58891 12.9661 5.67422 12.9409C5.76117 12.9152 5.82843 12.8711 5.87819 12.8337C5.96617 12.7678 6.09464 12.6475 6.29755 12.4591L6.02539 12.166L5.75323 11.8729C5.64539 11.973 5.56743 12.0454 5.50804 12.0991C5.44675 12.1546 5.4153 12.1809 5.3982 12.1937C5.3817 12.2061 5.40303 12.1868 5.44782 12.1736C5.49096 12.1609 5.52947 12.1635 5.49512 12.1635V12.5635ZM6.02539 12.166L6.2979 12.4588C6.40411 12.36 6.51134 12.2662 6.62255 12.1763L6.37109 11.8652L6.11964 11.5542C5.99231 11.6571 5.87103 11.7632 5.75288 11.8732L6.02539 12.166ZM6.37109 11.8652L6.62195 12.1768C6.70274 12.1117 6.78767 12.0421 6.87116 11.968L6.60547 11.6689L6.33978 11.3699C6.27101 11.431 6.19809 11.491 6.12024 11.5537L6.37109 11.8652ZM6.60547 11.6689L6.87496 11.9645C6.97521 11.8731 7.06673 11.7897 7.16132 11.7114L6.90625 11.4033L6.65118 11.0952C6.53936 11.1878 6.4337 11.2843 6.33598 11.3734L6.60547 11.6689ZM6.90625 11.4033L7.15783 11.7143C7.29221 11.6056 7.43273 11.4904 7.56925 11.3659L7.2998 11.0703L7.03036 10.7747C6.91254 10.8821 6.78776 10.9847 6.65467 11.0923L6.90625 11.4033ZM7.2998 11.0703L7.56926 11.3659C7.64161 11.3 7.71072 11.2386 7.78102 11.1805L7.52637 10.8721L7.27172 10.5636C7.18681 10.6337 7.10673 10.7051 7.03035 10.7747L7.2998 11.0703ZM7.52637 10.8721L7.77759 11.1833C7.91996 11.0684 8.0649 10.948 8.20642 10.8178L7.93555 10.5234L7.66467 10.2291C7.54182 10.3422 7.41229 10.4501 7.27515 10.5608L7.52637 10.8721ZM7.93555 10.5234L8.20642 10.8178C8.30754 10.7247 8.40929 10.6361 8.51422 10.5513L8.2627 10.2402L8.01117 9.92921C7.89114 10.0263 7.77645 10.1262 7.66467 10.2291L7.93555 10.5234ZM8.2627 10.2402L8.51393 10.5515C8.62571 10.4613 8.73432 10.3682 8.84075 10.2712L8.57129 9.97559L8.30183 9.67997C8.20749 9.76595 8.11107 9.84858 8.01146 9.92897L8.2627 10.2402ZM8.57129 9.97559L8.84074 10.2712C8.91171 10.2065 8.98202 10.1448 9.05344 10.0858L8.79883 9.77734L8.54421 9.46884C8.46021 9.53817 8.37978 9.60891 8.30183 9.67996L8.57129 9.97559ZM8.79883 9.77734L9.05006 10.0886C9.19324 9.97304 9.33698 9.85273 9.47791 9.72303L9.20703 9.42871L8.93615 9.13439C8.81286 9.24786 8.68376 9.35618 8.5476 9.46608L8.79883 9.77734ZM9.20703 9.42871L9.47792 9.72302C9.55506 9.65202 9.63006 9.58519 9.70657 9.52172L9.45117 9.21387L9.19578 8.90601C9.10494 8.98137 9.01897 9.05816 8.93614 9.1344L9.20703 9.42871ZM9.45117 9.21387L9.70234 9.52518C9.84463 9.41038 9.98788 9.29074 10.1283 9.16151L9.85742 8.86719L9.58655 8.57286C9.46408 8.68557 9.33569 8.79308 9.2 8.90256L9.45117 9.21387ZM9.85742 8.86719L10.123 9.16633C10.3567 8.95881 10.3526 8.96253 10.5977 8.7638L10.3457 8.45312L10.0937 8.14245C9.84002 8.34822 9.83505 8.35219 9.59188 8.56804L9.85742 8.86719ZM10.3457 8.45312L9.94571 8.45604C9.95074 9.14477 9.95563 9.82344 9.96047 10.4971C9.96532 11.1707 9.97013 11.8393 9.97501 12.5078L10.375 12.5049L10.775 12.502C10.7701 11.8335 10.7653 11.1649 10.7605 10.4913C10.7556 9.81769 10.7507 9.13898 10.7457 8.45021L10.3457 8.45312ZM10.375 12.5049V12.9049H11.9131V12.5049V12.1049H10.375V12.5049ZM11.9131 12.5049H12.3131V5.43652H11.9131H11.5131V12.5049H11.9131ZM11.9131 5.43652V5.03652H11.8535V5.43652V5.83652H11.9131V5.43652ZM11.8535 5.43652H11.4535V5.49512H11.8535H12.2535V5.43652H11.8535ZM20.8154 12.5049V12.9049H22.3535V12.5049V12.1049H20.8154V12.5049ZM22.3535 12.5049H22.7535V6.91504H22.3535H21.9535V12.5049H22.3535ZM22.3535 6.91504V7.31504H25.4883V6.91504V6.51504H22.3535V6.91504ZM25.4883 6.91504H25.0883V12.5049H25.4883H25.8883V6.91504H25.4883ZM25.4883 12.5049V12.9049H27.0254V12.5049V12.1049H25.4883V12.5049ZM27.0254 12.5049H27.4254V5.52539H27.0254H26.6254V12.5049H27.0254ZM27.0254 5.52539V5.12539H20.8154V5.52539V5.92539H27.0254V5.52539ZM20.8154 5.52539H20.4154V12.5049H20.8154H21.2154V5.52539H20.8154Z" fill="white" mask="url(#path-1-outside-1_86_622)"/>
<path d="M51.1812 5.32476V8.10503H54.0943V5.32476H56.0318V12.7046H54.0943V9.86578H51.1812V12.7046H49.273V5.32476H51.1812Z" fill="#1F2328" stroke="white" stroke-width="0.4"/>
<mask id="path-4-outside-2_86_622" maskUnits="userSpaceOnUse" x="35.7266" y="4.52539" width="7" height="9" fill="black">
<rect fill="white" x="35.7266" y="4.52539" width="7" height="9"/>
<path d="M36.7266 5.52539C39.9748 5.52539 39.975 5.5248 40.4141 5.7207C40.4493 5.73606 40.4494 5.73628 40.4854 5.75195C41.1772 6.06447 41.6279 6.61268 41.9111 7.30664C42.1063 7.89895 42.0521 8.67398 41.7822 9.23633C41.6622 9.46725 41.5143 9.67884 41.3398 9.87207C41.3211 9.8929 41.3025 9.91409 41.2832 9.93555C41.14 10.0863 40.9822 10.2043 40.8076 10.3164C40.7667 10.3433 40.7665 10.3435 40.7246 10.3711C40.2958 10.639 39.8048 10.7107 39.3066 10.7061C39.2762 10.706 39.2452 10.7061 39.2139 10.7061C39.1019 10.7057 38.9899 10.7049 38.8779 10.7041C38.6266 10.7029 38.3751 10.7015 38.1162 10.7002V12.5049H36.7266V5.52539ZM38.8301 6.90527C38.4698 6.90994 38.4694 6.91046 38.1162 6.91504V9.31055C38.377 9.31243 38.6306 9.31458 38.8838 9.31641C38.9967 9.31755 39.1098 9.31888 39.2227 9.31934C39.2541 9.31943 39.2849 9.31925 39.3154 9.31934C39.6987 9.32465 39.9607 9.26426 40.2461 8.99609C40.4835 8.75136 40.6083 8.48219 40.6074 8.14062C40.6071 8.11872 40.6068 8.09744 40.6064 8.07617C40.6064 8.05373 40.6065 8.03155 40.6064 8.00977C40.604 7.70929 40.4876 7.47982 40.2754 7.26953C39.9188 6.92776 39.5231 6.89634 39.0527 6.90137C38.9771 6.90275 38.9035 6.90393 38.8301 6.90527Z"/>
</mask>
<path d="M36.7266 5.52539C39.9748 5.52539 39.975 5.5248 40.4141 5.7207C40.4493 5.73606 40.4494 5.73628 40.4854 5.75195C41.1772 6.06447 41.6279 6.61268 41.9111 7.30664C42.1063 7.89895 42.0521 8.67398 41.7822 9.23633C41.6622 9.46725 41.5143 9.67884 41.3398 9.87207C41.3211 9.8929 41.3025 9.91409 41.2832 9.93555C41.14 10.0863 40.9822 10.2043 40.8076 10.3164C40.7667 10.3433 40.7665 10.3435 40.7246 10.3711C40.2958 10.639 39.8048 10.7107 39.3066 10.7061C39.2762 10.706 39.2452 10.7061 39.2139 10.7061C39.1019 10.7057 38.9899 10.7049 38.8779 10.7041C38.6266 10.7029 38.3751 10.7015 38.1162 10.7002V12.5049H36.7266V5.52539ZM38.8301 6.90527C38.4698 6.90994 38.4694 6.91046 38.1162 6.91504V9.31055C38.377 9.31243 38.6306 9.31458 38.8838 9.31641C38.9967 9.31755 39.1098 9.31888 39.2227 9.31934C39.2541 9.31943 39.2849 9.31925 39.3154 9.31934C39.6987 9.32465 39.9607 9.26426 40.2461 8.99609C40.4835 8.75136 40.6083 8.48219 40.6074 8.14062C40.6071 8.11872 40.6068 8.09744 40.6064 8.07617C40.6064 8.05373 40.6065 8.03155 40.6064 8.00977C40.604 7.70929 40.4876 7.47982 40.2754 7.26953C39.9188 6.92776 39.5231 6.89634 39.0527 6.90137C38.9771 6.90275 38.9035 6.90393 38.8301 6.90527Z" fill="#1F2328"/>
<path d="M36.7266 5.52539L36.7266 5.12539L36.3266 5.12539V5.52539H36.7266ZM40.4141 5.7207L40.2511 6.08601L40.2543 6.0874L40.4141 5.7207ZM40.4854 5.75195L40.65 5.38739L40.6451 5.38525L40.4854 5.75195ZM41.9111 7.30664L42.291 7.18149L42.2867 7.16831L42.2815 7.15547L41.9111 7.30664ZM41.7822 9.23633L42.1373 9.42087L42.1428 9.4094L41.7822 9.23633ZM41.3398 9.87207L41.0429 9.60405L41.0427 9.60427L41.3398 9.87207ZM41.2832 9.93555L41.5732 10.2112L41.5803 10.2033L41.2832 9.93555ZM40.8076 10.3164L40.5914 9.97985L40.5877 9.98231L40.8076 10.3164ZM40.7246 10.3711L40.9366 10.7104L40.9446 10.7052L40.7246 10.3711ZM39.3066 10.7061L39.3104 10.3061L39.3074 10.3061L39.3066 10.7061ZM39.2139 10.7061L39.2128 11.1061L39.2131 11.1061L39.2139 10.7061ZM38.8779 10.7041L38.8807 10.3041L38.8799 10.3041L38.8779 10.7041ZM38.1162 10.7002L38.1182 10.3002L37.7162 10.2982V10.7002H38.1162ZM38.1162 12.5049V12.9049H38.5162V12.5049H38.1162ZM36.7266 12.5049H36.3266V12.9049H36.7266V12.5049ZM38.8301 6.90527L38.8353 7.30525L38.8374 7.30521L38.8301 6.90527ZM38.1162 6.91504L38.111 6.51507L37.7162 6.52019V6.91504H38.1162ZM38.1162 9.31055H37.7162V9.70767L38.1133 9.71054L38.1162 9.31055ZM38.8838 9.31641L38.8879 8.91643L38.8867 8.91642L38.8838 9.31641ZM39.2227 9.31934L39.221 9.71933L39.2215 9.71933L39.2227 9.31934ZM39.3154 9.31934L39.321 8.91935L39.3166 8.91934L39.3154 9.31934ZM40.2461 8.99609L40.52 9.28762L40.5268 9.28125L40.5332 9.27458L40.2461 8.99609ZM40.6074 8.14062L41.0075 8.13956L41.0074 8.13388L40.6074 8.14062ZM40.6064 8.07617L40.2064 8.07652L40.2065 8.08292L40.6064 8.07617ZM40.6064 8.00977L41.0065 8.00942L41.0064 8.00653L40.6064 8.00977ZM40.2754 7.26953L40.557 6.98537L40.5522 6.98075L40.2754 7.26953ZM39.0527 6.90137L39.0485 6.50138L39.0454 6.50143L39.0527 6.90137ZM36.7266 5.52539L36.7266 5.92539C38.3582 5.92539 39.1553 5.92541 39.6026 5.94903C39.8237 5.9607 39.9376 5.97733 40.0145 5.99611C40.0875 6.01396 40.1395 6.0362 40.2511 6.086L40.4141 5.7207L40.577 5.35541C40.4691 5.30725 40.3564 5.25611 40.2044 5.21897C40.0562 5.18276 39.8847 5.16281 39.6448 5.15014C39.1702 5.12508 38.3431 5.12539 36.7266 5.12539L36.7266 5.52539ZM40.4141 5.7207L40.2543 6.0874C40.2712 6.09476 40.2794 6.0984 40.288 6.10221C40.2973 6.10628 40.3069 6.1105 40.3256 6.11865L40.4854 5.75195L40.6451 5.38525C40.6279 5.37773 40.6194 5.37401 40.6108 5.37022C40.6016 5.36616 40.5922 5.36201 40.5738 5.354L40.4141 5.7207ZM40.4854 5.75195L40.3207 6.11648C40.9 6.37818 41.2875 6.83725 41.5408 7.45782L41.9111 7.30664L42.2815 7.15547C41.9682 6.38812 41.4543 5.75075 40.65 5.38742L40.4854 5.75195ZM41.9111 7.30664L41.5312 7.43179C41.6935 7.92433 41.6475 8.59255 41.4216 9.06325L41.7822 9.23633L42.1428 9.4094C42.4567 8.7554 42.519 7.87357 42.291 7.18149L41.9111 7.30664ZM41.7822 9.23633L41.4273 9.05188C41.3234 9.25176 41.1952 9.43539 41.0429 9.60405L41.3398 9.87207L41.6368 10.1401C41.8334 9.92229 42.001 9.68274 42.1372 9.42077L41.7822 9.23633ZM41.3398 9.87207L41.0427 9.60427C41.0322 9.61599 41.0218 9.62763 41.0126 9.638C41.0031 9.64875 40.9946 9.65831 40.9861 9.66775L41.2832 9.93555L41.5803 10.2033C41.5912 10.1913 41.6016 10.1796 41.6109 10.1691C41.6204 10.1583 41.6288 10.149 41.637 10.1399L41.3398 9.87207ZM41.2832 9.93555L40.9933 9.65997C40.88 9.77915 40.7509 9.87744 40.5914 9.97987L40.8076 10.3164L41.0238 10.6529C41.2135 10.5311 41.3999 10.3934 41.5731 10.2111L41.2832 9.93555ZM40.8076 10.3164L40.5877 9.98231C40.5671 9.99585 40.5567 10.0027 40.5463 10.0096C40.536 10.0164 40.5255 10.0233 40.5047 10.037L40.7246 10.3711L40.9446 10.7052C40.9656 10.6913 40.9762 10.6843 40.9867 10.6775C40.997 10.6706 41.0072 10.6639 41.0276 10.6505L40.8076 10.3164ZM40.7246 10.3711L40.5126 10.0319C40.1756 10.2425 39.7722 10.3104 39.3104 10.3061L39.3066 10.7061L39.3029 11.106C39.8373 11.1111 40.4161 11.0356 40.9366 10.7103L40.7246 10.3711ZM39.3066 10.7061L39.3074 10.3061C39.2915 10.306 39.2756 10.306 39.2602 10.3061C39.2447 10.3061 39.2297 10.3061 39.2146 10.3061L39.2139 10.7061L39.2131 11.1061C39.2295 11.1061 39.2456 11.1061 39.261 11.1061C39.2766 11.106 39.2913 11.106 39.3059 11.1061L39.3066 10.7061ZM39.2139 10.7061L39.215 10.3061C39.1041 10.3058 38.9932 10.3049 38.8807 10.3041L38.8779 10.7041L38.8752 11.1041C38.9866 11.1049 39.0998 11.1057 39.2128 11.1061L39.2139 10.7061ZM38.8779 10.7041L38.8799 10.3041C38.7543 10.3035 38.6287 10.3028 38.502 10.3022C38.3754 10.3015 38.2477 10.3008 38.1182 10.3002L38.1162 10.7002L38.1143 11.1002C38.2436 11.1008 38.3712 11.1015 38.4978 11.1022C38.6245 11.1028 38.7502 11.1035 38.876 11.1041L38.8779 10.7041ZM38.1162 10.7002H37.7162V12.5049H38.1162H38.5162V10.7002H38.1162ZM38.1162 12.5049V12.1049H36.7266V12.5049V12.9049H38.1162V12.5049ZM36.7266 12.5049H37.1266V5.52539H36.7266H36.3266V12.5049H36.7266ZM38.8301 6.90527L38.8249 6.50531C38.6445 6.50764 38.5541 6.50894 38.4647 6.51023C38.3755 6.51152 38.2874 6.51279 38.111 6.51507L38.1162 6.91504L38.1214 7.31501C38.2982 7.31271 38.3868 7.31144 38.4762 7.31015C38.5654 7.30886 38.6554 7.30757 38.8353 7.30524L38.8301 6.90527ZM38.1162 6.91504H37.7162V9.31055H38.1162H38.5162V6.91504H38.1162ZM38.1162 9.31055L38.1133 9.71054C38.2436 9.71148 38.3721 9.71248 38.4997 9.71349C38.6274 9.71449 38.7542 9.71548 38.8809 9.7164L38.8838 9.31641L38.8867 8.91642C38.7603 8.9155 38.6337 8.91451 38.506 8.91351C38.3784 8.91251 38.2496 8.9115 38.1191 8.91056L38.1162 9.31055ZM38.8838 9.31641L38.8797 9.71639C38.9918 9.71753 39.1066 9.71887 39.221 9.71933L39.2227 9.31934L39.2243 8.91934C39.113 8.91889 39.0016 8.91758 38.8879 8.91643L38.8838 9.31641ZM39.2227 9.31934L39.2215 9.71933C39.2382 9.71938 39.2546 9.71936 39.27 9.71934C39.2856 9.71931 39.3 9.71929 39.3143 9.71933L39.3154 9.31934L39.3166 8.91934C39.3003 8.91929 39.2841 8.91931 39.2688 8.91934C39.2532 8.91936 39.2385 8.91938 39.2238 8.91934L39.2227 9.31934ZM39.3154 9.31934L39.3099 9.7193C39.5212 9.72223 39.7317 9.70803 39.9399 9.64105C40.1539 9.57223 40.341 9.45579 40.52 9.28762L40.2461 8.99609L39.9722 8.70457C39.8658 8.80456 39.7792 8.8524 39.695 8.87949C39.605 8.90841 39.493 8.92176 39.321 8.91937L39.3154 9.31934ZM40.2461 8.99609L40.5332 9.27458C40.8332 8.96531 41.0086 8.59904 41.0074 8.13956L40.6074 8.14062L40.2074 8.14169C40.208 8.36533 40.1337 8.53742 39.959 8.7176L40.2461 8.99609ZM40.6074 8.14062L41.0074 8.13388C41.0072 8.12352 41.007 8.11323 41.0069 8.10245C41.0067 8.09182 41.0066 8.08066 41.0064 8.06942L40.6064 8.07617L40.2065 8.08292C40.2067 8.09295 40.2068 8.10306 40.207 8.11387C40.2071 8.12452 40.2073 8.13582 40.2075 8.14737L40.6074 8.14062ZM40.6064 8.07617L41.0064 8.07582C41.0064 8.0649 41.0064 8.05401 41.0064 8.04289C41.0064 8.03187 41.0065 8.02062 41.0064 8.00942L40.6064 8.00977L40.2064 8.01011C40.2065 8.0207 40.2064 8.03143 40.2064 8.04255C40.2064 8.05358 40.2064 8.06499 40.2064 8.07652L40.6064 8.07617ZM40.6064 8.00977L41.0064 8.00653C41.003 7.58201 40.8299 7.25594 40.557 6.98541L40.2754 7.26953L39.9938 7.55365C40.1452 7.7037 40.205 7.83657 40.2065 8.013L40.6064 8.00977ZM40.2754 7.26953L40.5522 6.98075C40.0734 6.52191 39.5333 6.49621 39.0485 6.50139L39.0527 6.90137L39.057 7.30134C39.5128 7.29647 39.7642 7.33361 39.9986 7.55831L40.2754 7.26953ZM39.0527 6.90137L39.0454 6.50143C39.0079 6.50212 38.9708 6.50276 38.9337 6.50339C38.8967 6.50403 38.8597 6.50466 38.8227 6.50534L38.8301 6.90527L38.8374 7.30521C38.8738 7.30454 38.9103 7.30391 38.9474 7.30328C38.9844 7.30264 39.022 7.302 39.0601 7.3013L39.0527 6.90137Z" fill="white" mask="url(#path-4-outside-2_86_622)"/>
<mask id="path-6-outside-3_86_622" maskUnits="userSpaceOnUse" x="40.7842" y="4.37695" width="9" height="9" fill="black">
<rect fill="white" x="40.7842" y="4.37695" width="9" height="9"/>
<path d="M45.2725 5.4375C45.494 5.90251 45.4943 5.90257 45.7227 6.36426C45.8193 6.55564 45.9117 6.74935 46.0029 6.94336C46.0716 7.08891 46.1423 7.23331 46.2148 7.37695C46.3262 7.59763 46.4325 7.82095 46.5391 8.04395C46.6364 8.24723 46.7352 8.44979 46.834 8.65234C46.8463 8.67757 46.8584 8.7035 46.8711 8.72949C46.9323 8.85483 46.9934 8.98019 47.0547 9.10547C47.1933 9.38912 47.3293 9.67443 47.4619 9.96094C47.5031 10.0491 47.5446 10.1375 47.5859 10.2256C47.5999 10.2555 47.5999 10.2556 47.6143 10.2861C47.6956 10.4594 47.7819 10.63 47.8682 10.8008C48.039 11.1397 48.2028 11.4826 48.3662 11.8252C48.4051 11.9066 48.4441 11.9881 48.4834 12.0693C48.5051 12.1146 48.5271 12.1598 48.5488 12.2051C48.5587 12.2254 48.5689 12.2457 48.5791 12.2666C48.6196 12.3517 48.6455 12.4093 48.6455 12.5049H47.1963C47.0151 12.113 47.0149 12.1124 46.959 11.9912C46.8651 11.7886 46.7685 11.588 46.666 11.3896C46.6344 11.3217 46.6338 11.3216 46.6338 11.2627H43.7949C43.7657 11.3503 43.7651 11.3502 43.7354 11.4395C43.7197 11.4759 43.703 11.5122 43.6855 11.5479C43.6762 11.5671 43.6669 11.5866 43.6572 11.6064C43.6473 11.6266 43.6372 11.6472 43.627 11.668C43.6167 11.689 43.6063 11.7098 43.5957 11.7314L43.3984 12.1357C43.378 12.1776 43.3575 12.2199 43.3369 12.2617C43.2976 12.3421 43.2607 12.4199 43.2324 12.5049H41.7842C41.8099 12.3762 41.8402 12.2909 41.8965 12.1748C41.9132 12.1403 41.9301 12.1059 41.9473 12.0703C41.956 12.0524 41.9646 12.0341 41.9736 12.0156C42 11.9617 42.0257 11.9076 42.0518 11.8535C42.1918 11.5649 42.1923 11.5642 42.2617 11.4482C42.3192 11.3456 42.3609 11.2422 42.4033 11.1328C42.4547 11.0045 42.5152 10.8803 42.5752 10.7559C42.5881 10.729 42.601 10.7015 42.6143 10.6738C42.738 10.4165 42.8653 10.1611 42.9941 9.90625C43.1299 9.63741 43.2621 9.36664 43.3916 9.09473C43.5161 8.83351 43.6421 8.57277 43.7686 8.3125C43.908 8.02549 44.0467 7.73794 44.1826 7.44922C44.2426 7.32213 44.3049 7.1958 44.3682 7.07031C44.4709 6.86641 44.5687 6.66021 44.667 6.4541C44.7816 6.21376 44.8971 5.97327 45.0127 5.7334C45.0213 5.71561 45.0302 5.69801 45.0391 5.67969C45.0876 5.57888 45.136 5.47775 45.1846 5.37695H45.2441C45.2584 5.4068 45.2579 5.40711 45.2725 5.4375ZM45.1846 8.39355C45.155 8.45272 45.1253 8.51215 45.0957 8.57129C45.0292 8.70277 44.9639 8.83479 44.8984 8.9668C44.8854 8.99315 44.872 9.01837 44.8594 9.04395C44.8119 9.14003 44.7648 9.23668 44.7178 9.33301C44.7013 9.36684 44.6849 9.39978 44.6689 9.43262C44.6528 9.46544 44.6368 9.49744 44.6211 9.5293C44.606 9.56044 44.5918 9.59087 44.5771 9.62109C44.5174 9.74341 44.4981 9.82012 44.4746 9.96094H45.9834C45.9834 9.90203 45.9833 9.90193 45.9453 9.82129C45.871 9.67666 45.7966 9.532 45.7275 9.38477C45.574 9.05056 45.4098 8.72191 45.2441 8.39355H45.1846Z"/>
</mask>
<path d="M45.2725 5.4375C45.494 5.90251 45.4943 5.90257 45.7227 6.36426C45.8193 6.55564 45.9117 6.74935 46.0029 6.94336C46.0716 7.08891 46.1423 7.23331 46.2148 7.37695C46.3262 7.59763 46.4325 7.82095 46.5391 8.04395C46.6364 8.24723 46.7352 8.44979 46.834 8.65234C46.8463 8.67757 46.8584 8.7035 46.8711 8.72949C46.9323 8.85483 46.9934 8.98019 47.0547 9.10547C47.1933 9.38912 47.3293 9.67443 47.4619 9.96094C47.5031 10.0491 47.5446 10.1375 47.5859 10.2256C47.5999 10.2555 47.5999 10.2556 47.6143 10.2861C47.6956 10.4594 47.7819 10.63 47.8682 10.8008C48.039 11.1397 48.2028 11.4826 48.3662 11.8252C48.4051 11.9066 48.4441 11.9881 48.4834 12.0693C48.5051 12.1146 48.5271 12.1598 48.5488 12.2051C48.5587 12.2254 48.5689 12.2457 48.5791 12.2666C48.6196 12.3517 48.6455 12.4093 48.6455 12.5049H47.1963C47.0151 12.113 47.0149 12.1124 46.959 11.9912C46.8651 11.7886 46.7685 11.588 46.666 11.3896C46.6344 11.3217 46.6338 11.3216 46.6338 11.2627H43.7949C43.7657 11.3503 43.7651 11.3502 43.7354 11.4395C43.7197 11.4759 43.703 11.5122 43.6855 11.5479C43.6762 11.5671 43.6669 11.5866 43.6572 11.6064C43.6473 11.6266 43.6372 11.6472 43.627 11.668C43.6167 11.689 43.6063 11.7098 43.5957 11.7314L43.3984 12.1357C43.378 12.1776 43.3575 12.2199 43.3369 12.2617C43.2976 12.3421 43.2607 12.4199 43.2324 12.5049H41.7842C41.8099 12.3762 41.8402 12.2909 41.8965 12.1748C41.9132 12.1403 41.9301 12.1059 41.9473 12.0703C41.956 12.0524 41.9646 12.0341 41.9736 12.0156C42 11.9617 42.0257 11.9076 42.0518 11.8535C42.1918 11.5649 42.1923 11.5642 42.2617 11.4482C42.3192 11.3456 42.3609 11.2422 42.4033 11.1328C42.4547 11.0045 42.5152 10.8803 42.5752 10.7559C42.5881 10.729 42.601 10.7015 42.6143 10.6738C42.738 10.4165 42.8653 10.1611 42.9941 9.90625C43.1299 9.63741 43.2621 9.36664 43.3916 9.09473C43.5161 8.83351 43.6421 8.57277 43.7686 8.3125C43.908 8.02549 44.0467 7.73794 44.1826 7.44922C44.2426 7.32213 44.3049 7.1958 44.3682 7.07031C44.4709 6.86641 44.5687 6.66021 44.667 6.4541C44.7816 6.21376 44.8971 5.97327 45.0127 5.7334C45.0213 5.71561 45.0302 5.69801 45.0391 5.67969C45.0876 5.57888 45.136 5.47775 45.1846 5.37695H45.2441C45.2584 5.4068 45.2579 5.40711 45.2725 5.4375ZM45.1846 8.39355C45.155 8.45272 45.1253 8.51215 45.0957 8.57129C45.0292 8.70277 44.9639 8.83479 44.8984 8.9668C44.8854 8.99315 44.872 9.01837 44.8594 9.04395C44.8119 9.14003 44.7648 9.23668 44.7178 9.33301C44.7013 9.36684 44.6849 9.39978 44.6689 9.43262C44.6528 9.46544 44.6368 9.49744 44.6211 9.5293C44.606 9.56044 44.5918 9.59087 44.5771 9.62109C44.5174 9.74341 44.4981 9.82012 44.4746 9.96094H45.9834C45.9834 9.90203 45.9833 9.90193 45.9453 9.82129C45.871 9.67666 45.7966 9.532 45.7275 9.38477C45.574 9.05056 45.4098 8.72191 45.2441 8.39355H45.1846Z" fill="#1F2328"/>
<path d="M45.2725 5.4375L45.6336 5.26545L45.6334 5.26514L45.2725 5.4375ZM45.7227 6.36426L45.3641 6.54161L45.3656 6.54463L45.7227 6.36426ZM46.0029 6.94336L45.641 7.11365L45.6412 7.11403L46.0029 6.94336ZM46.2148 7.37695L46.572 7.1968L46.5719 7.1966L46.2148 7.37695ZM46.5391 8.04395L46.1782 8.21643L46.1783 8.21666L46.5391 8.04395ZM46.834 8.65234L47.1935 8.47696L47.1935 8.47695L46.834 8.65234ZM46.8711 8.72949L46.5116 8.90487L46.5116 8.90492L46.8711 8.72949ZM47.0547 9.10547L47.4141 8.92985L47.414 8.92969L47.0547 9.10547ZM47.4619 9.96094L47.0989 10.129L47.0995 10.1301L47.4619 9.96094ZM47.5859 10.2256L47.9482 10.056L47.948 10.0555L47.5859 10.2256ZM47.6143 10.2861L47.252 10.4557L47.2522 10.4562L47.6143 10.2861ZM47.8682 10.8008L48.2254 10.6208L48.2252 10.6204L47.8682 10.8008ZM48.3662 11.8252L48.0052 11.9974L48.0053 11.9977L48.3662 11.8252ZM48.4834 12.0693L48.8441 11.8964L48.8436 11.8954L48.4834 12.0693ZM48.5488 12.2051L48.1881 12.3779L48.1891 12.3801L48.5488 12.2051ZM48.5791 12.2666L48.9403 12.0947L48.9388 12.0916L48.5791 12.2666ZM48.6455 12.5049V12.9049H49.0455V12.5049H48.6455ZM47.1963 12.5049L46.8332 12.6727L46.9405 12.9049H47.1963V12.5049ZM46.959 11.9912L47.3222 11.8236L47.3219 11.8231L46.959 11.9912ZM46.666 11.3896L46.3033 11.5584L46.3068 11.5659L46.3107 11.5733L46.666 11.3896ZM46.6338 11.2627L47.0338 11.2627L47.0338 10.8627H46.6338V11.2627ZM43.7949 11.2627V10.8627H43.5066L43.4154 11.1362L43.7949 11.2627ZM43.7354 11.4395L44.1028 11.5976L44.1095 11.582L44.1148 11.5659L43.7354 11.4395ZM43.6855 11.5479L43.3265 11.3716L43.326 11.3727L43.6855 11.5479ZM43.6572 11.6064L44.0159 11.7836L44.0168 11.7816L43.6572 11.6064ZM43.627 11.668L43.2683 11.4909L43.2675 11.4925L43.627 11.668ZM43.5957 11.7314L43.2362 11.556L43.2362 11.556L43.5957 11.7314ZM43.3984 12.1357L43.7578 12.3114L43.7579 12.3111L43.3984 12.1357ZM43.3369 12.2617L42.9781 12.085L42.9776 12.0859L43.3369 12.2617ZM43.2324 12.5049V12.9049H43.5207L43.6119 12.6314L43.2324 12.5049ZM41.7842 12.5049L41.3919 12.4264L41.2963 12.9049H41.7842V12.5049ZM41.8965 12.1748L42.2564 12.3493L42.2567 12.3488L41.8965 12.1748ZM41.9473 12.0703L41.5879 11.8946L41.5871 11.8964L41.9473 12.0703ZM41.9736 12.0156L42.333 12.1913L42.333 12.1913L41.9736 12.0156ZM42.0518 11.8535L41.6919 11.6789L41.6914 11.6799L42.0518 11.8535ZM42.2617 11.4482L42.605 11.6539L42.6108 11.6436L42.2617 11.4482ZM42.4033 11.1328L42.0319 10.9842L42.0304 10.9882L42.4033 11.1328ZM42.5752 10.7559L42.9355 10.9295L42.9359 10.9287L42.5752 10.7559ZM42.6143 10.6738L42.2537 10.5005L42.2535 10.501L42.6143 10.6738ZM42.9941 9.90625L43.3511 10.0867L43.3512 10.0866L42.9941 9.90625ZM43.3916 9.09473L43.0305 8.92261L43.0305 8.92275L43.3916 9.09473ZM43.7686 8.3125L44.1283 8.4873L44.1283 8.4873L43.7686 8.3125ZM44.1826 7.44922L43.8209 7.27856L43.8207 7.27889L44.1826 7.44922ZM44.3682 7.07031L44.7253 7.25038L44.7254 7.25035L44.3682 7.07031ZM44.667 6.4541L44.3059 6.28195L44.3059 6.28195L44.667 6.4541ZM45.0127 5.7334L45.373 5.90702L45.3731 5.907L45.0127 5.7334ZM45.0391 5.67969L44.6787 5.50609L44.6787 5.50609L45.0391 5.67969ZM45.1846 5.37695V4.97695H44.9333L44.8242 5.20326L45.1846 5.37695ZM45.2441 5.37695L45.6051 5.20459L45.4964 4.97695H45.2441V5.37695ZM45.1846 8.39355V7.99355H44.9372L44.8267 8.21489L45.1846 8.39355ZM45.0957 8.57129L45.4527 8.75174L45.4534 8.75034L45.0957 8.57129ZM44.8984 8.9668L44.54 8.78919L44.5399 8.78954L44.8984 8.9668ZM44.8594 9.04395L45.2179 9.22126L45.218 9.22121L44.8594 9.04395ZM44.7178 9.33301L44.3583 9.15756L44.3581 9.15788L44.7178 9.33301ZM44.6689 9.43262L45.0277 9.60963L45.0286 9.60775L44.6689 9.43262ZM44.6211 9.5293L44.2624 9.35228L44.2611 9.35495L44.6211 9.5293ZM44.5771 9.62109L44.9366 9.79668L44.9372 9.79544L44.5771 9.62109ZM44.4746 9.96094L44.0801 9.89517L44.0024 10.3609H44.4746V9.96094ZM45.9834 9.96094V10.3609H46.3834L46.3834 9.96094L45.9834 9.96094ZM45.9453 9.82129L46.3074 9.65084L46.3011 9.6384L45.9453 9.82129ZM45.7275 9.38477L45.3641 9.55176L45.3654 9.55467L45.7275 9.38477ZM45.2441 8.39355L45.6013 8.2134L45.4904 7.99355H45.2441V8.39355ZM45.2725 5.4375L44.9114 5.60955C45.1338 6.07654 45.135 6.07837 45.3641 6.5416L45.7227 6.36426L46.0812 6.18691C45.8536 5.72677 45.8542 5.72849 45.6336 5.26545L45.2725 5.4375ZM45.7227 6.36426L45.3656 6.54463C45.4597 6.73086 45.5501 6.92047 45.641 7.11365L46.0029 6.94336L46.3649 6.77307C46.2732 6.57823 46.179 6.38042 46.0797 6.18388L45.7227 6.36426ZM46.0029 6.94336L45.6412 7.11403C45.7115 7.26305 45.7837 7.41069 45.8578 7.5573L46.2148 7.37695L46.5719 7.1966C46.5008 7.05593 46.4317 6.91476 46.3647 6.77269L46.0029 6.94336ZM46.2148 7.37695L45.8577 7.55711C45.9667 7.77317 46.071 7.99223 46.1782 8.21643L46.5391 8.04395L46.9 7.87146C46.794 7.64966 46.6856 7.42209 46.572 7.1968L46.2148 7.37695ZM46.5391 8.04395L46.1783 8.21666C46.2763 8.42149 46.3757 8.62534 46.4745 8.82773L46.834 8.65234L47.1935 8.47695C47.0946 8.27423 46.9964 8.07297 46.8999 7.87123L46.5391 8.04395ZM46.834 8.65234L46.4745 8.82772C46.4798 8.83859 46.4852 8.84985 46.4915 8.86303C46.4975 8.87569 46.5044 8.89015 46.5116 8.90487L46.8711 8.72949L47.2306 8.55411C47.2251 8.54285 47.2196 8.53134 47.2133 8.51824C47.2073 8.50564 47.2005 8.49133 47.1935 8.47696L46.834 8.65234ZM46.8711 8.72949L46.5116 8.90492C46.5727 9.03015 46.634 9.15574 46.6954 9.28124L47.0547 9.10547L47.414 8.92969C47.3528 8.80464 47.2918 8.67952 47.2306 8.55406L46.8711 8.72949ZM47.0547 9.10547L46.6953 9.28109C46.8328 9.56242 46.9676 9.84518 47.0989 10.129L47.4619 9.96094L47.8249 9.79292C47.691 9.50367 47.5538 9.21583 47.4141 8.92985L47.0547 9.10547ZM47.4619 9.96094L47.0995 10.1301C47.1408 10.2188 47.1825 10.3075 47.2239 10.3956L47.5859 10.2256L47.948 10.0555C47.9066 9.96749 47.8653 9.87944 47.8244 9.79173L47.4619 9.96094ZM47.5859 10.2256L47.2237 10.3952C47.2306 10.41 47.2341 10.4175 47.2376 10.425C47.2412 10.4326 47.2448 10.4403 47.252 10.4557L47.6143 10.2861L47.9765 10.1166C47.9694 10.1014 47.9659 10.0938 47.9624 10.0862C47.9588 10.0786 47.9553 10.0711 47.9482 10.056L47.5859 10.2256ZM47.6143 10.2861L47.2522 10.4562C47.3365 10.6355 47.4253 10.8112 47.5111 10.9811L47.8682 10.8008L48.2252 10.6204C48.1384 10.4487 48.0548 10.2832 47.9763 10.116L47.6143 10.2861ZM47.8682 10.8008L47.5109 10.9808C47.6795 11.3153 47.8416 11.6544 48.0052 11.9974L48.3662 11.8252L48.7273 11.653C48.564 11.3108 48.3984 10.9642 48.2254 10.6208L47.8682 10.8008ZM48.3662 11.8252L48.0053 11.9977C48.0443 12.0793 48.0836 12.1613 48.1232 12.2433L48.4834 12.0693L48.8436 11.8954C48.8047 11.8148 48.7659 11.734 48.7271 11.6527L48.3662 11.8252ZM48.4834 12.0693L48.1227 12.2423C48.152 12.3033 48.1604 12.3201 48.1881 12.3779L48.5488 12.2051L48.9096 12.0323C48.8939 11.9995 48.8582 11.9259 48.8441 11.8964L48.4834 12.0693ZM48.5488 12.2051L48.1891 12.3801C48.1948 12.3916 48.2004 12.403 48.2053 12.413C48.2105 12.4234 48.215 12.4325 48.2194 12.4416L48.5791 12.2666L48.9388 12.0916C48.933 12.0798 48.9273 12.0683 48.9224 12.0582C48.9172 12.0477 48.9128 12.0388 48.9085 12.0301L48.5488 12.2051ZM48.5791 12.2666L48.2179 12.4385C48.2281 12.4599 48.2344 12.4733 48.2392 12.4845C48.2437 12.4949 48.2452 12.4996 48.2456 12.501C48.2459 12.5018 48.2456 12.5008 48.2454 12.4993C48.2452 12.498 48.2455 12.4994 48.2455 12.5049H48.6455H49.0455C49.0455 12.3138 48.9841 12.1869 48.9403 12.0947L48.5791 12.2666ZM48.6455 12.5049V12.1049H47.1963V12.5049V12.9049H48.6455V12.5049ZM47.1963 12.5049L47.5594 12.337C47.3783 11.9452 47.3781 11.9447 47.3222 11.8236L46.959 11.9912L46.5958 12.1588C46.6518 12.2801 46.652 12.2808 46.8332 12.6727L47.1963 12.5049ZM46.959 11.9912L47.3219 11.8231C47.2265 11.617 47.1273 11.4109 47.0214 11.206L46.666 11.3896L46.3107 11.5733C46.4098 11.7651 46.5038 11.9603 46.596 12.1594L46.959 11.9912ZM46.666 11.3896L47.0287 11.2209C47.0244 11.2118 47.0215 11.2056 47.019 11.2001C47.0165 11.1946 47.0155 11.1923 47.0152 11.1915C47.0144 11.1897 47.0201 11.2025 47.0253 11.2227C47.028 11.2331 47.0301 11.2435 47.0315 11.2534C47.0329 11.263 47.0335 11.2703 47.0337 11.2743C47.0339 11.278 47.0339 11.2795 47.0338 11.2769C47.0338 11.2742 47.0338 11.2702 47.0338 11.2627L46.6338 11.2627L46.2338 11.2627C46.2338 11.2799 46.2315 11.3485 46.2508 11.4229C46.2601 11.4589 46.2719 11.4882 46.2801 11.5073C46.2876 11.5247 46.2968 11.5444 46.3033 11.5584L46.666 11.3896ZM46.6338 11.2627V10.8627H43.7949V11.2627V11.6627H46.6338V11.2627ZM43.7949 11.2627L43.4154 11.1362C43.4012 11.1788 43.3941 11.1998 43.3867 11.2215C43.379 11.244 43.3711 11.2672 43.3559 11.313L43.7354 11.4395L44.1148 11.5659C44.1293 11.5225 44.1366 11.5011 44.144 11.4794C44.1517 11.4569 44.1594 11.4341 44.1744 11.3892L43.7949 11.2627ZM43.7354 11.4395L43.3679 11.2813C43.3547 11.3121 43.3408 11.3424 43.3265 11.3716L43.6855 11.5479L44.0446 11.7241C44.0653 11.682 44.0847 11.6396 44.1028 11.5976L43.7354 11.4395ZM43.6855 11.5479L43.326 11.3727C43.3208 11.3833 43.3157 11.3938 43.3111 11.4034C43.3063 11.4133 43.302 11.4223 43.2976 11.4312L43.6572 11.6064L44.0168 11.7816C44.0221 11.7707 44.0273 11.7601 44.0319 11.7504C44.0367 11.7405 44.0409 11.7317 44.0451 11.723L43.6855 11.5479ZM43.6572 11.6064L43.2986 11.4293C43.2934 11.4398 43.2882 11.4504 43.2832 11.4606C43.2781 11.471 43.2732 11.4809 43.2683 11.4909L43.627 11.668L43.9856 11.8451C43.9909 11.8343 43.9962 11.8235 44.0012 11.8133C44.0063 11.803 44.0111 11.7932 44.0159 11.7836L43.6572 11.6064ZM43.627 11.668L43.2675 11.4925C43.2629 11.5019 43.2582 11.5115 43.2529 11.5222C43.2477 11.5326 43.242 11.5441 43.2362 11.556L43.5957 11.7314L43.9552 11.9069C43.9599 11.8972 43.9647 11.8874 43.97 11.8767C43.9751 11.8664 43.9808 11.855 43.9864 11.8434L43.627 11.668ZM43.5957 11.7314L43.2362 11.556L43.0389 11.9603L43.3984 12.1357L43.7579 12.3111L43.9552 11.9068L43.5957 11.7314ZM43.3984 12.1357L43.0391 11.9601C43.0176 12.0041 42.9984 12.0437 42.9781 12.085L43.3369 12.2617L43.6958 12.4384C43.7166 12.3961 43.7384 12.3512 43.7578 12.3114L43.3984 12.1357ZM43.3369 12.2617L42.9776 12.0859C42.9379 12.1671 42.8905 12.2658 42.8529 12.3784L43.2324 12.5049L43.6119 12.6314C43.631 12.574 43.6573 12.517 43.6962 12.4376L43.3369 12.2617ZM43.2324 12.5049V12.1049H41.7842V12.5049V12.9049H43.2324V12.5049ZM41.7842 12.5049L42.1764 12.5833C42.1949 12.4911 42.2134 12.438 42.2564 12.3493L41.8965 12.1748L41.5365 12.0004C41.467 12.1438 41.425 12.2612 41.3919 12.4264L41.7842 12.5049ZM41.8965 12.1748L42.2567 12.3488C42.2646 12.3323 42.2727 12.3157 42.2812 12.2982C42.2897 12.281 42.2985 12.2628 42.3075 12.2443L41.9473 12.0703L41.5871 11.8964C41.5789 11.9134 41.5706 11.9302 41.5621 11.9477C41.5537 11.9649 41.545 11.9828 41.5363 12.0009L41.8965 12.1748ZM41.9473 12.0703L42.3066 12.246C42.3118 12.2353 42.3169 12.2247 42.3211 12.2159C42.3256 12.2066 42.3293 12.1988 42.333 12.1913L41.9736 12.0156L41.6143 11.8399C41.6089 11.8509 41.6038 11.8615 41.5996 11.8704C41.5951 11.8799 41.5914 11.8874 41.5879 11.8946L41.9473 12.0703ZM41.9736 12.0156L42.333 12.1913C42.3599 12.1362 42.3874 12.0784 42.4121 12.0272L42.0518 11.8535L41.6914 11.6799C41.664 11.7367 41.64 11.7873 41.6143 11.84L41.9736 12.0156ZM42.0518 11.8535L42.4116 12.0281C42.5514 11.74 42.5453 11.7533 42.6049 11.6538L42.2617 11.4482L41.9186 11.2427C41.8392 11.3751 41.8321 11.3898 41.6919 11.6789L42.0518 11.8535ZM42.2617 11.4482L42.6108 11.6436C42.6831 11.5144 42.7334 11.388 42.7763 11.2774L42.4033 11.1328L42.0304 10.9882C41.9884 11.0965 41.9552 11.1769 41.9127 11.2529L42.2617 11.4482ZM42.4033 11.1328L42.7747 11.2815C42.8199 11.1685 42.8738 11.0576 42.9355 10.9295L42.5752 10.7559L42.2149 10.5822C42.1567 10.7029 42.0895 10.8406 42.032 10.9842L42.4033 11.1328ZM42.5752 10.7559L42.9359 10.9287C42.9427 10.9145 42.9495 10.9002 42.9559 10.8867C42.9625 10.8729 42.9687 10.8598 42.975 10.8467L42.6143 10.6738L42.2535 10.501C42.2465 10.5156 42.2397 10.53 42.2332 10.5436C42.2267 10.5574 42.2205 10.5703 42.2145 10.583L42.5752 10.7559ZM42.6143 10.6738L42.9748 10.8471C43.0969 10.5931 43.2229 10.3403 43.3511 10.0867L42.9941 9.90625L42.6372 9.7258C42.5078 9.98179 42.3791 10.2398 42.2537 10.5005L42.6143 10.6738ZM42.9941 9.90625L43.3512 10.0866C43.4886 9.81455 43.6221 9.54097 43.7527 9.26671L43.3916 9.09473L43.0305 8.92275C42.9021 9.19232 42.7712 9.46027 42.6371 9.72595L42.9941 9.90625ZM43.3916 9.09473L43.7527 9.26684C43.8766 9.00686 44.0021 8.7471 44.1283 8.4873L43.7686 8.3125L43.4088 8.1377C43.2821 8.39845 43.1556 8.66016 43.0305 8.92261L43.3916 9.09473ZM43.7686 8.3125L44.1283 8.4873C44.268 8.19976 44.4076 7.91048 44.5445 7.61955L44.1826 7.44922L43.8207 7.27889C43.6859 7.56539 43.5479 7.85122 43.4088 8.1377L43.7686 8.3125ZM44.1826 7.44922L44.5444 7.61988C44.6024 7.49694 44.6631 7.37391 44.7253 7.25038L44.3682 7.07031L44.011 6.89025C43.9467 7.01769 43.8828 7.14733 43.8209 7.27856L44.1826 7.44922ZM44.3682 7.07031L44.7254 7.25035C44.8306 7.04164 44.9305 6.83092 45.0281 6.62625L44.667 6.4541L44.3059 6.28195C44.207 6.4895 44.1113 6.69117 44.011 6.89027L44.3682 7.07031ZM44.667 6.4541L45.0281 6.62625C45.1423 6.38659 45.2576 6.14665 45.373 5.90702L45.0127 5.7334L44.6523 5.55977C44.5366 5.7999 44.4209 6.04092 44.3059 6.28195L44.667 6.4541ZM45.0127 5.7334L45.3731 5.907C45.3762 5.90046 45.3796 5.89363 45.3842 5.88435C45.3885 5.87572 45.3939 5.86478 45.3994 5.85329L45.0391 5.67969L44.6787 5.50609C44.6754 5.51292 44.6719 5.51994 44.6674 5.52913C44.6631 5.53768 44.6578 5.54855 44.6523 5.5598L45.0127 5.7334ZM45.0391 5.67969L45.3994 5.85329C45.4505 5.74723 45.4945 5.65523 45.5449 5.55064L45.1846 5.37695L44.8242 5.20326C44.7775 5.30027 44.7247 5.41053 44.6787 5.50609L45.0391 5.67969ZM45.1846 5.37695V5.77695H45.2441V5.37695V4.97695H45.1846V5.37695ZM45.2441 5.37695L44.8832 5.54932C44.889 5.5616 44.8915 5.56704 44.8945 5.57361C44.8985 5.58233 44.903 5.59208 44.9115 5.60986L45.2725 5.4375L45.6334 5.26514C45.6274 5.25253 45.6248 5.24693 45.6219 5.24044C45.6179 5.2318 45.6135 5.22216 45.6051 5.20459L45.2441 5.37695ZM45.1846 8.39355L44.8267 8.21489C44.7972 8.27388 44.7676 8.33317 44.738 8.39224L45.0957 8.57129L45.4534 8.75034C45.483 8.69113 45.5128 8.63157 45.5424 8.57222L45.1846 8.39355ZM45.0957 8.57129L44.7387 8.39084C44.6714 8.524 44.6053 8.6575 44.54 8.78919L44.8984 8.9668L45.2568 9.1444C45.3224 9.01209 45.3871 8.88154 45.4527 8.75174L45.0957 8.57129ZM44.8984 8.9668L44.5399 8.78954C44.5348 8.79972 44.5295 8.8101 44.5228 8.82325C44.5165 8.83557 44.5086 8.85087 44.5008 8.86669L44.8594 9.04395L45.218 9.22121C45.2228 9.21145 45.228 9.20134 45.2347 9.18807C45.2411 9.17563 45.249 9.16023 45.257 9.14406L44.8984 8.9668ZM44.8594 9.04395L44.5008 8.86663C44.4527 8.96389 44.4051 9.06172 44.3583 9.15756L44.7178 9.33301L45.0772 9.50845C45.1245 9.41164 45.171 9.31617 45.2179 9.22126L44.8594 9.04395ZM44.7178 9.33301L44.3581 9.15788C44.3503 9.17398 44.3424 9.18999 44.3342 9.20665C44.3262 9.22309 44.3177 9.24025 44.3093 9.25749L44.6689 9.43262L45.0286 9.60775C45.0362 9.59215 45.0439 9.57642 45.0521 9.55972C45.0602 9.54325 45.0688 9.52587 45.0774 9.50814L44.7178 9.33301ZM44.6689 9.43262L44.3102 9.25561C44.3023 9.27165 44.2945 9.28754 44.2865 9.30367C44.2785 9.31969 44.2704 9.33598 44.2624 9.35229L44.6211 9.5293L44.9798 9.7063C44.9875 9.69075 44.9952 9.67511 45.0032 9.65897C45.0112 9.64293 45.0194 9.62641 45.0276 9.60962L44.6689 9.43262ZM44.6211 9.5293L44.2611 9.35495C44.2529 9.37194 44.245 9.38853 44.2378 9.40364C44.2304 9.41914 44.2238 9.43307 44.2171 9.44675L44.5771 9.62109L44.9372 9.79544C44.9452 9.77889 44.953 9.76249 44.9601 9.74744C44.9675 9.73199 44.9742 9.7178 44.9811 9.70364L44.6211 9.5293ZM44.5771 9.62109L44.2177 9.44551C44.1356 9.6137 44.1075 9.73081 44.0801 9.89517L44.4746 9.96094L44.8692 10.0267C44.8887 9.90942 44.8992 9.87311 44.9366 9.79668L44.5771 9.62109ZM44.4746 9.96094V10.3609H45.9834V9.96094V9.56094H44.4746V9.96094ZM45.9834 9.96094L46.3834 9.96094C46.3834 9.94345 46.386 9.87249 46.3644 9.79375C46.3547 9.75809 46.3425 9.72857 46.3339 9.70898C46.3257 9.69018 46.3157 9.66892 46.3072 9.65095L45.9453 9.82129L45.5834 9.99163C45.5883 10.002 45.5919 10.0098 45.595 10.0164C45.5981 10.023 45.5997 10.0267 45.6006 10.0287C45.6015 10.0307 45.6008 10.0292 45.5994 10.0254C45.5978 10.0214 45.5953 10.0142 45.5928 10.0048C45.5901 9.99496 45.5878 9.98464 45.5862 9.97415C45.5846 9.96395 45.5839 9.95582 45.5836 9.9509C45.5833 9.94646 45.5833 9.94433 45.5834 9.94669C45.5834 9.94931 45.5834 9.95296 45.5834 9.96094L45.9834 9.96094ZM45.9453 9.82129L46.3011 9.6384C46.2262 9.49277 46.1552 9.35448 46.0897 9.21486L45.7275 9.38477L45.3654 9.55467C45.4381 9.70952 45.5157 9.86055 45.5896 10.0042L45.9453 9.82129ZM45.7275 9.38477L46.091 9.21778C45.9342 8.87633 45.767 8.54198 45.6013 8.2134L45.2441 8.39355L44.887 8.57371C45.0525 8.90184 45.2138 9.22478 45.3641 9.55175L45.7275 9.38477ZM45.2441 8.39355V7.99355H45.1846V8.39355V8.79355H45.2441V8.39355Z" fill="white" mask="url(#path-6-outside-3_86_622)"/>
</g>
<defs>
<clipPath id="clip0_86_622">
<rect width="62" height="18" fill="white"/>
</clipPath>
</defs>
</svg>
