<svg width="93" height="16" viewBox="0 0 93 16" fill="none" xmlns="http://www.w3.org/2000/svg">
<g clip-path="url(#clip0_68_63)">
<path d="M91.7483 6.80955H90.8461C90.383 6.80955 89.9715 6.85265 89.6102 6.93865C89.2489 7.02485 88.9441 7.16269 88.6936 7.35305C88.4445 7.54279 88.2546 7.79367 88.1245 8.10581C87.9952 8.41795 87.9304 8.80071 87.9304 9.25278V13.8945H89.7354V9.53801C89.7354 9.32072 89.7471 9.13301 89.7698 8.97493C89.7926 8.81628 89.8503 8.685 89.944 8.58073C90.0355 8.47719 90.1656 8.39767 90.3321 8.34327C90.4993 8.2895 90.7298 8.26186 91.0264 8.26186C91.1743 8.26186 91.3595 8.26376 91.5818 8.26948C91.804 8.2733 92.007 8.28091 92.1928 8.29026L92.4839 6.82445C92.2431 6.81492 91.9988 6.80955 91.7483 6.80955ZM85.2129 9.67547H82.227C82.227 9.33104 82.2465 9.04851 82.2828 8.82718C82.3199 8.6052 82.3944 8.42894 82.5051 8.29776C82.6159 8.16657 82.7694 8.07577 82.9634 8.026C83.1581 7.97623 83.4128 7.95125 83.7266 7.95125C84.0142 7.95125 84.2544 7.97623 84.4491 8.026C84.6432 8.07577 84.796 8.15509 84.9067 8.26346C85.0183 8.37253 85.0968 8.51705 85.1428 8.69802C85.1896 8.87898 85.213 9.10031 85.213 9.36334L85.2129 9.67547ZM86.261 7.36742C86.016 7.13265 85.6912 6.94966 85.2893 6.81848C84.886 6.68729 84.3796 6.62138 83.7685 6.62138C83.1113 6.62138 82.5677 6.69327 82.1376 6.83798C81.7068 6.98328 81.3641 7.19791 81.1102 7.48381C80.8556 7.76836 80.6773 8.11884 80.5755 8.53458C80.4729 8.95099 80.4227 9.4306 80.4227 9.97347V10.7337C80.4227 11.2409 80.4709 11.6909 80.5679 12.0844C80.6656 12.478 80.8369 12.8103 81.0819 13.0814C81.3276 13.3532 81.6627 13.5617 82.0887 13.7063C82.5146 13.8511 83.0555 13.9236 83.7134 13.9236H84.886C85.076 13.9236 85.2721 13.9217 85.4764 13.916C85.6794 13.9122 85.9114 13.9045 86.1701 13.8952L86.4481 12.5384C85.8377 12.5555 85.3237 12.5652 84.9067 12.5652H83.796C83.4629 12.5652 83.1945 12.5431 82.9908 12.4979C82.7872 12.4521 82.6275 12.3707 82.5119 12.253C82.3962 12.1354 82.32 11.9725 82.2827 11.7647C82.2457 11.5568 82.227 11.2897 82.227 10.9635H85.8377C86.0407 10.9635 86.212 10.9444 86.351 10.9097C86.4893 10.8735 86.6029 10.8006 86.691 10.6917C86.7792 10.5834 86.8418 10.4321 86.8782 10.2376C86.9153 10.0432 86.934 9.79164 86.934 9.48421V9.25348C86.934 8.87339 86.8837 8.52291 86.7819 8.20204C86.6793 7.88114 86.506 7.60353 86.261 7.36742ZM80.3642 6.83711H78.1841L75.4494 9.51113V4.46787H73.6444V13.8945H75.4494V10.6373L78.4339 13.8945H80.6835L77.0452 9.9861L80.3642 6.83711ZM70.6028 12.4979C70.2787 12.4979 70.0075 12.4772 69.7901 12.436C69.5726 12.3956 69.4012 12.3136 69.276 12.1918C69.1514 12.0699 69.0634 11.8911 69.0125 11.6556C68.9616 11.4209 68.936 11.1128 68.936 10.7327V9.99943C68.936 9.62002 68.9594 9.31192 69.0055 9.07715C69.0515 8.84171 69.1375 8.66277 69.2628 8.54101C69.3875 8.41859 69.556 8.33717 69.7693 8.2968C69.9819 8.25581 70.2593 8.23561 70.6026 8.23561C70.7684 8.23561 70.9976 8.23752 71.2894 8.24324C71.5812 8.24705 71.9212 8.25848 72.31 8.27678L72.6017 6.852C71.7498 6.82512 71.0692 6.81101 70.5607 6.81101C69.9221 6.81101 69.3826 6.86744 68.9428 6.98128C68.5031 7.09436 68.1466 7.27727 67.8741 7.53022C67.6009 7.78384 67.4041 8.11413 67.2844 8.52178C67.1632 8.92877 67.1034 9.42256 67.1034 10.0004V10.7337C67.1034 11.3216 67.1611 11.8181 67.2768 12.2204C67.3925 12.6226 67.5864 12.9509 67.8596 13.2039C68.1328 13.4574 68.4893 13.6411 68.929 13.7534C69.3687 13.8665 69.9124 13.9237 70.5606 13.9237C70.7829 13.9237 71.0602 13.9218 71.394 13.9161C71.727 13.9123 72.0415 13.9047 72.3374 13.8953L72.6292 12.4705C72.3326 12.48 71.9996 12.4858 71.6293 12.4907C71.2591 12.4945 70.9166 12.4979 70.6028 12.4979ZM64.4072 12.6202H62.6435C62.1804 12.6202 61.8638 12.5502 61.6924 12.4096C61.5212 12.2697 61.4357 12.0544 61.4357 11.7652V11.5069C61.4357 11.1725 61.528 10.9418 61.7137 10.8147C61.8981 10.6882 62.2547 10.6249 62.7825 10.6249H62.9903C63.2958 10.6249 63.5415 10.6402 63.7266 10.6726C63.911 10.7035 64.0549 10.7559 64.1574 10.8286C64.2592 10.9005 64.3254 10.9933 64.3583 11.1064C64.3907 11.2195 64.4073 11.3573 64.4073 11.5208L64.4072 12.6202ZM65.3644 7.3946C64.8373 7.00579 64.0087 6.81072 62.8795 6.81072C62.4164 6.81072 61.9911 6.81262 61.6023 6.81834C61.2135 6.82215 60.8894 6.82977 60.6299 6.83778L60.3388 8.26325C60.5144 8.26325 60.7091 8.26135 60.9224 8.25563C61.135 8.25182 61.3497 8.24609 61.5679 8.24228C61.7853 8.23846 62 8.23465 62.2133 8.23465H62.7962C63.1107 8.23465 63.3729 8.25371 63.5807 8.28918C63.7892 8.32484 63.953 8.39082 64.0734 8.48561C64.1932 8.58038 64.2792 8.70963 64.3301 8.87242C64.3816 9.03527 64.4072 9.23906 64.4072 9.48325V9.72743C64.2496 9.62846 64.0108 9.53979 63.6922 9.46306C63.3729 9.38564 62.9724 9.34731 62.4907 9.34731C61.5279 9.34731 60.8198 9.51761 60.3664 9.85656C59.9128 10.1956 59.6864 10.7412 59.6864 11.4926V11.7906C59.6864 12.4694 59.8922 12.9893 60.3044 13.3513C60.7159 13.7139 61.4171 13.8941 62.4074 13.8941H64.6707C65.2164 13.8941 65.6004 13.8013 65.8227 13.6163C66.045 13.4314 66.1565 13.0983 66.1565 12.6187V9.22487C66.1565 8.39275 65.8929 7.78343 65.3644 7.3946ZM58.0383 6.8092C57.5752 6.8092 57.1637 6.8523 56.8024 6.93831C56.4411 7.0245 56.1363 7.16231 55.8858 7.35267C55.6367 7.54241 55.4468 7.7933 55.3167 8.10543C55.1874 8.41757 55.1226 8.80036 55.1226 9.25243V13.8941H56.9276V9.53763C56.9276 9.32034 56.9393 9.13266 56.962 8.97458C56.9848 8.81593 57.0425 8.68465 57.1361 8.58038C57.2276 8.47684 57.3577 8.3973 57.5242 8.34289C57.6914 8.28912 57.922 8.26148 58.2186 8.26148C58.3664 8.26148 58.5517 8.26338 58.7739 8.2691C58.9962 8.27292 59.1992 8.28056 59.385 8.28991L59.6761 6.82407C59.4353 6.81454 59.191 6.81072 58.9405 6.81072L58.0383 6.8092ZM52.2104 12.4969C51.8863 12.4969 51.6151 12.4762 51.3977 12.435C51.1802 12.3945 51.0089 12.3125 50.8836 12.1908C50.759 12.0689 50.671 11.8901 50.6201 11.6546C50.5699 11.4199 50.5436 11.1118 50.5436 10.7317V9.99844C50.5436 9.61903 50.567 9.31091 50.613 9.07613C50.6591 8.84069 50.7451 8.66175 50.8704 8.53999C50.995 8.41757 51.1636 8.33618 51.3769 8.29581C51.5895 8.25482 51.8675 8.23459 52.2102 8.23459C52.376 8.23459 52.6059 8.2365 52.897 8.24222C53.1888 8.24603 53.5287 8.25749 53.9175 8.2758L54.2093 6.85099C53.3574 6.8241 52.6775 6.80999 52.1682 6.80999C51.5297 6.80999 50.9901 6.86645 50.5511 6.98029C50.1107 7.09337 49.7549 7.27628 49.4817 7.52923C49.2085 7.78285 49.0117 8.11314 48.892 8.52079C48.7708 8.92778 48.711 9.42154 48.711 9.9994V10.7327C48.711 11.3206 48.7687 11.817 48.8844 12.2193C49 12.6216 49.194 12.9499 49.4672 13.2028C49.7404 13.4564 50.0969 13.6401 50.5366 13.7524C50.9763 13.8655 51.52 13.9227 52.1682 13.9227C52.3905 13.9227 52.6678 13.9208 53.0016 13.9151C53.3346 13.9113 53.6491 13.9037 53.9457 13.8943L54.2368 12.4695C53.9409 12.479 53.6071 12.4847 53.2376 12.4897C52.8667 12.4935 52.5242 12.4969 52.2104 12.4969ZM47.8569 8.28956L48.1487 6.8365H45.553V4.90919L43.748 5.19509V11.2347C43.748 11.7506 43.7899 12.1798 43.8726 12.5242C43.9559 12.868 44.1066 13.1418 44.3241 13.3456C44.5415 13.5488 44.8374 13.6914 45.2125 13.7721C45.5875 13.8535 46.0664 13.8945 46.6493 13.8945H47.7745L48.0655 12.4428H46.7746C46.5248 12.4428 46.3183 12.4276 46.1573 12.3951C45.9948 12.3635 45.8697 12.3004 45.7816 12.2048C45.6934 12.1106 45.6337 11.9768 45.6013 11.8046C45.5689 11.6331 45.5531 11.411 45.5531 11.1399V8.28967L47.8569 8.28956ZM41.058 9.67398H38.0728C38.0728 9.32956 38.0904 9.04703 38.1279 8.82569C38.1649 8.60371 38.2392 8.42745 38.3501 8.29628C38.4617 8.16509 38.6144 8.07429 38.8084 8.02452C39.0031 7.97475 39.2578 7.94977 39.5723 7.94977C39.8592 7.94977 40.0994 7.97475 40.2941 8.02452C40.4882 8.07429 40.641 8.15361 40.7525 8.26197C40.8632 8.37105 40.9424 8.51557 40.9885 8.69653C41.0345 8.8775 41.0579 9.09882 41.0579 9.36186L41.058 9.67398ZM42.1061 7.36594C41.8611 7.13116 41.537 6.94818 41.1344 6.817C40.7312 6.68581 40.2247 6.6199 39.6136 6.6199C38.9564 6.6199 38.4128 6.69178 37.9827 6.8365C37.5526 6.9818 37.2099 7.1964 36.9553 7.4823C36.7007 7.76684 36.5224 8.11733 36.4206 8.53307C36.3188 8.94948 36.2679 9.42912 36.2679 9.97199V10.7321C36.2679 11.2394 36.3166 11.6894 36.4138 12.0829C36.5107 12.4765 36.6821 12.8088 36.9271 13.0799C37.1728 13.3517 37.5079 13.5602 37.9339 13.7048C38.3598 13.8496 38.9007 13.9221 39.5586 13.9221H40.7312C40.9212 13.9221 41.118 13.9202 41.3216 13.9145C41.5253 13.9107 41.7566 13.9031 42.016 13.8937L42.294 12.5368C41.6829 12.554 41.1689 12.5637 40.7525 12.5637H39.6419C39.3081 12.5637 39.0404 12.5416 38.836 12.4964C38.633 12.4507 38.4734 12.3692 38.3571 12.2515C38.2414 12.1339 38.1651 11.971 38.1279 11.7632C38.0907 11.5553 38.0729 11.2882 38.0729 10.962H41.683C41.8866 10.962 42.058 10.9429 42.1963 10.9082C42.3354 10.872 42.4482 10.7991 42.5363 10.6902C42.625 10.5819 42.687 10.4306 42.7241 10.2362C42.7612 10.0418 42.7791 9.79016 42.7791 9.48273V9.25199C42.7791 8.87191 42.729 8.52142 42.627 8.20055C42.5244 7.87966 42.3511 7.60205 42.1061 7.36594ZM33.5152 10.9351L28.7807 4.23024H27.1835V13.8937H29.0312V7.24327L33.7374 13.8937H35.3484V4.23024H33.5152V10.9351Z" fill="#1F2328"/>
<path d="M20.0968 0.906131L14.9797 13.2873C14.6776 14.0172 13.9529 14.4955 13.1478 14.4955H16.3945C17.6538 14.4955 18.7872 13.7481 19.2593 12.6065L24.0949 0.906131H20.0968ZM9.90525 1.81226C11.5245 1.81226 12.962 2.76013 13.5683 4.22729L15.813 9.65872L16.8129 7.24035L15.2866 3.54852C14.3961 1.39317 12.2835 0 9.90525 0C7.527 0 5.41506 1.39317 4.52458 3.54852L0 14.4955H1.99908L6.2429 4.22729C6.84917 2.76013 8.28672 1.81226 9.90525 1.81226ZM9.90593 4.22796C10.5115 4.22796 11.0496 4.58315 11.2767 5.13208L14.4801 12.883L15.4799 10.4646L12.9957 4.45332C12.4837 3.21554 11.2712 2.41637 9.90593 2.41637C8.53996 2.41637 7.32675 3.21554 6.81546 4.45332L2.66521 14.4955H4.6643L8.53443 5.13208C8.76083 4.58315 9.29969 4.22796 9.90593 4.22796ZM10.7042 5.35811C10.4138 4.65649 9.39738 4.65649 9.10699 5.35811L5.33041 14.4955H7.3295L9.90525 8.26287L11.8885 13.0613C12.0956 13.5631 12.5938 13.8914 13.1471 13.8914C13.5015 13.8914 13.8325 13.7554 14.0802 13.5268L10.7042 5.35811Z" fill="#1F2328"/>
</g>
<defs>
<clipPath id="clip0_68_63">
<rect width="93" height="15" fill="white"/>
</clipPath>
</defs>
</svg>
