<svg width="92" height="18" viewBox="0 0 92 18" fill="none" xmlns="http://www.w3.org/2000/svg">
<path d="M14 15.5C13 15.5 12.5 14 12 12.5" stroke="white" stroke-width="0.8"/>
<mask id="path-2-outside-1_86_664" maskUnits="userSpaceOnUse" x="26.5734" y="4.23024" width="66" height="12" fill="black">
<rect fill="white" x="26.5734" y="4.23024" width="66" height="12"/>
<path d="M90.6892 7.80955H89.8073C89.3546 7.80955 88.9523 7.85265 88.5991 7.93865C88.2459 8.02484 87.9479 8.16268 87.7031 8.35305C87.4596 8.54278 87.2739 8.79367 87.1468 9.10581C87.0203 9.41795 86.957 9.80071 86.957 10.2528V14.8945H88.7215V10.538C88.7215 10.3207 88.733 10.133 88.7551 9.97493C88.7774 9.81628 88.8338 9.685 88.9254 9.58073C89.0148 9.47718 89.142 9.39767 89.3048 9.34327C89.4682 9.28949 89.6936 9.26186 89.9835 9.26186C90.1281 9.26186 90.3091 9.26376 90.5264 9.26948C90.7437 9.27329 90.9421 9.28091 91.1238 9.29025L91.4083 7.82445C91.1729 7.81491 90.9341 7.80955 90.6892 7.80955ZM84.3005 10.6755H81.3816C81.3816 10.331 81.4007 10.0485 81.4362 9.82718C81.4724 9.6052 81.5452 9.42894 81.6535 9.29776C81.7618 9.16657 81.9118 9.07577 82.1015 9.026C82.2918 8.97623 82.5407 8.95125 82.8475 8.95125C83.1287 8.95125 83.3635 8.97623 83.5539 9.026C83.7436 9.07577 83.8929 9.15509 84.0012 9.26346C84.1103 9.37253 84.1869 9.51705 84.232 9.69802C84.2777 9.87898 84.3006 10.1003 84.3006 10.3633L84.3005 10.6755ZM85.325 8.36742C85.0855 8.13265 84.768 7.94966 84.3752 7.81848C83.981 7.68729 83.4859 7.62138 82.8885 7.62138C82.2461 7.62138 81.7146 7.69326 81.2942 7.83798C80.8731 7.98328 80.5381 8.19791 80.2898 8.48381C80.0409 8.76835 79.8667 9.11884 79.7671 9.53458C79.6668 9.95099 79.6178 10.4306 79.6178 10.9735V11.7337C79.6178 12.2409 79.6649 12.6909 79.7597 13.0844C79.8552 13.478 80.0227 13.8103 80.2622 14.0814C80.5024 14.3532 80.83 14.5617 81.2464 14.7063C81.6628 14.8511 82.1915 14.9236 82.8346 14.9236H83.9809C84.1667 14.9236 84.3583 14.9217 84.5581 14.916C84.7566 14.9122 84.9833 14.9045 85.2362 14.8952L85.508 13.5384C84.9113 13.5555 84.4088 13.5652 84.0011 13.5652H82.9154C82.5898 13.5652 82.3274 13.5431 82.1283 13.4979C81.9292 13.4521 81.7731 13.3707 81.6601 13.253C81.547 13.1354 81.4725 12.9725 81.4361 12.7647C81.3998 12.5568 81.3816 12.2897 81.3816 11.9635H84.9112C85.1097 11.9635 85.2772 11.9444 85.4131 11.9097C85.5483 11.8735 85.6593 11.8006 85.7454 11.6917C85.8316 11.5834 85.8928 11.4321 85.9284 11.2376C85.9647 11.0432 85.983 10.7916 85.983 10.4842V10.2535C85.983 9.87339 85.9338 9.5229 85.8343 9.20203C85.734 8.88114 85.5645 8.60353 85.325 8.36742ZM79.5606 7.8371H77.4295L74.7561 10.5111V5.46787H72.9916V14.8945H74.7561V11.6373L77.6737 14.8945H79.8727L76.3161 10.9861L79.5606 7.8371ZM70.0183 13.4979C69.7014 13.4979 69.4363 13.4772 69.2238 13.436C69.0112 13.3956 68.8437 13.3136 68.7213 13.1918C68.5994 13.0699 68.5134 12.8911 68.4636 12.6556C68.4139 12.4209 68.3889 12.1128 68.3889 11.7327V10.9994C68.3889 10.62 68.4118 10.3119 68.4568 10.0771C68.5018 9.8417 68.5859 9.66276 68.7084 9.54101C68.8302 9.41859 68.9949 9.33717 69.2035 9.2968C69.4113 9.2558 69.6824 9.23561 70.0181 9.23561C70.1802 9.23561 70.4043 9.23751 70.6895 9.24323C70.9747 9.24705 71.307 9.25848 71.6871 9.27678L71.9723 7.852C71.1395 7.82512 70.4742 7.811 69.9771 7.811C69.3528 7.811 68.8254 7.86744 68.3956 7.98128C67.9657 8.09436 67.6172 8.27727 67.3508 8.53022C67.0838 8.78383 66.8914 9.11412 66.7743 9.52178C66.6559 9.92876 66.5974 10.4226 66.5974 11.0004V11.7337C66.5974 12.3216 66.6538 12.8181 66.7669 13.2204C66.88 13.6226 67.0696 13.9509 67.3367 14.2039C67.6037 14.4574 67.9522 14.6411 68.3821 14.7534C68.8119 14.8665 69.3434 14.9237 69.9771 14.9237C70.1943 14.9237 70.4654 14.9218 70.7917 14.9161C71.1173 14.9123 71.4247 14.9047 71.714 14.8953L71.9992 13.4705C71.7093 13.48 71.3837 13.4858 71.0218 13.4907C70.6598 13.4945 70.325 13.4979 70.0183 13.4979ZM63.9617 13.6202H62.2376C61.7848 13.6202 61.4754 13.5502 61.3079 13.4096C61.1405 13.2697 61.0569 13.0544 61.0569 12.7652V12.5069C61.0569 12.1725 61.1471 11.9418 61.3287 11.8147C61.5089 11.6882 61.8575 11.6249 62.3735 11.6249H62.5766C62.8753 11.6249 63.1154 11.6402 63.2964 11.6726C63.4766 11.7035 63.6173 11.7559 63.7175 11.8286C63.8171 11.9005 63.8817 11.9933 63.914 12.1064C63.9456 12.2195 63.9618 12.3573 63.9618 12.5208L63.9617 13.6202ZM64.8974 8.3946C64.3821 8.00578 63.5722 7.81071 62.4683 7.81071C62.0156 7.81071 61.5998 7.81262 61.2197 7.81834C60.8397 7.82215 60.5228 7.82977 60.2692 7.83777L59.9846 9.26325C60.1563 9.26325 60.3466 9.26135 60.5551 9.25563C60.763 9.25182 60.9729 9.24609 61.1861 9.24227C61.3987 9.23846 61.6086 9.23465 61.8171 9.23465H62.3869C62.6943 9.23465 62.9506 9.25371 63.1538 9.28918C63.3576 9.32484 63.5177 9.39082 63.6354 9.48561C63.7525 9.58038 63.8366 9.70963 63.8864 9.87242C63.9367 10.0353 63.9617 10.2391 63.9617 10.4833V10.7274C63.8076 10.6285 63.5742 10.5398 63.2627 10.4631C62.9506 10.3856 62.5591 10.3473 62.0882 10.3473C61.1471 10.3473 60.4549 10.5176 60.0116 10.8566C59.5682 11.1956 59.3469 11.7412 59.3469 12.4926V12.7906C59.3469 13.4693 59.548 13.9893 59.951 14.3513C60.3533 14.7138 61.0388 14.8941 62.0068 14.8941H64.2193C64.7528 14.8941 65.1281 14.8013 65.3454 14.6163C65.5627 14.4314 65.6717 14.0983 65.6717 13.6187V10.2249C65.6717 9.39274 65.4141 8.78343 64.8974 8.3946ZM57.7358 7.8092C57.2831 7.8092 56.8808 7.8523 56.5276 7.9383C56.1744 8.02449 55.8764 8.16231 55.6316 8.35267C55.388 8.54241 55.2024 8.79329 55.0752 9.10543C54.9488 9.41757 54.8855 9.80036 54.8855 10.2524V14.8941H56.65V10.5376C56.65 10.3203 56.6614 10.1327 56.6836 9.97458C56.7059 9.81593 56.7623 9.68465 56.8538 9.58038C56.9433 9.47683 57.0704 9.39729 57.2332 9.34289C57.3966 9.28912 57.6221 9.26148 57.912 9.26148C58.0565 9.26148 58.2376 9.26338 58.4549 9.2691C58.6722 9.27291 58.8706 9.28056 59.0522 9.28991L59.3368 7.82407C59.1014 7.81453 58.8625 7.81071 58.6177 7.81071L57.7358 7.8092ZM52.0386 13.4969C51.7218 13.4969 51.4567 13.4762 51.2442 13.435C51.0316 13.3945 50.8641 13.3125 50.7417 13.1908C50.6198 13.0689 50.5338 12.8901 50.484 12.6546C50.435 12.4198 50.4093 12.1118 50.4093 11.7317V10.9984C50.4093 10.619 50.4321 10.3109 50.4771 10.0761C50.5221 9.84069 50.6062 9.66175 50.7287 9.53999C50.8506 9.41757 51.0153 9.33618 51.2238 9.29581C51.4317 9.25481 51.7035 9.23459 52.0385 9.23459C52.2006 9.23459 52.4253 9.2365 52.7098 9.24222C52.9951 9.24603 53.3274 9.25749 53.7075 9.27579L53.9927 7.85098C53.1599 7.8241 52.4953 7.80999 51.9974 7.80999C51.3732 7.80999 50.8458 7.86645 50.4166 7.98029C49.986 8.09337 49.6383 8.27628 49.3712 8.52923C49.1041 8.78284 48.9117 9.11313 48.7947 9.52079C48.6763 9.92777 48.6177 10.4215 48.6177 10.9994V11.7327C48.6177 12.3206 48.6742 12.817 48.7873 13.2193C48.9003 13.6216 49.09 13.9499 49.357 14.2028C49.6241 14.4564 49.9725 14.6401 50.4024 14.7524C50.8323 14.8655 51.3637 14.9227 51.9974 14.9227C52.2147 14.9227 52.4858 14.9208 52.8121 14.9151C53.1376 14.9113 53.4451 14.9037 53.735 14.8943L54.0195 13.4695C53.7303 13.479 53.404 13.4847 53.0428 13.4897C52.6802 13.4935 52.3454 13.4969 52.0386 13.4969ZM47.7829 9.28956L48.0681 7.83649H45.5307V5.90918L43.7662 6.19509V12.2347C43.7662 12.7506 43.8072 13.1798 43.888 13.5242C43.9694 13.868 44.1167 14.1418 44.3293 14.3456C44.5419 14.5488 44.8311 14.6914 45.1978 14.7721C45.5644 14.8535 46.0326 14.8945 46.6024 14.8945H47.7023L47.9868 13.4428H46.7248C46.4806 13.4428 46.2788 13.4276 46.1214 13.3951C45.9625 13.3635 45.8402 13.3004 45.7541 13.2048C45.6679 13.1106 45.6095 12.9768 45.5779 12.8046C45.5462 12.6331 45.5308 12.411 45.5308 12.1399V9.28967L47.7829 9.28956ZM41.1366 10.674H38.2184C38.2184 10.3296 38.2355 10.047 38.2722 9.82569C38.3084 9.60371 38.381 9.42745 38.4894 9.29628C38.5985 9.16508 38.7477 9.07428 38.9375 9.02451C39.1278 8.97474 39.3767 8.94976 39.6842 8.94976C39.9647 8.94976 40.1995 8.97474 40.3898 9.02451C40.5796 9.07428 40.7289 9.1536 40.8378 9.26197C40.9462 9.37105 41.0236 9.51557 41.0686 9.69653C41.1136 9.8775 41.1365 10.0988 41.1365 10.3619L41.1366 10.674ZM42.1611 8.36594C41.9216 8.13116 41.6048 7.94817 41.2112 7.817C40.817 7.68581 40.3219 7.6199 39.7245 7.6199C39.0821 7.6199 38.5507 7.69178 38.1302 7.83649C37.7098 7.9818 37.3748 8.1964 37.1259 8.4823C36.877 8.76684 36.7028 9.11733 36.6032 9.53307C36.5037 9.94947 36.4539 10.4291 36.4539 10.972V11.7321C36.4539 12.2394 36.5016 12.6894 36.5965 13.0829C36.6913 13.4765 36.8589 13.8088 37.0984 14.0799C37.3385 14.3517 37.6661 14.5602 38.0825 14.7048C38.4989 14.8496 39.0277 14.9221 39.6708 14.9221H40.8171C41.0028 14.9221 41.1951 14.9202 41.3943 14.9145C41.5934 14.9107 41.8194 14.903 42.073 14.8937L42.3448 13.5368C41.7474 13.554 41.2449 13.5637 40.8379 13.5637H39.7522C39.4259 13.5637 39.1642 13.5416 38.9645 13.4964C38.766 13.4507 38.6099 13.3692 38.4962 13.2515C38.3832 13.1339 38.3086 12.971 38.2722 12.7632C38.2358 12.5553 38.2185 12.2882 38.2185 11.962H41.7475C41.9466 11.962 42.1141 11.9429 42.2493 11.9082C42.3853 11.872 42.4955 11.7991 42.5816 11.6902C42.6684 11.5819 42.729 11.4306 42.7652 11.2362C42.8015 11.0418 42.819 10.7902 42.819 10.4827V10.252C42.819 9.87191 42.77 9.52142 42.6703 9.20055C42.57 8.87966 42.4006 8.60205 42.1611 8.36594ZM33.763 11.9351L29.1348 5.23024H27.5734V14.8937H29.3796V8.24327L33.9803 14.8937H35.5551V5.23024H33.763V11.9351Z"/>
</mask>
<path d="M90.6892 7.80955H89.8073C89.3546 7.80955 88.9523 7.85265 88.5991 7.93865C88.2459 8.02484 87.9479 8.16268 87.7031 8.35305C87.4596 8.54278 87.2739 8.79367 87.1468 9.10581C87.0203 9.41795 86.957 9.80071 86.957 10.2528V14.8945H88.7215V10.538C88.7215 10.3207 88.733 10.133 88.7551 9.97493C88.7774 9.81628 88.8338 9.685 88.9254 9.58073C89.0148 9.47718 89.142 9.39767 89.3048 9.34327C89.4682 9.28949 89.6936 9.26186 89.9835 9.26186C90.1281 9.26186 90.3091 9.26376 90.5264 9.26948C90.7437 9.27329 90.9421 9.28091 91.1238 9.29025L91.4083 7.82445C91.1729 7.81491 90.9341 7.80955 90.6892 7.80955ZM84.3005 10.6755H81.3816C81.3816 10.331 81.4007 10.0485 81.4362 9.82718C81.4724 9.6052 81.5452 9.42894 81.6535 9.29776C81.7618 9.16657 81.9118 9.07577 82.1015 9.026C82.2918 8.97623 82.5407 8.95125 82.8475 8.95125C83.1287 8.95125 83.3635 8.97623 83.5539 9.026C83.7436 9.07577 83.8929 9.15509 84.0012 9.26346C84.1103 9.37253 84.1869 9.51705 84.232 9.69802C84.2777 9.87898 84.3006 10.1003 84.3006 10.3633L84.3005 10.6755ZM85.325 8.36742C85.0855 8.13265 84.768 7.94966 84.3752 7.81848C83.981 7.68729 83.4859 7.62138 82.8885 7.62138C82.2461 7.62138 81.7146 7.69326 81.2942 7.83798C80.8731 7.98328 80.5381 8.19791 80.2898 8.48381C80.0409 8.76835 79.8667 9.11884 79.7671 9.53458C79.6668 9.95099 79.6178 10.4306 79.6178 10.9735V11.7337C79.6178 12.2409 79.6649 12.6909 79.7597 13.0844C79.8552 13.478 80.0227 13.8103 80.2622 14.0814C80.5024 14.3532 80.83 14.5617 81.2464 14.7063C81.6628 14.8511 82.1915 14.9236 82.8346 14.9236H83.9809C84.1667 14.9236 84.3583 14.9217 84.5581 14.916C84.7566 14.9122 84.9833 14.9045 85.2362 14.8952L85.508 13.5384C84.9113 13.5555 84.4088 13.5652 84.0011 13.5652H82.9154C82.5898 13.5652 82.3274 13.5431 82.1283 13.4979C81.9292 13.4521 81.7731 13.3707 81.6601 13.253C81.547 13.1354 81.4725 12.9725 81.4361 12.7647C81.3998 12.5568 81.3816 12.2897 81.3816 11.9635H84.9112C85.1097 11.9635 85.2772 11.9444 85.4131 11.9097C85.5483 11.8735 85.6593 11.8006 85.7454 11.6917C85.8316 11.5834 85.8928 11.4321 85.9284 11.2376C85.9647 11.0432 85.983 10.7916 85.983 10.4842V10.2535C85.983 9.87339 85.9338 9.5229 85.8343 9.20203C85.734 8.88114 85.5645 8.60353 85.325 8.36742ZM79.5606 7.8371H77.4295L74.7561 10.5111V5.46787H72.9916V14.8945H74.7561V11.6373L77.6737 14.8945H79.8727L76.3161 10.9861L79.5606 7.8371ZM70.0183 13.4979C69.7014 13.4979 69.4363 13.4772 69.2238 13.436C69.0112 13.3956 68.8437 13.3136 68.7213 13.1918C68.5994 13.0699 68.5134 12.8911 68.4636 12.6556C68.4139 12.4209 68.3889 12.1128 68.3889 11.7327V10.9994C68.3889 10.62 68.4118 10.3119 68.4568 10.0771C68.5018 9.8417 68.5859 9.66276 68.7084 9.54101C68.8302 9.41859 68.9949 9.33717 69.2035 9.2968C69.4113 9.2558 69.6824 9.23561 70.0181 9.23561C70.1802 9.23561 70.4043 9.23751 70.6895 9.24323C70.9747 9.24705 71.307 9.25848 71.6871 9.27678L71.9723 7.852C71.1395 7.82512 70.4742 7.811 69.9771 7.811C69.3528 7.811 68.8254 7.86744 68.3956 7.98128C67.9657 8.09436 67.6172 8.27727 67.3508 8.53022C67.0838 8.78383 66.8914 9.11412 66.7743 9.52178C66.6559 9.92876 66.5974 10.4226 66.5974 11.0004V11.7337C66.5974 12.3216 66.6538 12.8181 66.7669 13.2204C66.88 13.6226 67.0696 13.9509 67.3367 14.2039C67.6037 14.4574 67.9522 14.6411 68.3821 14.7534C68.8119 14.8665 69.3434 14.9237 69.9771 14.9237C70.1943 14.9237 70.4654 14.9218 70.7917 14.9161C71.1173 14.9123 71.4247 14.9047 71.714 14.8953L71.9992 13.4705C71.7093 13.48 71.3837 13.4858 71.0218 13.4907C70.6598 13.4945 70.325 13.4979 70.0183 13.4979ZM63.9617 13.6202H62.2376C61.7848 13.6202 61.4754 13.5502 61.3079 13.4096C61.1405 13.2697 61.0569 13.0544 61.0569 12.7652V12.5069C61.0569 12.1725 61.1471 11.9418 61.3287 11.8147C61.5089 11.6882 61.8575 11.6249 62.3735 11.6249H62.5766C62.8753 11.6249 63.1154 11.6402 63.2964 11.6726C63.4766 11.7035 63.6173 11.7559 63.7175 11.8286C63.8171 11.9005 63.8817 11.9933 63.914 12.1064C63.9456 12.2195 63.9618 12.3573 63.9618 12.5208L63.9617 13.6202ZM64.8974 8.3946C64.3821 8.00578 63.5722 7.81071 62.4683 7.81071C62.0156 7.81071 61.5998 7.81262 61.2197 7.81834C60.8397 7.82215 60.5228 7.82977 60.2692 7.83777L59.9846 9.26325C60.1563 9.26325 60.3466 9.26135 60.5551 9.25563C60.763 9.25182 60.9729 9.24609 61.1861 9.24227C61.3987 9.23846 61.6086 9.23465 61.8171 9.23465H62.3869C62.6943 9.23465 62.9506 9.25371 63.1538 9.28918C63.3576 9.32484 63.5177 9.39082 63.6354 9.48561C63.7525 9.58038 63.8366 9.70963 63.8864 9.87242C63.9367 10.0353 63.9617 10.2391 63.9617 10.4833V10.7274C63.8076 10.6285 63.5742 10.5398 63.2627 10.4631C62.9506 10.3856 62.5591 10.3473 62.0882 10.3473C61.1471 10.3473 60.4549 10.5176 60.0116 10.8566C59.5682 11.1956 59.3469 11.7412 59.3469 12.4926V12.7906C59.3469 13.4693 59.548 13.9893 59.951 14.3513C60.3533 14.7138 61.0388 14.8941 62.0068 14.8941H64.2193C64.7528 14.8941 65.1281 14.8013 65.3454 14.6163C65.5627 14.4314 65.6717 14.0983 65.6717 13.6187V10.2249C65.6717 9.39274 65.4141 8.78343 64.8974 8.3946ZM57.7358 7.8092C57.2831 7.8092 56.8808 7.8523 56.5276 7.9383C56.1744 8.02449 55.8764 8.16231 55.6316 8.35267C55.388 8.54241 55.2024 8.79329 55.0752 9.10543C54.9488 9.41757 54.8855 9.80036 54.8855 10.2524V14.8941H56.65V10.5376C56.65 10.3203 56.6614 10.1327 56.6836 9.97458C56.7059 9.81593 56.7623 9.68465 56.8538 9.58038C56.9433 9.47683 57.0704 9.39729 57.2332 9.34289C57.3966 9.28912 57.6221 9.26148 57.912 9.26148C58.0565 9.26148 58.2376 9.26338 58.4549 9.2691C58.6722 9.27291 58.8706 9.28056 59.0522 9.28991L59.3368 7.82407C59.1014 7.81453 58.8625 7.81071 58.6177 7.81071L57.7358 7.8092ZM52.0386 13.4969C51.7218 13.4969 51.4567 13.4762 51.2442 13.435C51.0316 13.3945 50.8641 13.3125 50.7417 13.1908C50.6198 13.0689 50.5338 12.8901 50.484 12.6546C50.435 12.4198 50.4093 12.1118 50.4093 11.7317V10.9984C50.4093 10.619 50.4321 10.3109 50.4771 10.0761C50.5221 9.84069 50.6062 9.66175 50.7287 9.53999C50.8506 9.41757 51.0153 9.33618 51.2238 9.29581C51.4317 9.25481 51.7035 9.23459 52.0385 9.23459C52.2006 9.23459 52.4253 9.2365 52.7098 9.24222C52.9951 9.24603 53.3274 9.25749 53.7075 9.27579L53.9927 7.85098C53.1599 7.8241 52.4953 7.80999 51.9974 7.80999C51.3732 7.80999 50.8458 7.86645 50.4166 7.98029C49.986 8.09337 49.6383 8.27628 49.3712 8.52923C49.1041 8.78284 48.9117 9.11313 48.7947 9.52079C48.6763 9.92777 48.6177 10.4215 48.6177 10.9994V11.7327C48.6177 12.3206 48.6742 12.817 48.7873 13.2193C48.9003 13.6216 49.09 13.9499 49.357 14.2028C49.6241 14.4564 49.9725 14.6401 50.4024 14.7524C50.8323 14.8655 51.3637 14.9227 51.9974 14.9227C52.2147 14.9227 52.4858 14.9208 52.8121 14.9151C53.1376 14.9113 53.4451 14.9037 53.735 14.8943L54.0195 13.4695C53.7303 13.479 53.404 13.4847 53.0428 13.4897C52.6802 13.4935 52.3454 13.4969 52.0386 13.4969ZM47.7829 9.28956L48.0681 7.83649H45.5307V5.90918L43.7662 6.19509V12.2347C43.7662 12.7506 43.8072 13.1798 43.888 13.5242C43.9694 13.868 44.1167 14.1418 44.3293 14.3456C44.5419 14.5488 44.8311 14.6914 45.1978 14.7721C45.5644 14.8535 46.0326 14.8945 46.6024 14.8945H47.7023L47.9868 13.4428H46.7248C46.4806 13.4428 46.2788 13.4276 46.1214 13.3951C45.9625 13.3635 45.8402 13.3004 45.7541 13.2048C45.6679 13.1106 45.6095 12.9768 45.5779 12.8046C45.5462 12.6331 45.5308 12.411 45.5308 12.1399V9.28967L47.7829 9.28956ZM41.1366 10.674H38.2184C38.2184 10.3296 38.2355 10.047 38.2722 9.82569C38.3084 9.60371 38.381 9.42745 38.4894 9.29628C38.5985 9.16508 38.7477 9.07428 38.9375 9.02451C39.1278 8.97474 39.3767 8.94976 39.6842 8.94976C39.9647 8.94976 40.1995 8.97474 40.3898 9.02451C40.5796 9.07428 40.7289 9.1536 40.8378 9.26197C40.9462 9.37105 41.0236 9.51557 41.0686 9.69653C41.1136 9.8775 41.1365 10.0988 41.1365 10.3619L41.1366 10.674ZM42.1611 8.36594C41.9216 8.13116 41.6048 7.94817 41.2112 7.817C40.817 7.68581 40.3219 7.6199 39.7245 7.6199C39.0821 7.6199 38.5507 7.69178 38.1302 7.83649C37.7098 7.9818 37.3748 8.1964 37.1259 8.4823C36.877 8.76684 36.7028 9.11733 36.6032 9.53307C36.5037 9.94947 36.4539 10.4291 36.4539 10.972V11.7321C36.4539 12.2394 36.5016 12.6894 36.5965 13.0829C36.6913 13.4765 36.8589 13.8088 37.0984 14.0799C37.3385 14.3517 37.6661 14.5602 38.0825 14.7048C38.4989 14.8496 39.0277 14.9221 39.6708 14.9221H40.8171C41.0028 14.9221 41.1951 14.9202 41.3943 14.9145C41.5934 14.9107 41.8194 14.903 42.073 14.8937L42.3448 13.5368C41.7474 13.554 41.2449 13.5637 40.8379 13.5637H39.7522C39.4259 13.5637 39.1642 13.5416 38.9645 13.4964C38.766 13.4507 38.6099 13.3692 38.4962 13.2515C38.3832 13.1339 38.3086 12.971 38.2722 12.7632C38.2358 12.5553 38.2185 12.2882 38.2185 11.962H41.7475C41.9466 11.962 42.1141 11.9429 42.2493 11.9082C42.3853 11.872 42.4955 11.7991 42.5816 11.6902C42.6684 11.5819 42.729 11.4306 42.7652 11.2362C42.8015 11.0418 42.819 10.7902 42.819 10.4827V10.252C42.819 9.87191 42.77 9.52142 42.6703 9.20055C42.57 8.87966 42.4006 8.60205 42.1611 8.36594ZM33.763 11.9351L29.1348 5.23024H27.5734V14.8937H29.3796V8.24327L33.9803 14.8937H35.5551V5.23024H33.763V11.9351Z" fill="#1F2328"/>
<path d="M90.6892 7.80955H89.8073C89.3546 7.80955 88.9523 7.85265 88.5991 7.93865C88.2459 8.02484 87.9479 8.16268 87.7031 8.35305C87.4596 8.54278 87.2739 8.79367 87.1468 9.10581C87.0203 9.41795 86.957 9.80071 86.957 10.2528V14.8945H88.7215V10.538C88.7215 10.3207 88.733 10.133 88.7551 9.97493C88.7774 9.81628 88.8338 9.685 88.9254 9.58073C89.0148 9.47718 89.142 9.39767 89.3048 9.34327C89.4682 9.28949 89.6936 9.26186 89.9835 9.26186C90.1281 9.26186 90.3091 9.26376 90.5264 9.26948C90.7437 9.27329 90.9421 9.28091 91.1238 9.29025L91.4083 7.82445C91.1729 7.81491 90.9341 7.80955 90.6892 7.80955ZM84.3005 10.6755H81.3816C81.3816 10.331 81.4007 10.0485 81.4362 9.82718C81.4724 9.6052 81.5452 9.42894 81.6535 9.29776C81.7618 9.16657 81.9118 9.07577 82.1015 9.026C82.2918 8.97623 82.5407 8.95125 82.8475 8.95125C83.1287 8.95125 83.3635 8.97623 83.5539 9.026C83.7436 9.07577 83.8929 9.15509 84.0012 9.26346C84.1103 9.37253 84.1869 9.51705 84.232 9.69802C84.2777 9.87898 84.3006 10.1003 84.3006 10.3633L84.3005 10.6755ZM85.325 8.36742C85.0855 8.13265 84.768 7.94966 84.3752 7.81848C83.981 7.68729 83.4859 7.62138 82.8885 7.62138C82.2461 7.62138 81.7146 7.69326 81.2942 7.83798C80.8731 7.98328 80.5381 8.19791 80.2898 8.48381C80.0409 8.76835 79.8667 9.11884 79.7671 9.53458C79.6668 9.95099 79.6178 10.4306 79.6178 10.9735V11.7337C79.6178 12.2409 79.6649 12.6909 79.7597 13.0844C79.8552 13.478 80.0227 13.8103 80.2622 14.0814C80.5024 14.3532 80.83 14.5617 81.2464 14.7063C81.6628 14.8511 82.1915 14.9236 82.8346 14.9236H83.9809C84.1667 14.9236 84.3583 14.9217 84.5581 14.916C84.7566 14.9122 84.9833 14.9045 85.2362 14.8952L85.508 13.5384C84.9113 13.5555 84.4088 13.5652 84.0011 13.5652H82.9154C82.5898 13.5652 82.3274 13.5431 82.1283 13.4979C81.9292 13.4521 81.7731 13.3707 81.6601 13.253C81.547 13.1354 81.4725 12.9725 81.4361 12.7647C81.3998 12.5568 81.3816 12.2897 81.3816 11.9635H84.9112C85.1097 11.9635 85.2772 11.9444 85.4131 11.9097C85.5483 11.8735 85.6593 11.8006 85.7454 11.6917C85.8316 11.5834 85.8928 11.4321 85.9284 11.2376C85.9647 11.0432 85.983 10.7916 85.983 10.4842V10.2535C85.983 9.87339 85.9338 9.5229 85.8343 9.20203C85.734 8.88114 85.5645 8.60353 85.325 8.36742ZM79.5606 7.8371H77.4295L74.7561 10.5111V5.46787H72.9916V14.8945H74.7561V11.6373L77.6737 14.8945H79.8727L76.3161 10.9861L79.5606 7.8371ZM70.0183 13.4979C69.7014 13.4979 69.4363 13.4772 69.2238 13.436C69.0112 13.3956 68.8437 13.3136 68.7213 13.1918C68.5994 13.0699 68.5134 12.8911 68.4636 12.6556C68.4139 12.4209 68.3889 12.1128 68.3889 11.7327V10.9994C68.3889 10.62 68.4118 10.3119 68.4568 10.0771C68.5018 9.8417 68.5859 9.66276 68.7084 9.54101C68.8302 9.41859 68.9949 9.33717 69.2035 9.2968C69.4113 9.2558 69.6824 9.23561 70.0181 9.23561C70.1802 9.23561 70.4043 9.23751 70.6895 9.24323C70.9747 9.24705 71.307 9.25848 71.6871 9.27678L71.9723 7.852C71.1395 7.82512 70.4742 7.811 69.9771 7.811C69.3528 7.811 68.8254 7.86744 68.3956 7.98128C67.9657 8.09436 67.6172 8.27727 67.3508 8.53022C67.0838 8.78383 66.8914 9.11412 66.7743 9.52178C66.6559 9.92876 66.5974 10.4226 66.5974 11.0004V11.7337C66.5974 12.3216 66.6538 12.8181 66.7669 13.2204C66.88 13.6226 67.0696 13.9509 67.3367 14.2039C67.6037 14.4574 67.9522 14.6411 68.3821 14.7534C68.8119 14.8665 69.3434 14.9237 69.9771 14.9237C70.1943 14.9237 70.4654 14.9218 70.7917 14.9161C71.1173 14.9123 71.4247 14.9047 71.714 14.8953L71.9992 13.4705C71.7093 13.48 71.3837 13.4858 71.0218 13.4907C70.6598 13.4945 70.325 13.4979 70.0183 13.4979ZM63.9617 13.6202H62.2376C61.7848 13.6202 61.4754 13.5502 61.3079 13.4096C61.1405 13.2697 61.0569 13.0544 61.0569 12.7652V12.5069C61.0569 12.1725 61.1471 11.9418 61.3287 11.8147C61.5089 11.6882 61.8575 11.6249 62.3735 11.6249H62.5766C62.8753 11.6249 63.1154 11.6402 63.2964 11.6726C63.4766 11.7035 63.6173 11.7559 63.7175 11.8286C63.8171 11.9005 63.8817 11.9933 63.914 12.1064C63.9456 12.2195 63.9618 12.3573 63.9618 12.5208L63.9617 13.6202ZM64.8974 8.3946C64.3821 8.00578 63.5722 7.81071 62.4683 7.81071C62.0156 7.81071 61.5998 7.81262 61.2197 7.81834C60.8397 7.82215 60.5228 7.82977 60.2692 7.83777L59.9846 9.26325C60.1563 9.26325 60.3466 9.26135 60.5551 9.25563C60.763 9.25182 60.9729 9.24609 61.1861 9.24227C61.3987 9.23846 61.6086 9.23465 61.8171 9.23465H62.3869C62.6943 9.23465 62.9506 9.25371 63.1538 9.28918C63.3576 9.32484 63.5177 9.39082 63.6354 9.48561C63.7525 9.58038 63.8366 9.70963 63.8864 9.87242C63.9367 10.0353 63.9617 10.2391 63.9617 10.4833V10.7274C63.8076 10.6285 63.5742 10.5398 63.2627 10.4631C62.9506 10.3856 62.5591 10.3473 62.0882 10.3473C61.1471 10.3473 60.4549 10.5176 60.0116 10.8566C59.5682 11.1956 59.3469 11.7412 59.3469 12.4926V12.7906C59.3469 13.4693 59.548 13.9893 59.951 14.3513C60.3533 14.7138 61.0388 14.8941 62.0068 14.8941H64.2193C64.7528 14.8941 65.1281 14.8013 65.3454 14.6163C65.5627 14.4314 65.6717 14.0983 65.6717 13.6187V10.2249C65.6717 9.39274 65.4141 8.78343 64.8974 8.3946ZM57.7358 7.8092C57.2831 7.8092 56.8808 7.8523 56.5276 7.9383C56.1744 8.02449 55.8764 8.16231 55.6316 8.35267C55.388 8.54241 55.2024 8.79329 55.0752 9.10543C54.9488 9.41757 54.8855 9.80036 54.8855 10.2524V14.8941H56.65V10.5376C56.65 10.3203 56.6614 10.1327 56.6836 9.97458C56.7059 9.81593 56.7623 9.68465 56.8538 9.58038C56.9433 9.47683 57.0704 9.39729 57.2332 9.34289C57.3966 9.28912 57.6221 9.26148 57.912 9.26148C58.0565 9.26148 58.2376 9.26338 58.4549 9.2691C58.6722 9.27291 58.8706 9.28056 59.0522 9.28991L59.3368 7.82407C59.1014 7.81453 58.8625 7.81071 58.6177 7.81071L57.7358 7.8092ZM52.0386 13.4969C51.7218 13.4969 51.4567 13.4762 51.2442 13.435C51.0316 13.3945 50.8641 13.3125 50.7417 13.1908C50.6198 13.0689 50.5338 12.8901 50.484 12.6546C50.435 12.4198 50.4093 12.1118 50.4093 11.7317V10.9984C50.4093 10.619 50.4321 10.3109 50.4771 10.0761C50.5221 9.84069 50.6062 9.66175 50.7287 9.53999C50.8506 9.41757 51.0153 9.33618 51.2238 9.29581C51.4317 9.25481 51.7035 9.23459 52.0385 9.23459C52.2006 9.23459 52.4253 9.2365 52.7098 9.24222C52.9951 9.24603 53.3274 9.25749 53.7075 9.27579L53.9927 7.85098C53.1599 7.8241 52.4953 7.80999 51.9974 7.80999C51.3732 7.80999 50.8458 7.86645 50.4166 7.98029C49.986 8.09337 49.6383 8.27628 49.3712 8.52923C49.1041 8.78284 48.9117 9.11313 48.7947 9.52079C48.6763 9.92777 48.6177 10.4215 48.6177 10.9994V11.7327C48.6177 12.3206 48.6742 12.817 48.7873 13.2193C48.9003 13.6216 49.09 13.9499 49.357 14.2028C49.6241 14.4564 49.9725 14.6401 50.4024 14.7524C50.8323 14.8655 51.3637 14.9227 51.9974 14.9227C52.2147 14.9227 52.4858 14.9208 52.8121 14.9151C53.1376 14.9113 53.4451 14.9037 53.735 14.8943L54.0195 13.4695C53.7303 13.479 53.404 13.4847 53.0428 13.4897C52.6802 13.4935 52.3454 13.4969 52.0386 13.4969ZM47.7829 9.28956L48.0681 7.83649H45.5307V5.90918L43.7662 6.19509V12.2347C43.7662 12.7506 43.8072 13.1798 43.888 13.5242C43.9694 13.868 44.1167 14.1418 44.3293 14.3456C44.5419 14.5488 44.8311 14.6914 45.1978 14.7721C45.5644 14.8535 46.0326 14.8945 46.6024 14.8945H47.7023L47.9868 13.4428H46.7248C46.4806 13.4428 46.2788 13.4276 46.1214 13.3951C45.9625 13.3635 45.8402 13.3004 45.7541 13.2048C45.6679 13.1106 45.6095 12.9768 45.5779 12.8046C45.5462 12.6331 45.5308 12.411 45.5308 12.1399V9.28967L47.7829 9.28956ZM41.1366 10.674H38.2184C38.2184 10.3296 38.2355 10.047 38.2722 9.82569C38.3084 9.60371 38.381 9.42745 38.4894 9.29628C38.5985 9.16508 38.7477 9.07428 38.9375 9.02451C39.1278 8.97474 39.3767 8.94976 39.6842 8.94976C39.9647 8.94976 40.1995 8.97474 40.3898 9.02451C40.5796 9.07428 40.7289 9.1536 40.8378 9.26197C40.9462 9.37105 41.0236 9.51557 41.0686 9.69653C41.1136 9.8775 41.1365 10.0988 41.1365 10.3619L41.1366 10.674ZM42.1611 8.36594C41.9216 8.13116 41.6048 7.94817 41.2112 7.817C40.817 7.68581 40.3219 7.6199 39.7245 7.6199C39.0821 7.6199 38.5507 7.69178 38.1302 7.83649C37.7098 7.9818 37.3748 8.1964 37.1259 8.4823C36.877 8.76684 36.7028 9.11733 36.6032 9.53307C36.5037 9.94947 36.4539 10.4291 36.4539 10.972V11.7321C36.4539 12.2394 36.5016 12.6894 36.5965 13.0829C36.6913 13.4765 36.8589 13.8088 37.0984 14.0799C37.3385 14.3517 37.6661 14.5602 38.0825 14.7048C38.4989 14.8496 39.0277 14.9221 39.6708 14.9221H40.8171C41.0028 14.9221 41.1951 14.9202 41.3943 14.9145C41.5934 14.9107 41.8194 14.903 42.073 14.8937L42.3448 13.5368C41.7474 13.554 41.2449 13.5637 40.8379 13.5637H39.7522C39.4259 13.5637 39.1642 13.5416 38.9645 13.4964C38.766 13.4507 38.6099 13.3692 38.4962 13.2515C38.3832 13.1339 38.3086 12.971 38.2722 12.7632C38.2358 12.5553 38.2185 12.2882 38.2185 11.962H41.7475C41.9466 11.962 42.1141 11.9429 42.2493 11.9082C42.3853 11.872 42.4955 11.7991 42.5816 11.6902C42.6684 11.5819 42.729 11.4306 42.7652 11.2362C42.8015 11.0418 42.819 10.7902 42.819 10.4827V10.252C42.819 9.87191 42.77 9.52142 42.6703 9.20055C42.57 8.87966 42.4006 8.60205 42.1611 8.36594ZM33.763 11.9351L29.1348 5.23024H27.5734V14.8937H29.3796V8.24327L33.9803 14.8937H35.5551V5.23024H33.763V11.9351Z" stroke="white" stroke-width="0.8" mask="url(#path-2-outside-1_86_664)"/>
<path d="M10.6826 0.799805C13.089 0.799805 15.2279 2.24267 16.1289 4.47363L17.6211 8.16504L17.6514 8.24023L17.6211 8.31543L16.6436 10.7334L16.458 11.1924L16.2725 10.7334L14.0781 5.30176C13.5159 3.91048 12.1838 3.0127 10.6826 3.0127C9.1822 3.01283 7.85024 3.91049 7.28809 5.30176L3.13965 15.5703L3.08887 15.6953H0.703125L0.814453 15.4209L5.2373 4.47363C6.13828 2.2428 8.27632 0.799936 10.6826 0.799805ZM10.6836 3.2168C12.0997 3.2168 13.3585 4.06476 13.8896 5.37793L16.3184 11.3896L16.3486 11.4648L16.3184 11.54L15.3408 13.958L15.1553 14.417L14.9697 13.958L11.8379 6.20703C11.6464 5.73362 11.1939 5.42773 10.6836 5.42773C10.1724 5.42774 9.71907 5.73391 9.52832 6.20703L5.74512 15.5703L5.69434 15.6953H3.30859L3.41992 15.4209L7.47656 5.37891L7.58496 5.1377C8.16554 3.9622 9.35542 3.2168 10.6836 3.2168ZM9.79297 6.13086C10.1903 5.46578 11.1758 5.46589 11.5732 6.13086L11.6494 6.2832L14.9492 14.4521L15.001 14.5781L14.9014 14.6719C14.6236 14.9342 14.2517 15.0917 13.8525 15.0918C13.2302 15.0918 12.6695 14.7133 12.4365 14.1357L10.6826 9.79688L8.35059 15.5703L8.2998 15.6953H5.91406L6.02539 15.4209L9.7168 6.2832L9.79297 6.13086ZM24.8506 1.70605L24.7393 1.98145L20.0127 13.6816C19.5207 14.8987 18.3389 15.6953 17.0264 15.6953H13.8525V15.2959C14.558 15.2959 15.1932 14.8664 15.458 14.2119L20.46 1.83105L20.5107 1.70605H24.8506Z" fill="#1F2328" stroke="white" stroke-width="0.4"/>
</svg>
