<svg width="51" height="19" viewBox="0 0 51 19" fill="none" xmlns="http://www.w3.org/2000/svg">
<g clip-path="url(#clip0_85_569)">
<path d="M15.792 13.8652L15.6934 13.9229L8.39648 18.1729L8.2959 18.2314L8.19531 18.1729L0.899414 13.9229L0.799805 13.8652V5.13477L0.899414 5.07715L8.19531 0.827148L8.2959 0.768555L8.39648 0.827148L15.6934 5.07715L15.792 5.13477V13.8652Z" fill="#1F2328" stroke="white" stroke-width="0.4"/>
<mask id="mask0_85_569" style="mask-type:alpha" maskUnits="userSpaceOnUse" x="1" y="1" width="15" height="17">
<path d="M8.29616 1L15.5924 5.25V13.75L8.29616 18L1 13.75V5.25L8.29616 1Z" fill="#33A18E"/>
</mask>
<g mask="url(#mask0_85_569)">
<path fill-rule="evenodd" clip-rule="evenodd" d="M0.500723 7.64367L12.0728 2.02586L12.2618 2.42204L0.689668 8.03985L0.500723 7.64367Z" fill="white"/>
<path fill-rule="evenodd" clip-rule="evenodd" d="M3.79321 17.7069L14.4454 3.19827L14.7955 3.45997L4.14338 17.9686L3.79321 17.7069Z" fill="white"/>
<path fill-rule="evenodd" clip-rule="evenodd" d="M2.4859 16.681L7.71513 0.120689L8.13037 0.254144L2.90111 16.8145L2.4859 16.681Z" fill="white"/>
<path fill-rule="evenodd" clip-rule="evenodd" d="M2.4859 3.58908L10.8139 1.73276L10.908 2.16206L2.57991 4.01838L2.4859 3.58908Z" fill="white"/>
<path fill-rule="evenodd" clip-rule="evenodd" d="M-0.612913 4.56609L16.7211 8.86494L16.6171 9.2919L-0.716932 4.99303L-0.612913 4.56609Z" fill="white"/>
<path fill-rule="evenodd" clip-rule="evenodd" d="M-0.128724 7.49712L6.64991 18.5862L6.27902 18.817L-0.499628 7.72789L-0.128724 7.49712Z" fill="white"/>
<path fill-rule="evenodd" clip-rule="evenodd" d="M8.48983 20.1006L14.7843 1.73276L15.1962 1.87642L8.90169 20.2442L8.48983 20.1006Z" fill="white"/>
<path fill-rule="evenodd" clip-rule="evenodd" d="M0.791237 9.35345L15.9948 9.45115L15.992 9.8908L0.788461 9.7931L0.791237 9.35345Z" fill="white"/>
<path fill-rule="evenodd" clip-rule="evenodd" d="M8.49109 0.364449V19.3195H8.05532V0.364449H8.49109Z" fill="white"/>
<path fill-rule="evenodd" clip-rule="evenodd" d="M4.71317 16.681L16.3337 10.6724L16.5325 11.0637L4.91192 17.0723L4.71317 16.681Z" fill="white"/>
</g>
<path d="M48.8519 11.6268C49.2047 11.6268 49.4926 11.757 49.6361 12.0604H49.6352C49.7594 12.3129 49.8139 12.6522 49.8139 13.0595V15.8534H48.8822V13.1532C48.8822 12.8347 48.8457 12.6621 48.806 12.5907L48.8021 12.5829C48.7885 12.5554 48.7722 12.5399 48.7523 12.5292C48.73 12.5172 48.692 12.5058 48.6293 12.5058C48.5253 12.5058 48.4558 12.5376 48.4018 12.5946L48.3978 12.5985C48.3541 12.6428 48.3119 12.7315 48.3119 12.9071V15.8534H47.3803V13.1532C47.3803 12.8347 47.3447 12.6621 47.3051 12.5907L47.3012 12.5829C47.2869 12.5542 47.2702 12.5385 47.2514 12.5282C47.2304 12.5168 47.1946 12.5058 47.1352 12.5058C47.0311 12.5058 46.9569 12.5379 46.8969 12.5985C46.853 12.6428 46.8109 12.7314 46.8109 12.9071V15.8534H45.8793V11.7138H46.8109V11.7802C46.9586 11.6711 47.1462 11.6268 47.351 11.6268C47.5969 11.6269 47.8178 11.6907 47.974 11.8534L48.0687 11.9667C48.071 11.97 48.0724 11.9741 48.0746 11.9774C48.1137 11.9303 48.1556 11.8857 48.2016 11.8446C48.3731 11.6915 48.5986 11.6269 48.8519 11.6268Z" fill="#1F2328" stroke="white" stroke-width="0.4"/>
<path d="M42.82 11.7138V14.2109C42.82 14.5279 42.8887 14.7277 42.9909 14.8456L43.0778 14.9199C43.1757 14.9861 43.3104 15.0253 43.4968 15.0253C43.5945 15.0253 43.6897 15.0137 43.7829 14.9892C43.8735 14.9654 43.9514 14.93 44.0173 14.8857C44.0798 14.8436 44.1285 14.7919 44.1657 14.7304C44.1965 14.6748 44.2155 14.6033 44.2155 14.5087V11.7138H45.1901V15.8535H44.2155V15.6357C44.1943 15.6537 44.1719 15.6707 44.1491 15.6874L44.1501 15.6884C44.0483 15.7669 43.9298 15.8275 43.7976 15.872C43.6576 15.9191 43.501 15.9403 43.3317 15.9404C42.8975 15.9404 42.5305 15.8004 42.2526 15.5087L42.2517 15.5068C41.9726 15.2079 41.8454 14.8005 41.8454 14.3124V11.7138H42.82Z" fill="#1F2328" stroke="white" stroke-width="0.4"/>
<path d="M39.3679 10.3949V11.7142H41.0564V12.6068H39.3679V14.9603H41.0564V15.8529H39.4128C39.0936 15.8529 38.8189 15.7624 38.6345 15.5433L38.6325 15.5404C38.4683 15.3379 38.3933 15.0847 38.3933 14.7982V12.6068H37.1579V11.7142H38.2771C38.3276 11.7142 38.3614 11.7091 38.3816 11.7035C38.4013 11.6979 38.401 11.6938 38.3943 11.7006C38.3956 11.6986 38.3989 11.692 38.403 11.6781C38.4093 11.6569 38.4147 11.6234 38.4148 11.5736V10.3949H39.3679Z" fill="#1F2328" stroke="white" stroke-width="0.4"/>
<path d="M35.1343 11.6268C35.5697 11.6268 35.9368 11.7702 36.2143 12.0673H36.2134C36.4933 12.3618 36.6196 12.7674 36.6196 13.2548V15.8534H35.645V13.3563C35.645 13.0367 35.5752 12.8412 35.4741 12.7294L35.4722 12.7274C35.3717 12.613 35.216 12.5419 34.9692 12.5419C34.8713 12.5419 34.7755 12.5534 34.6821 12.578C34.5916 12.6019 34.5146 12.6372 34.4487 12.6815C34.3885 12.7221 34.34 12.774 34.3022 12.8397C34.2693 12.8972 34.2495 12.9686 34.2495 13.0595V15.8534H33.2749V11.7138H34.2495V11.9276C34.2685 11.9108 34.2879 11.8944 34.3081 11.8788L34.313 11.8759C34.4177 11.7996 34.5368 11.7395 34.6684 11.6952C34.8085 11.6481 34.9649 11.6268 35.1343 11.6268Z" fill="#1F2328" stroke="white" stroke-width="0.4"/>
<path d="M30.4755 11.6268C30.9446 11.6268 31.3409 11.7468 31.6406 12.0087L31.749 12.1132C31.985 12.3684 32.0976 12.6993 32.0976 13.0878V14.9462H32.6152V15.8534H32.0195C31.7651 15.8534 31.5342 15.7873 31.3847 15.6063C31.3528 15.5677 31.324 15.5271 31.2988 15.4843C31.2253 15.5746 31.1406 15.6554 31.0419 15.7235L31.041 15.7245C30.8196 15.8754 30.536 15.9403 30.2099 15.9403C29.7868 15.9403 29.4266 15.8287 29.1513 15.5858C28.8718 15.3391 28.7382 15.0029 28.7382 14.6024C28.7383 14.2002 28.8862 13.8695 29.1914 13.6386L29.1923 13.6376C29.4984 13.4104 29.9593 13.3153 30.5332 13.3153H31.123V13.1464C31.123 12.9074 31.0576 12.7649 30.9609 12.6796L30.958 12.6776C30.8531 12.5819 30.6901 12.5194 30.4394 12.5194C30.2167 12.5195 30.0543 12.5656 29.9375 12.6405L29.9335 12.6425C29.8059 12.7205 29.7019 12.8286 29.622 12.9696L29.5107 13.1669L29.3291 13.0311L28.9404 12.7411L28.8076 12.6415L28.8818 12.4921C28.9385 12.3776 29.0129 12.2682 29.1044 12.1649C29.2009 12.0562 29.3178 11.9642 29.4521 11.8876C29.5908 11.8036 29.7469 11.741 29.9169 11.6981V11.6991C30.0891 11.6509 30.2756 11.6268 30.4755 11.6268ZM30.5332 14.1503C30.1983 14.1503 29.9924 14.1985 29.8828 14.2655C29.7836 14.3262 29.7422 14.4024 29.7421 14.5155V14.6679C29.7422 14.8057 29.7853 14.8887 29.8584 14.9462C29.9524 15.0112 30.0964 15.0546 30.3105 15.0546C30.4418 15.0546 30.5554 15.0397 30.6533 15.0126C30.7611 14.9791 30.8497 14.9386 30.9218 14.8934C30.9923 14.8447 31.0404 14.7939 31.0712 14.7411L31.0732 14.7382C31.108 14.6808 31.123 14.6244 31.123 14.5663V14.1503H30.5332Z" fill="#1F2328" stroke="white" stroke-width="0.4"/>
<path d="M25.5928 11.7138V14.2109C25.5928 14.5279 25.6614 14.7277 25.7637 14.8456L25.8506 14.9199C25.9485 14.9861 26.0832 15.0253 26.2695 15.0253C26.3672 15.0253 26.4625 15.0137 26.5557 14.9892C26.6463 14.9654 26.7241 14.93 26.7901 14.8857C26.8525 14.8436 26.9013 14.7919 26.9385 14.7304C26.9693 14.6748 26.9882 14.6033 26.9883 14.5087V11.7138H27.9629V15.8535H26.9883V15.6357C26.967 15.6537 26.9447 15.6707 26.9219 15.6874L26.9229 15.6884C26.8211 15.7669 26.7025 15.8275 26.5703 15.872C26.4304 15.9191 26.2738 15.9403 26.1045 15.9404C25.6703 15.9404 25.3032 15.8004 25.0254 15.5087L25.0244 15.5068C24.7453 15.2079 24.6182 14.8005 24.6182 14.3124V11.7138H25.5928Z" fill="#1F2328" stroke="white" stroke-width="0.4"/>
<path d="M22.0058 10.3079C22.3367 10.308 22.6331 10.3734 22.8877 10.512H22.8887C23.1412 10.645 23.3487 10.839 23.5098 11.0882C23.6698 11.3359 23.7828 11.6356 23.8535 11.9818L23.8994 12.2445C23.9388 12.5148 23.958 12.8084 23.958 13.1243C23.958 13.9003 23.8385 14.5417 23.584 15.0345L23.583 15.0355C23.3456 15.4901 22.9777 15.7747 22.4931 15.8841V16.1488H23.5771V17.0413H22.5371C22.2178 17.0413 21.9431 16.9509 21.7588 16.7318L21.7568 16.7288C21.5926 16.5263 21.5185 16.2731 21.5185 15.9866V15.8841C21.3065 15.8362 21.113 15.7552 20.9424 15.6361L20.9385 15.6331C20.7314 15.4792 20.5619 15.2795 20.4297 15.0394L20.4287 15.0384C20.2974 14.7946 20.203 14.5107 20.1426 14.1908V14.1898C20.0825 13.8665 20.0527 13.5111 20.0527 13.1243C20.0527 12.7032 20.0868 12.3215 20.1572 11.9818C20.228 11.6354 20.3418 11.3359 20.5019 11.0882C20.663 10.839 20.8695 10.645 21.1221 10.512C21.377 10.373 21.6744 10.3079 22.0058 10.3079ZM22.0058 11.2376C21.832 11.2376 21.6989 11.2726 21.5976 11.3324L21.5928 11.3353C21.4856 11.3949 21.3948 11.4814 21.3203 11.5999C21.2446 11.7205 21.1849 11.874 21.1455 12.0638C21.1103 12.2564 21.0918 12.472 21.0918 12.7113V13.5374C21.0918 13.7816 21.1104 13.9994 21.1455 14.1917L21.1787 14.3236C21.2155 14.4496 21.2632 14.5578 21.3203 14.6488C21.3944 14.7668 21.4858 14.8556 21.5937 14.9202C21.6959 14.977 21.8302 15.0111 22.0058 15.0111C22.1816 15.011 22.3158 14.9771 22.418 14.9202C22.5256 14.8556 22.6164 14.7665 22.6904 14.6488C22.7657 14.5289 22.8228 14.3789 22.8574 14.1956L22.8584 14.1927C22.8982 14.0008 22.9189 13.7825 22.9189 13.5374V12.7113C22.9189 12.4715 22.8982 12.2559 22.8584 12.0638L22.8574 12.0589C22.8226 11.8704 22.7652 11.7191 22.6904 11.5999C22.6159 11.4814 22.5251 11.3949 22.418 11.3353L22.414 11.3324C22.3128 11.2725 22.1797 11.2377 22.0058 11.2376Z" fill="#1F2328" stroke="white" stroke-width="0.4"/>
<path d="M47.9815 2.54427V3.8636H49.67V4.75618H47.9815V7.1097H49.67V8.00227H48.0264C47.7072 8.00227 47.4325 7.91172 47.2481 7.6927L47.2462 7.68977C47.0819 7.48728 47.0069 7.23407 47.0069 6.94759V4.75618H45.7716V3.8636H46.8907C46.9412 3.8636 46.975 3.85851 46.9952 3.85286C47.015 3.84732 47.0146 3.84318 47.0079 3.84993C47.0093 3.84795 47.0126 3.84141 47.0167 3.82747C47.0229 3.80628 47.0284 3.77272 47.0284 3.72298V2.54427H47.9815Z" fill="#1F2328" stroke="white" stroke-width="0.4"/>
<path d="M43.5682 3.77621C43.924 3.77621 44.2424 3.83232 44.5174 3.952L44.5164 3.95297C44.7893 4.06956 45.0257 4.23198 45.2225 4.44125L45.3582 4.58578L45.2147 4.7225L44.8407 5.07797L44.6844 5.22739L44.5477 5.05942C44.5158 5.02008 44.4721 4.97667 44.4139 4.93051L44.4071 4.92563L44.4022 4.91977C44.359 4.87959 44.299 4.84009 44.2186 4.80356L44.2069 4.79868V4.7977C44.1344 4.75927 44.0438 4.72596 43.9325 4.70004C43.8262 4.67531 43.6982 4.66196 43.5467 4.66196C43.2751 4.66197 43.0939 4.70866 42.9813 4.78012C42.8875 4.8423 42.8416 4.92628 42.8416 5.05649C42.8417 5.12363 42.8527 5.17084 42.867 5.20395C42.8885 5.23728 42.9146 5.26416 42.9481 5.285C42.993 5.31292 43.0451 5.33608 43.1043 5.35532C43.1793 5.37298 43.2541 5.38884 43.3289 5.40219L43.9071 5.48911H43.9061C44.046 5.50928 44.1926 5.5363 44.3455 5.57114C44.513 5.60929 44.6685 5.67259 44.8114 5.76059L44.9207 5.83286C45.0249 5.91151 45.1141 6.00792 45.1873 6.12094H45.1864C45.3 6.28852 45.3484 6.49425 45.3485 6.7225C45.3485 7.15505 45.1767 7.50601 44.8328 7.74887L44.8319 7.74789C44.5052 7.98183 44.083 8.08967 43.5828 8.08969C43.173 8.08969 42.8074 8.02101 42.493 7.87582L42.4891 7.87387C42.1889 7.72759 41.931 7.53255 41.7166 7.28989L41.5838 7.1395L41.7342 7.00766L42.1219 6.66684L42.2674 6.53891L42.3993 6.68051C42.5614 6.85291 42.7364 6.98239 42.9227 7.07211C43.1 7.15741 43.323 7.20395 43.5975 7.20395C43.8621 7.2039 44.0591 7.15632 44.202 7.077C44.3232 7.00784 44.3806 6.91255 44.3807 6.75961C44.3807 6.68849 44.3674 6.64692 44.3534 6.62387L44.3485 6.61703L44.3446 6.60922C44.3271 6.57389 44.3039 6.54851 44.2743 6.53012C44.2309 6.50328 44.1809 6.48226 44.1229 6.46762L44.1112 6.46469C44.0453 6.44394 43.9746 6.42593 43.8983 6.41293V6.41391L43.3162 6.32602C43.1816 6.3059 43.0356 6.27861 42.8787 6.24399H42.8778C42.7107 6.20593 42.5549 6.14556 42.4119 6.06235L42.4071 6.05942C42.2581 5.96694 42.1323 5.8456 42.0311 5.69809L42.0282 5.69418C41.9196 5.52662 41.8739 5.32069 41.8739 5.09262C41.8739 4.87903 41.9155 4.68354 42.0057 4.51352L42.0067 4.51059C42.0756 4.38458 42.1641 4.27459 42.2713 4.18149L42.3856 4.0936C42.5411 3.98247 42.7207 3.90469 42.9207 3.85629C43.1216 3.80296 43.3379 3.77623 43.5682 3.77621Z" fill="#1F2328" stroke="white" stroke-width="0.4"/>
<path d="M39.2614 3.77621C39.5346 3.77621 39.7875 3.82796 40.0172 3.93246L40.0182 3.93149C40.2488 4.03428 40.447 4.17837 40.61 4.36411L40.7243 4.50668C40.8317 4.65503 40.9167 4.82182 40.9801 5.00571C41.0648 5.25143 41.1061 5.51757 41.1061 5.80258V6.27817H38.3639C38.3666 6.41023 38.3876 6.53016 38.4284 6.63852C38.472 6.75457 38.5327 6.85114 38.6081 6.93149C38.6868 7.01052 38.7808 7.07425 38.8922 7.12192C39.0111 7.16588 39.1459 7.1893 39.2975 7.1893C39.5144 7.18929 39.6915 7.1392 39.8366 7.04672C39.9852 6.95195 40.0991 6.82219 40.1794 6.65219L40.2799 6.44028L40.4733 6.57211L40.8971 6.86215L41.0338 6.9559L40.9674 7.10727C40.8395 7.39902 40.6265 7.63621 40.3385 7.81918L40.3376 7.82016C40.0453 8.00369 39.6951 8.08968 39.2975 8.08969C39.0064 8.08969 38.7373 8.04005 38.4938 7.93637L38.4919 7.93539C38.2554 7.83237 38.05 7.68517 37.8776 7.49496L37.8737 7.49008C37.7076 7.29542 37.5806 7.06746 37.4919 6.80942V6.80844C37.4025 6.54339 37.359 6.25334 37.359 5.94028C37.359 5.62274 37.4024 5.32968 37.4919 5.0643L37.4928 5.06137C37.5863 4.79933 37.7162 4.57124 37.8835 4.38071C38.0505 4.18569 38.2506 4.03516 38.4831 3.93149L38.485 3.93051C38.7233 3.82671 38.9831 3.77623 39.2614 3.77621ZM39.2614 4.65512C39.1285 4.65514 39.0099 4.67921 38.903 4.72543C38.7919 4.77348 38.6961 4.83888 38.6139 4.92172C38.5387 5.00227 38.4754 5.09877 38.4274 5.21469L38.4284 5.21567C38.4014 5.28502 38.383 5.36077 38.3727 5.44321H40.0827C40.0767 5.38238 40.0664 5.32514 40.0514 5.27133L40.0211 5.18051C39.9818 5.06944 39.9265 4.97789 39.8561 4.90317L39.8483 4.89633L39.8493 4.89536C39.7848 4.81954 39.7034 4.76119 39.6022 4.71957L39.5993 4.7186C39.5027 4.67741 39.3911 4.65512 39.2614 4.65512Z" fill="#1F2328" stroke="white" stroke-width="0.4"/>
<path d="M36.9643 3.3559V4.26312H36.1636C36.2711 4.37617 36.3577 4.50441 36.4223 4.64789C36.5072 4.83629 36.5483 5.04351 36.5483 5.26605C36.5483 5.47858 36.5071 5.67893 36.4243 5.86469C36.3465 6.04969 36.2348 6.21158 36.0893 6.34711L36.0864 6.35004C35.9395 6.48115 35.762 6.57972 35.5591 6.64984L35.56 6.65082C35.3587 6.72215 35.1395 6.75626 34.9048 6.75629C34.8375 6.75629 34.7718 6.75379 34.7085 6.74847C34.6603 6.74442 34.612 6.73705 34.5639 6.72992C34.5276 6.73749 34.4874 6.74755 34.4448 6.7641L34.4321 6.76898C34.3911 6.78171 34.3536 6.80106 34.3188 6.8266L34.3091 6.83344C34.2772 6.85387 34.2534 6.87661 34.2358 6.90179C34.2272 6.91425 34.2212 6.92972 34.2212 6.95453C34.2212 6.96583 34.2224 6.97267 34.2231 6.97504C34.2236 6.97663 34.2236 6.97668 34.2231 6.97601C34.2214 6.97369 34.2255 6.98061 34.2505 6.98969C34.334 7.01442 34.4538 7.0297 34.6167 7.02972H35.436C35.932 7.02973 36.3375 7.12363 36.6069 7.35297H36.6059C36.8707 7.57318 37.0004 7.87259 37.0005 8.22992C37.0005 8.6734 36.8102 9.01819 36.4341 9.2348L36.435 9.23578C36.0781 9.44623 35.5686 9.53851 34.9331 9.53851C34.3267 9.53851 33.8489 9.46 33.5366 9.27094L33.5356 9.26996C33.2191 9.07477 33.0523 8.78161 33.0522 8.41156C33.0522 8.1747 33.1145 7.96219 33.2651 7.80316C33.3387 7.72558 33.4263 7.66172 33.5249 7.6098C33.4973 7.58125 33.4707 7.55175 33.4477 7.51898C33.3614 7.39559 33.3257 7.24841 33.3257 7.09222C33.3257 6.85281 33.405 6.64249 33.5893 6.49945L33.5923 6.4975C33.6482 6.45568 33.709 6.41947 33.7729 6.38617C33.6627 6.2966 33.5659 6.19295 33.4868 6.07172L33.4848 6.06879C33.3377 5.83466 33.2681 5.56418 33.2681 5.26605C33.2681 5.05361 33.3061 4.85335 33.3843 4.66742C33.4623 4.48179 33.5749 4.32145 33.7222 4.18988C33.8724 4.05515 34.0488 3.95306 34.2485 3.88226C34.45 3.81083 34.6698 3.77679 34.9048 3.77679C35.1024 3.77682 35.2876 3.80293 35.4604 3.85199C35.4817 3.75663 35.5181 3.66758 35.5737 3.58734C35.6914 3.41774 35.8815 3.3559 36.0825 3.3559H36.9643ZM34.2173 7.96625C34.1356 8.00389 34.0845 8.04578 34.0532 8.08832C34.0194 8.13419 33.9985 8.1925 33.9985 8.27386C33.9985 8.35179 34.0193 8.4205 34.0679 8.48383L34.1255 8.54535L34.1284 8.54828C34.202 8.61704 34.355 8.67523 34.6391 8.67523H35.1987C35.5169 8.67523 35.739 8.62452 35.8833 8.54242L35.8862 8.54047C35.9546 8.50329 35.9968 8.46229 36.022 8.42133C36.0468 8.38083 36.062 8.3289 36.062 8.25922C36.062 8.17221 36.0312 8.11034 35.9604 8.05609C35.8931 8.0099 35.7415 7.96625 35.4575 7.96625H34.2173ZM34.9048 4.62543C34.6443 4.62543 34.4957 4.68726 34.4145 4.76898L34.4116 4.77191C34.3235 4.85769 34.271 4.97852 34.271 5.15765V5.36761C34.271 5.5466 34.3238 5.67154 34.4145 5.76312C34.4957 5.84498 34.644 5.90668 34.9048 5.90668C35.1651 5.90663 35.3129 5.84486 35.394 5.76312L35.397 5.76117L35.4595 5.685C35.5143 5.603 35.5444 5.50024 35.5444 5.36761V5.15765C35.5444 4.98085 35.4915 4.8611 35.3999 4.77484L35.394 4.76996L35.5366 4.62836L35.394 4.76898C35.3128 4.68738 35.1648 4.62548 34.9048 4.62543Z" fill="#1F2328" stroke="white" stroke-width="0.4"/>
<path d="M32.6575 3.3559V4.26312H31.8567C31.9642 4.37617 32.0509 4.50441 32.1155 4.64789C32.2004 4.83629 32.2415 5.04351 32.2415 5.26605C32.2415 5.47858 32.2003 5.67893 32.1175 5.86469C32.0397 6.04969 31.928 6.21158 31.7825 6.34711L31.7796 6.35004C31.6327 6.48115 31.4552 6.57972 31.2523 6.64984L31.2532 6.65082C31.0519 6.72215 30.8327 6.75626 30.598 6.75629C30.5307 6.75629 30.465 6.75379 30.4017 6.74847C30.3535 6.74442 30.3052 6.73705 30.2571 6.72992C30.2208 6.73749 30.1806 6.74755 30.138 6.7641L30.1253 6.76898C30.0843 6.78171 30.0468 6.80106 30.012 6.8266L30.0023 6.83344C29.9704 6.85387 29.9466 6.87661 29.929 6.90179C29.9204 6.91425 29.9144 6.92972 29.9144 6.95453C29.9144 6.96583 29.9156 6.97267 29.9163 6.97504C29.9168 6.97663 29.9168 6.97668 29.9163 6.97601C29.9146 6.97369 29.9187 6.98061 29.9437 6.98969C30.0272 7.01442 30.147 7.0297 30.3099 7.02972H31.1292C31.6252 7.02973 32.0307 7.12363 32.3001 7.35297H32.2991C32.5639 7.57318 32.6936 7.87259 32.6937 8.22992C32.6937 8.6734 32.5034 9.01819 32.1273 9.2348L32.1282 9.23578C31.7713 9.44623 31.2618 9.53851 30.6263 9.53851C30.0199 9.53851 29.5421 9.46 29.2298 9.27094L29.2288 9.26996C28.9122 9.07477 28.7455 8.78161 28.7454 8.41156C28.7454 8.1747 28.8077 7.96219 28.9583 7.80316C29.0319 7.72558 29.1195 7.66172 29.2181 7.6098C29.1904 7.58125 29.1639 7.55175 29.1409 7.51898C29.0546 7.39559 29.0189 7.24841 29.0189 7.09222C29.0189 6.85281 29.0982 6.64249 29.2825 6.49945L29.2855 6.4975C29.3414 6.45568 29.4022 6.41947 29.4661 6.38617C29.3559 6.2966 29.2591 6.19295 29.18 6.07172L29.178 6.06879C29.0309 5.83466 28.9612 5.56418 28.9612 5.26605C28.9613 5.05361 28.9993 4.85335 29.0774 4.66742C29.1555 4.48179 29.2681 4.32145 29.4153 4.18988C29.5656 4.05515 29.742 3.95306 29.9417 3.88226C30.1432 3.81083 30.363 3.77679 30.598 3.77679C30.7956 3.77682 30.9808 3.80293 31.1536 3.85199C31.1749 3.75663 31.2112 3.66758 31.2669 3.58734C31.3846 3.41774 31.5747 3.3559 31.7757 3.3559H32.6575ZM29.9105 7.96625C29.8288 8.00389 29.7777 8.04578 29.7464 8.08832C29.7126 8.13419 29.6917 8.1925 29.6917 8.27386C29.6917 8.35179 29.7125 8.4205 29.761 8.48383L29.8187 8.54535L29.8216 8.54828C29.8952 8.61704 30.0482 8.67523 30.3323 8.67523H30.8919C31.2101 8.67523 31.4322 8.62452 31.5765 8.54242L31.5794 8.54047C31.6478 8.50329 31.69 8.46229 31.7151 8.42133C31.74 8.38083 31.7552 8.3289 31.7552 8.25922C31.7552 8.17221 31.7243 8.11034 31.6536 8.05609C31.5863 8.0099 31.4347 7.96625 31.1507 7.96625H29.9105ZM30.598 4.62543C30.3375 4.62543 30.1889 4.68726 30.1077 4.76898L30.1048 4.77191C30.0167 4.85769 29.9642 4.97852 29.9642 5.15765V5.36761C29.9642 5.5466 30.017 5.67154 30.1077 5.76312C30.1889 5.84498 30.3372 5.90668 30.598 5.90668C30.8583 5.90663 31.0061 5.84486 31.0872 5.76312L31.0901 5.76117L31.1526 5.685C31.2075 5.603 31.2376 5.50024 31.2376 5.36761V5.15765C31.2376 4.98085 31.1847 4.8611 31.0931 4.77484L31.0872 4.76996L31.2298 4.62836L31.0872 4.76898C31.006 4.68738 30.858 4.62548 30.598 4.62543Z" fill="#1F2328" stroke="white" stroke-width="0.4"/>
<path d="M25.5928 3.86318V6.36025C25.5928 6.67733 25.6614 6.87712 25.7637 6.99502L25.8506 7.06924C25.9485 7.13551 26.0832 7.17471 26.2695 7.17471C26.3672 7.17468 26.4625 7.16306 26.5557 7.13857C26.6463 7.11473 26.7241 7.0794 26.7901 7.03506C26.8525 6.99297 26.9013 6.94124 26.9385 6.87978C26.9693 6.82419 26.9882 6.75263 26.9883 6.6581V3.86318H27.9629V8.00283H26.9883V7.78506C26.967 7.80312 26.9447 7.82005 26.9219 7.83681L26.9229 7.83779C26.8211 7.91631 26.7025 7.9769 26.5703 8.02139C26.4304 8.06845 26.2738 8.08971 26.1045 8.08974C25.6703 8.08974 25.3032 7.94982 25.0254 7.6581L25.0244 7.65615C24.7453 7.35728 24.6182 6.94988 24.6182 6.46181V3.86318H25.5928Z" fill="#1F2328" stroke="white" stroke-width="0.4"/>
<path d="M22.0196 2.45731C22.443 2.45731 22.8133 2.52843 23.1212 2.68094H23.1202C23.428 2.8309 23.6784 3.04431 23.8663 3.32059L23.9659 3.46707L23.8321 3.58328L23.4083 3.9534L23.2472 4.09402L23.1173 3.92313C22.994 3.76014 22.8456 3.62822 22.672 3.52567C22.5157 3.43345 22.3006 3.37919 22.0128 3.37918C21.698 3.37918 21.488 3.44679 21.3546 3.55301C21.2318 3.65081 21.1573 3.80368 21.1573 4.0491C21.1574 4.23194 21.2089 4.36604 21.3018 4.46805C21.3968 4.5625 21.5922 4.65379 21.9327 4.71414L22.4708 4.80887H22.4718C22.7299 4.85485 22.9565 4.92509 23.1466 5.02371C23.3313 5.11962 23.4864 5.23804 23.6065 5.38113C23.7305 5.52332 23.8198 5.68487 23.8712 5.86356C23.9197 6.03216 23.9434 6.20807 23.9434 6.38992C23.9434 6.90629 23.7722 7.33217 23.4151 7.64188C23.0649 7.94985 22.5805 8.09009 21.9913 8.09012C21.5185 8.09012 21.1127 8.00324 20.7862 7.81668L20.7833 7.8157C20.4729 7.63302 20.2144 7.39897 20.0108 7.11453L19.9024 6.96317L20.046 6.84402L20.4845 6.48172L20.6417 6.35184L20.7686 6.51102C20.9524 6.74157 21.1384 6.90581 21.3253 7.01102C21.5107 7.11268 21.738 7.16824 22.0128 7.16824C22.3484 7.16823 22.5719 7.08958 22.714 6.96414C22.854 6.84031 22.9327 6.6624 22.9327 6.40359C22.9326 6.19601 22.8756 6.0629 22.7852 5.97488L22.7833 5.97195C22.6891 5.87691 22.4977 5.78748 22.1661 5.73172L21.6056 5.63699H21.6046C21.3465 5.59104 21.1198 5.52071 20.9298 5.42215L20.9268 5.42117C20.7453 5.32416 20.5924 5.20451 20.4727 5.06082L20.4698 5.05789C20.3543 4.91351 20.2697 4.75539 20.2188 4.58426V4.58231C20.1705 4.41431 20.1466 4.24128 20.1466 4.06375C20.1466 3.5531 20.315 3.1384 20.6749 2.85574C21.022 2.58339 21.4776 2.45734 22.0196 2.45731Z" fill="#1F2328" stroke="white" stroke-width="0.4"/>
</g>
<defs>
<clipPath id="clip0_85_569">
<rect width="51" height="19" fill="white"/>
</clipPath>
</defs>
</svg>
