<svg width="55" height="19" viewBox="0 0 55 19" fill="none" xmlns="http://www.w3.org/2000/svg">
<path d="M9.28516 16.0155C9.40326 15.995 9.48299 15.9075 9.51953 15.829C9.55991 15.7419 9.57415 15.6059 9.4834 15.495L9.48438 15.494L9.48145 15.492C9.47951 15.4897 9.47859 15.4865 9.47656 15.4842L9.47461 15.4862C9.45522 15.4643 9.43702 15.4486 9.43359 15.4461C9.42367 15.4391 9.41249 15.4331 9.40332 15.4276C9.38471 15.4163 9.36216 15.4034 9.33789 15.3905L9.15918 15.3016C8.44236 14.9657 7.88666 14.4504 7.43066 13.6786L7.24121 13.3319C6.77846 12.4195 6.46451 11.3089 6.1416 9.40903C6.10395 9.18628 5.90237 7.91547 5.69336 6.58286L5.34863 4.38853L8.15723 4.38364C11.2318 4.37825 11.8862 4.38646 12.6338 4.44321C13.9216 4.54091 14.923 4.76913 15.7422 5.16392C16.5584 5.55735 17.2047 6.12246 17.7754 6.91099C17.8196 6.97225 17.8592 7.02429 17.8945 7.06626C17.9284 7.1065 17.9677 7.14778 18.0127 7.17857C18.0624 7.2125 18.129 7.23945 18.208 7.2313C18.2786 7.22395 18.3324 7.19141 18.3643 7.1688L18.4111 7.12974C18.4268 7.11426 18.4424 7.09563 18.4561 7.07407C18.4844 7.02921 18.4978 6.98079 18.502 6.93345C18.509 6.85149 18.4868 6.76287 18.4629 6.68052C17.7626 4.26908 16.1523 2.56867 13.708 1.65122C12.3589 1.14426 10.8976 0.885253 9.0498 0.818214C8.75678 0.807254 6.94117 0.79966 4.77246 0.79966C3.043 0.79966 2.0985 0.800718 1.58691 0.804543C1.33261 0.806445 1.18171 0.809166 1.09375 0.813332C1.0517 0.815328 1.01484 0.818202 0.986328 0.823097C0.974409 0.825145 0.946717 0.829909 0.917969 0.843605C0.897731 0.853313 0.822213 0.894663 0.803711 0.986183L0.799805 1.02915L0.800781 1.04771C0.800993 1.05002 0.801624 1.05239 0.801758 1.05357C0.802041 1.05602 0.802479 1.05846 0.802734 1.0604C0.803293 1.06465 0.803832 1.07001 0.804688 1.07603C0.806455 1.08845 0.809208 1.10658 0.8125 1.12876C0.819099 1.17321 0.828415 1.23749 0.84082 1.31919C0.865709 1.48311 0.901921 1.7181 0.946289 2.00669C1.03505 2.58403 1.15734 3.37644 1.29199 4.244C1.56147 5.98026 1.80198 7.55019 1.82812 7.73716C2.18864 10.2907 2.86412 12.1179 3.9707 13.451L4.17383 13.6717C4.42422 13.9291 4.78451 14.2646 4.96582 14.4022H4.9668C5.96604 15.155 7.15711 15.6341 8.77246 15.9452C8.87607 15.9651 8.97659 15.9827 9.05469 15.9959C9.09366 16.0026 9.12847 16.0086 9.15527 16.0126C9.17431 16.0154 9.20784 16.0204 9.23242 16.0204L9.28516 16.0155Z" fill="#1F2328" stroke="white" stroke-width="0.4"/>
<path d="M49.5645 16.0563V15.8571L49.5704 13.983L49.5753 12.1393L49.6192 11.9889L49.671 11.8366C49.8049 11.4963 50.0337 11.2542 50.3653 11.0973L50.4796 11.0485C50.7522 10.9434 51.0592 10.903 51.4161 10.9323L51.6641 10.9625C51.8898 11.0008 52.0545 11.0633 52.2032 11.1559C52.4675 11.3206 52.653 11.595 52.7403 12.0065V12.0075C52.7636 12.1163 52.7796 12.2629 52.7891 12.5934C52.7987 12.9237 52.8018 13.4268 52.8018 14.2428V16.0563H54.2003V14.0055C54.2003 13.4152 54.1979 12.9355 54.1944 12.5895C54.1909 12.2516 54.186 12.0251 54.1778 11.9557C54.1051 11.3163 53.91 10.8134 53.5626 10.4225L53.4044 10.2623C53.0786 9.96386 52.6876 9.77983 52.1925 9.68422L51.9737 9.64906C51.8321 9.63033 51.6207 9.62098 51.421 9.62074C51.2234 9.62052 51.0179 9.62945 50.8897 9.65004C50.3676 9.73086 49.9124 9.93733 49.5665 10.2555V7.32094H48.1495V16.0563H49.5645Z" fill="#1F2328" stroke="white" stroke-width="0.4"/>
<path d="M12.4083 16.0563L12.4669 15.9616L13.3106 14.5963C13.542 14.2222 13.7538 13.8826 13.9083 13.6373C13.9393 13.5881 13.9682 13.5426 13.9942 13.5016C14.0222 13.5453 14.0543 13.5932 14.088 13.6461C14.2452 13.8929 14.4602 14.2329 14.6944 14.6061L15.5499 15.9625L15.6085 16.0563H18.171L17.9464 15.7399L17.9102 15.6901C17.9102 15.6901 17.9008 15.6756 17.879 15.6432C17.8583 15.6126 17.829 15.5682 17.7921 15.5133C17.7183 15.4035 17.6139 15.2494 17.4903 15.0651C17.243 14.6965 16.9159 14.2082 16.5889 13.7204C16.262 13.2325 15.9353 12.7446 15.6885 12.3756C15.5651 12.1911 15.4611 12.0365 15.3878 11.9264C15.3685 11.8976 15.3513 11.8727 15.337 11.8512C15.3439 11.8403 15.3515 11.8286 15.3594 11.8161C15.4174 11.7247 15.5017 11.5935 15.6046 11.4342C15.8105 11.1153 16.0909 10.6836 16.3858 10.2321C16.9761 9.32828 17.623 8.34562 17.8487 8.0143L17.8497 8.01234L17.876 7.97328L18.084 7.66176H15.5528L15.4932 7.75551L14.6837 9.03188V9.03285L14.0352 10.0563C13.9999 10.0035 13.9592 9.94163 13.9131 9.8727C13.7591 9.64205 13.5513 9.32942 13.3262 8.99086L12.5089 7.76039L12.4493 7.67152H12.3428L11.2774 7.66566C10.9842 7.66477 10.7164 7.66499 10.5225 7.66566C10.4259 7.666 10.347 7.66599 10.2921 7.66664C10.2649 7.66697 10.2425 7.66816 10.2266 7.66859C10.2191 7.6688 10.2109 7.66821 10.2042 7.66859C10.2015 7.66875 10.1954 7.66975 10.1885 7.67055C10.1862 7.67082 10.176 7.67164 10.1641 7.67445C10.1597 7.67551 10.1433 7.67992 10.1241 7.6891C10.1149 7.69346 10.0938 7.70385 10.0723 7.72426C10.056 7.73987 10.029 7.77165 10.0167 7.81801L10.0098 7.86977L10.0167 7.92055C10.0184 7.92657 10.0219 7.93682 10.0235 7.94106C10.0267 7.94925 10.03 7.95596 10.0313 7.95863C10.0341 7.96428 10.0363 7.96879 10.0372 7.97035C10.0394 7.97423 10.042 7.97758 10.043 7.97914C10.0453 7.98273 10.0475 7.98722 10.0499 7.99086C10.055 7.99864 10.0625 8.00908 10.0714 8.02211C10.0894 8.04872 10.1159 8.08738 10.1495 8.13637C10.2168 8.23453 10.3139 8.37591 10.4337 8.54945C10.6734 8.89698 11.0047 9.37543 11.3682 9.90004C11.7315 10.4243 12.061 10.9036 12.2999 11.2526C12.4193 11.427 12.5165 11.5689 12.5831 11.6676C12.5955 11.686 12.6061 11.7032 12.6163 11.7184C12.6056 11.7357 12.5933 11.7548 12.5801 11.776C12.5152 11.8808 12.422 12.0306 12.3096 12.2106C12.0849 12.5703 11.7832 13.0512 11.4756 13.5407C10.8589 14.5222 10.2221 15.5316 10.1299 15.6696L10.129 15.6715L10.0801 15.7477L9.87897 16.0563H12.4083Z" fill="#1F2328" stroke="white" stroke-width="0.4"/>
<path d="M20.595 16.1602C21.7405 16.3151 22.9006 16.0171 23.6448 15.3438L23.6458 15.3428C24.0127 15.008 24.2662 14.6358 24.4212 14.1924V14.1914C24.4856 14.0052 24.5279 13.864 24.552 13.7051C24.5759 13.548 24.5813 13.3802 24.5813 13.1436C24.5813 12.9137 24.5761 12.7499 24.555 12.6006C24.5334 12.4482 24.4954 12.3171 24.4378 12.1514C23.9945 10.8752 22.6933 10.1623 21.1888 10.3037C20.8139 10.3392 20.4569 10.4253 20.1829 10.5518C20.1922 10.457 20.2026 10.3523 20.2132 10.2471C20.2302 10.0775 20.248 9.90612 20.262 9.77246C20.268 9.7153 20.2732 9.66516 20.2776 9.625H24.1634L24.1936 9.46094L24.2014 9.41992H24.2005C24.2028 9.40804 24.2056 9.39667 24.2063 9.3916C24.2082 9.37868 24.2106 9.36154 24.2132 9.3418C24.2184 9.30189 24.2248 9.24662 24.2327 9.18164C24.2485 9.05174 24.2686 8.87854 24.2893 8.69336L24.3772 7.95801L24.388 7.89551L24.428 7.66211H21.4563C20.3706 7.66211 19.6856 7.66362 19.2718 7.66699C19.0653 7.66868 18.9243 7.67097 18.8343 7.67383C18.7899 7.67524 18.7543 7.67657 18.7288 7.67871C18.717 7.67971 18.7017 7.68178 18.6868 7.68457C18.6803 7.68579 18.665 7.68886 18.6477 7.69531C18.6393 7.69848 18.6223 7.70522 18.6038 7.71777C18.5881 7.72847 18.5472 7.75884 18.5266 7.81738L18.5237 7.82617C18.5209 7.83544 18.5201 7.8434 18.5198 7.84473C18.5193 7.84721 18.5181 7.84928 18.5179 7.85059C18.5174 7.85308 18.5171 7.85572 18.5169 7.85742C18.5163 7.86104 18.5156 7.86561 18.5149 7.87012C18.5136 7.87936 18.5121 7.89228 18.51 7.9082C18.5058 7.9403 18.4999 7.98717 18.4925 8.0459C18.4775 8.16342 18.4566 8.33181 18.4309 8.53809C18.3796 8.95105 18.31 9.51718 18.2346 10.1367L18.0364 11.7402C18.0105 11.9481 17.9891 12.1184 17.9739 12.2373C17.9664 12.2965 17.9606 12.3429 17.9563 12.375C17.9542 12.3912 17.9526 12.404 17.9514 12.4121L17.9505 12.4199L17.9427 12.4609L17.8997 12.6973H19.9153L19.9749 12.6152L20.0315 12.5381L20.0325 12.5361C20.134 12.3944 20.3745 12.2196 20.6009 12.1387C20.7732 12.077 20.998 12.0459 21.2249 12.0498C21.4529 12.0538 21.6653 12.0927 21.8138 12.1572V12.1582C22.0514 12.2602 22.2213 12.4131 22.3255 12.5996C22.4038 12.7399 22.449 12.9059 22.4534 13.0947L22.4436 13.291C22.4042 13.6228 22.3222 13.7977 22.1546 13.9648L22.1536 13.9658C21.9429 14.1778 21.5927 14.2903 21.1565 14.2412L21.1575 14.2402C20.9306 14.2138 20.8224 14.1829 20.6331 14.0967L20.6321 14.0977C20.564 14.0659 20.5248 14.0428 20.4895 14.0186C20.4536 13.9938 20.416 13.9628 20.3567 13.9062L20.3557 13.9053C20.1838 13.7427 20.0979 13.5862 20.0393 13.3115L20.0305 13.2676L19.9993 13.1055H17.8792L17.8968 13.3213L17.9075 13.46L17.93 13.6406C17.9604 13.8337 18.0135 14.0553 18.0725 14.2256L18.1809 14.499C18.4617 15.1156 18.9308 15.5771 19.5706 15.8672C19.8363 15.9882 20.0892 16.0713 20.3665 16.123L20.595 16.1602Z" fill="#1F2328" stroke="white" stroke-width="0.4"/>
<path d="M31.6177 16.0563V9.03188H34.5367V7.66176H27.2056V9.03188H30.1256V16.0563H31.6177Z" fill="#1F2328" stroke="white" stroke-width="0.4"/>
<path d="M37.5755 16.1431L37.5745 16.1421C38.718 16.0232 39.5593 15.5176 40.0814 14.607C40.1039 14.5677 40.1257 14.5289 40.1419 14.4976C40.1498 14.4823 40.1571 14.4659 40.1634 14.4517C40.1664 14.4448 40.1706 14.4355 40.1741 14.4253C40.1747 14.4237 40.1868 14.3913 40.1868 14.3521C40.1867 14.3014 40.168 14.2647 40.1575 14.2476C40.1462 14.2291 40.1341 14.2163 40.1273 14.2095C40.1139 14.1963 40.1013 14.1876 40.096 14.1841C40.0843 14.1763 40.0731 14.1703 40.0677 14.1675C40.0552 14.1612 40.0409 14.1546 40.0276 14.1489C39.9997 14.137 39.9611 14.1216 39.9183 14.105C39.832 14.0717 39.7175 14.0297 39.6038 13.9888C39.4901 13.9479 39.3752 13.9077 39.2874 13.8784C39.244 13.864 39.2053 13.8518 39.1761 13.8433C39.1621 13.8392 39.1461 13.8346 39.1321 13.8316C39.126 13.8302 39.114 13.827 39.0999 13.8257C39.0936 13.8251 39.0775 13.8247 39.0579 13.8267C39.048 13.8277 39.0299 13.8298 39.0091 13.8374C38.9932 13.8433 38.9671 13.8571 38.9407 13.8823L38.9398 13.8804C38.9334 13.8864 38.9285 13.8924 38.9271 13.8941C38.9252 13.8962 38.9232 13.8977 38.9222 13.8989C38.9202 13.9014 38.9186 13.9041 38.9173 13.9058C38.9146 13.9093 38.9114 13.9137 38.9085 13.9175C38.9026 13.9254 38.8948 13.936 38.886 13.9478C38.868 13.9721 38.8449 14.0037 38.8196 14.0376H38.8187C38.5138 14.4514 38.1866 14.6802 37.7415 14.7866L37.5423 14.8247C37.4156 14.8445 37.2275 14.8515 37.0364 14.8452C36.8446 14.8389 36.6668 14.8213 36.5589 14.7954L36.5599 14.7945C35.9759 14.6515 35.5466 14.3322 35.304 13.8823C35.2574 13.7948 35.2104 13.6753 35.1751 13.5562C35.1622 13.5124 35.1532 13.4707 35.1448 13.4331H37.5579C38.8046 13.4331 39.4658 13.4325 39.8167 13.4282C39.9901 13.4261 40.0942 13.4236 40.1566 13.4185C40.1852 13.4161 40.2193 13.412 40.2503 13.4029C40.2831 13.3932 40.3554 13.3646 40.3919 13.2818C40.4059 13.25 40.4103 13.2173 40.4114 13.2095C40.4135 13.1945 40.4152 13.1783 40.4163 13.1626C40.4187 13.1303 40.4201 13.0896 40.4212 13.0454C40.4234 12.9562 40.4245 12.8422 40.4232 12.7271C40.4218 12.6118 40.4187 12.4927 40.4144 12.3931C40.4103 12.2996 40.4043 12.2079 40.3948 12.1558V12.1548C40.26 11.4401 39.9843 10.9017 39.5013 10.4468L39.5003 10.4478C39.1225 10.0894 38.6045 9.82063 38.0423 9.68313L37.7991 9.63235C37.6954 9.61412 37.4574 9.60088 37.2396 9.59426C37.0224 9.58766 36.7857 9.58613 36.6859 9.59817V9.59914C36.6355 9.60482 36.4976 9.62917 36.3802 9.6509H36.3782C35.027 9.90994 34.0206 10.8777 33.7435 12.1968V12.1978C33.7146 12.3367 33.6969 12.5453 33.6898 12.7456C33.6826 12.9466 33.6856 13.1578 33.7034 13.3042C33.775 13.8903 33.9801 14.4254 34.304 14.8618C34.4774 15.0952 34.805 15.4089 35.0443 15.5708L35.0452 15.5718C35.3651 15.786 35.8576 15.9909 36.2532 16.0767L36.5618 16.1275C36.8921 16.1678 37.2734 16.1757 37.5755 16.1431ZM35.2142 12.1177C35.4595 11.2822 36.464 10.7216 37.5667 10.9341V10.9351C38.3032 11.0765 38.838 11.5622 38.9671 12.1177H35.2142Z" fill="#1F2328" stroke="white" stroke-width="0.4"/>
<path d="M44.1547 16.1583C44.9519 16.1844 45.6502 16.0163 46.2358 15.6466L46.2368 15.6456C46.4341 15.5192 46.6822 15.297 46.8686 15.086L47.0297 14.8829L47.1303 14.7296C47.1621 14.6785 47.1919 14.6292 47.2163 14.5851C47.2402 14.5417 47.2618 14.4988 47.2768 14.463C47.2838 14.4464 47.2926 14.4232 47.2983 14.3985C47.3009 14.387 47.3051 14.3637 47.3042 14.336C47.3034 14.3158 47.2977 14.2493 47.2397 14.1944L47.2407 14.1935C47.2395 14.1923 47.2379 14.1916 47.2368 14.1905C47.2354 14.1893 47.2343 14.1878 47.2329 14.1866L47.2319 14.1876C47.2204 14.1778 47.2114 14.1699 47.2085 14.1681L47.1831 14.1544C47.1776 14.1519 47.1717 14.1493 47.1674 14.1476C47.1583 14.1438 47.1459 14.1397 47.1333 14.1349C47.1076 14.1251 47.0726 14.1117 47.0317 14.0968C46.949 14.0665 46.8399 14.0271 46.7309 13.9884C46.6219 13.9496 46.5121 13.9108 46.4282 13.8819C46.3865 13.8676 46.3504 13.8555 46.3237 13.8468C46.3105 13.8425 46.2983 13.839 46.2885 13.836C46.2838 13.8346 46.2779 13.8327 46.2719 13.8311C46.2691 13.8304 46.2639 13.8293 46.2583 13.8282C46.2552 13.8276 46.238 13.8233 46.2172 13.8233C46.1737 13.8234 46.1418 13.8379 46.1313 13.8429C46.1173 13.8495 46.1066 13.8566 46.101 13.8604C46.0899 13.8682 46.0814 13.8755 46.0776 13.879C46.0691 13.8868 46.0619 13.8952 46.0571 13.9005C46.0467 13.9119 46.0347 13.9261 46.0229 13.9405C45.9987 13.9701 45.9684 14.0097 45.937 14.0518L45.936 14.0528C45.653 14.4379 45.2884 14.6857 44.8579 14.794C44.7558 14.8194 44.5805 14.8395 44.3911 14.8458C44.2022 14.8521 44.0211 14.8444 43.9086 14.8253H43.9067C43.2341 14.7144 42.7422 14.3589 42.4663 13.8067H42.4653C42.3226 13.5233 42.2592 13.2397 42.2592 12.8829C42.2593 12.2269 42.5194 11.6799 42.978 11.3321C43.6772 10.8042 44.8041 10.7869 45.5141 11.2911L45.6411 11.3907C45.7697 11.5014 45.8976 11.6375 45.9741 11.7481L45.976 11.7511C46.0004 11.785 46.0232 11.8173 46.0405 11.8409C46.0489 11.8524 46.0568 11.8631 46.0629 11.8712C46.0657 11.8748 46.0698 11.8801 46.0737 11.8849C46.0753 11.8868 46.08 11.8919 46.0854 11.8976C46.0877 11.8999 46.0947 11.9075 46.104 11.9151C46.1085 11.9188 46.1182 11.9261 46.1313 11.9337C46.1386 11.9379 46.1767 11.9601 46.2309 11.9601L46.2622 11.9581C46.2656 11.9575 46.2716 11.9566 46.2739 11.9561C46.278 11.9552 46.2811 11.9536 46.2827 11.9532C46.2856 11.9524 46.2883 11.9516 46.2895 11.9513L46.3042 11.9464C46.3107 11.9442 46.3205 11.9414 46.3315 11.9376C46.3537 11.9299 46.3849 11.9184 46.4223 11.9054C46.4974 11.8791 46.5979 11.8438 46.7006 11.8077L47.1635 11.6446L47.1655 11.6436L47.2163 11.6231L47.4252 11.5421L47.3217 11.3438L47.2573 11.2218V11.2208C47.1569 11.0314 46.9647 10.7645 46.8178 10.6104L46.8188 10.6095C46.3507 10.1168 45.813 9.83303 45.0883 9.68564H45.0874C44.8651 9.64051 44.7703 9.6354 44.3686 9.62997H44.3676C44.0409 9.62463 43.8539 9.62926 43.7075 9.64951H43.7065C42.3867 9.842 41.3834 10.605 40.977 11.7657C40.6247 12.772 40.7841 13.9435 41.392 14.7921V14.7931C41.5147 14.9626 41.7183 15.1772 41.9126 15.3458L42.101 15.4962C42.6849 15.9169 43.3647 16.1339 44.1547 16.1583Z" fill="#1F2328" stroke="white" stroke-width="0.4"/>
</svg>
