<svg width="57" height="19" viewBox="0 0 57 19" fill="none" xmlns="http://www.w3.org/2000/svg">
<path d="M0 0.0325742C0 0.0508973 0.236994 1.67555 0.526652 3.64223C0.816311 5.60891 1.07559 7.39032 1.10394 7.60409C1.48881 10.4767 2.20586 12.5004 3.36045 13.9663C3.55693 14.2167 4.1484 14.8112 4.39552 15.0087C5.43667 15.8352 6.68443 16.3666 8.40011 16.7147C8.62089 16.7595 8.82548 16.7962 8.85384 16.7962C8.95512 16.7962 9.02196 16.6455 8.95512 16.5661C8.94296 16.5498 8.8194 16.4806 8.68369 16.4134C7.75192 15.9533 7.06524 15.2123 6.52036 14.0783C6.00789 13.0135 5.66556 11.7288 5.31716 9.56874C5.27665 9.31628 5.05991 7.87283 4.83507 6.36219L4.42591 3.61372L7.69723 3.60762C11.001 3.60151 11.714 3.61169 12.5282 3.67684C15.3296 3.90079 16.9521 4.72533 18.2161 6.56578C18.4045 6.84063 18.4551 6.87727 18.5503 6.80602C18.6212 6.75308 18.6273 6.69201 18.5746 6.50063C17.8414 3.83971 16.1601 1.96668 13.5917 0.950766C12.1677 0.386821 10.6201 0.0956871 8.64925 0.0203588C8.33934 0.00814338 6.39275 -2.2212e-07 4.05725 -2.2212e-07C0.336247 -2.2212e-07 0 0.00203568 0 0.0325742Z" fill="#1F2328"/>
<path d="M50.9232 12.1136V16.8369H51.4701H52.015L52.0211 14.7135L52.0272 12.592L52.0819 12.3905C52.2297 11.853 52.5336 11.4703 52.9995 11.2382C53.362 11.059 53.7692 10.9898 54.2391 11.0305C54.6503 11.0672 54.9298 11.1527 55.181 11.3176C55.5254 11.5436 55.7522 11.9141 55.8555 12.4271C55.9143 12.7162 55.9264 13.1601 55.9264 15.0087V16.8369H56.4632H57V14.7399C57 13.4023 56.9919 12.5697 56.9777 12.4434C56.8926 11.6535 56.6475 11.0834 56.2141 10.6641C55.8535 10.3159 55.4059 10.1144 54.7921 10.0268C54.5146 9.98813 53.9272 9.9861 53.6882 10.0268C53.0136 10.1368 52.4647 10.4605 52.1183 10.9572L52.0171 11.1018V9.24706V7.39032H51.4701H50.9232V12.1136Z" fill="#1F2328"/>
<path d="M9.90512 7.78528C9.90512 7.79139 10.5452 8.76863 11.3271 9.95759C12.109 11.1466 12.747 12.1299 12.747 12.1421C12.747 12.1604 10.2009 16.4318 9.99829 16.7514L9.94563 16.8369H11.0475H12.1495L13.0569 15.2896C13.5552 14.4406 13.9684 13.7484 13.9765 13.7525C13.9846 13.7586 14.406 14.4529 14.9103 15.2998L15.83 16.8369H16.94H18.05L18.0115 16.7799C17.9771 16.729 15.1959 12.3579 15.1656 12.303C15.1554 12.2867 17.4545 8.57725 17.9426 7.82193L17.971 7.77714H16.8711H15.7692L14.8982 9.22467L14.0272 10.6742L13.9928 10.6254C13.9725 10.5989 13.5613 9.94945 13.0772 9.18191L12.1981 7.78732L11.0516 7.78121C10.4216 7.77918 9.90512 7.78121 9.90512 7.78528Z" fill="#1F2328"/>
<path d="M19.0527 7.80157C19.0486 7.81582 18.9109 8.97832 18.7488 10.3831C18.5848 11.7879 18.447 12.9585 18.4409 12.9829L18.4328 13.0298H19.3322H20.2336L20.2943 12.9422C20.4341 12.7366 20.7319 12.5147 21.0074 12.4109C21.4388 12.248 22.0829 12.2602 22.4698 12.4373C23.0593 12.704 23.353 13.2598 23.276 13.9561C23.2294 14.3694 23.1261 14.6198 22.9033 14.8539C22.6177 15.1573 22.168 15.2917 21.6535 15.2306C21.3882 15.198 21.2504 15.1573 21.0256 15.0494C20.8676 14.972 20.8028 14.9252 20.6691 14.7908C20.4483 14.5709 20.3369 14.3511 20.266 14.0009L20.2559 13.9459H19.32H18.3862L18.3984 14.1027C18.4166 14.3327 18.4855 14.6748 18.5645 14.915C18.8238 15.711 19.3281 16.2933 20.0614 16.6435C20.3328 16.7738 20.5881 16.8613 20.8676 16.9163C22.1255 17.1667 23.4158 16.845 24.2098 16.0877C24.5805 15.7314 24.8317 15.3405 24.9856 14.8763C25.1213 14.463 25.1456 14.2961 25.1456 13.7627C25.1456 13.2435 25.1233 13.0746 25.0038 12.7122C24.5663 11.3848 23.274 10.6172 21.7325 10.7699C21.2018 10.8228 20.7359 10.9755 20.4807 11.1771C20.424 11.2219 20.3774 11.2504 20.3774 11.2382C20.3774 11.2015 20.5172 9.72753 20.5313 9.63388L20.5415 9.54838H22.6359H24.7324L24.7405 9.50155C24.7466 9.47712 24.7891 9.11269 24.8337 8.6933C24.8803 8.2739 24.9228 7.89522 24.9289 7.85247L24.941 7.77714H21.9999C19.6644 7.77714 19.0587 7.78325 19.0527 7.80157Z" fill="#1F2328"/>
<path d="M28.3987 8.32683V8.87653H29.9686H31.5384V12.8567V16.8369H32.1258H32.7132V12.8567V8.87653H34.283H35.8529V8.32683V7.77714H32.1258H28.3987V8.32683Z" fill="#1F2328"/>
<path d="M38.4051 9.96981C38.3666 9.97388 38.2248 10.0003 38.0891 10.0268C36.7178 10.3037 35.705 11.3339 35.4255 12.7366C35.3708 13.0135 35.3505 13.6202 35.385 13.9174C35.4579 14.5465 35.6665 15.1145 35.9906 15.5746C36.1628 15.819 36.497 16.1569 36.734 16.3259C37.0541 16.5519 37.5584 16.7738 37.9595 16.8654C38.3403 16.9529 38.9014 16.9835 39.3126 16.9367C40.4834 16.8084 41.322 16.2689 41.8446 15.3079C41.8911 15.2224 41.9296 15.1451 41.9296 15.1329C41.9296 15.1125 40.9634 14.746 40.9513 14.7623C40.9472 14.7664 40.9006 14.8336 40.8459 14.9109C40.4388 15.4932 39.983 15.7884 39.3328 15.8922C39.0229 15.9431 38.4659 15.9228 38.1924 15.8536C37.5139 15.6785 36.9973 15.2815 36.7036 14.7073C36.5861 14.4753 36.4808 14.1047 36.4808 13.9093V13.8645H39.3166C42.0005 13.8645 42.1545 13.8625 42.1687 13.8278C42.195 13.7647 42.1849 12.8465 42.1565 12.6837C42.0188 11.9141 41.7413 11.3501 41.2592 10.8717C40.8297 10.4421 40.2079 10.1286 39.5394 10.0065C39.3531 9.97184 38.5813 9.94741 38.4051 9.96981ZM39.3673 11.0366C40.2828 11.2219 40.9736 11.9019 41.0688 12.7081L41.0829 12.8262H38.8042H36.5254L36.5517 12.6877C36.7765 11.513 38.0446 10.7679 39.3673 11.0366Z" fill="#1F2328"/>
<path d="M45.9606 10.0268C44.6095 10.2345 43.6048 11.0509 43.1977 12.2765C42.8412 13.3494 43.0032 14.5994 43.6149 15.4993C43.777 15.7355 44.0909 16.0653 44.3279 16.2445C44.9174 16.6924 45.6061 16.9265 46.4183 16.9529C47.2407 16.9815 47.9477 16.7982 48.5351 16.4073C48.7944 16.2322 49.1529 15.8698 49.3271 15.6052C49.4689 15.3894 49.6026 15.1349 49.5823 15.1166C49.5702 15.1044 48.6526 14.7603 48.6303 14.7603C48.6242 14.7603 48.5655 14.8356 48.5006 14.9272C48.1684 15.4036 47.735 15.7172 47.2205 15.8536C46.9571 15.9228 46.394 15.9431 46.1104 15.8922C45.3245 15.7558 44.7331 15.312 44.4029 14.6157C44.2327 14.2595 44.1578 13.9032 44.1578 13.4675C44.1578 12.6613 44.4636 11.9711 45.0166 11.5293C45.8431 10.8717 47.1577 10.8493 47.9983 11.4784C48.1928 11.625 48.4196 11.8612 48.5452 12.0525C48.5979 12.1299 48.6424 12.195 48.6445 12.195C48.6485 12.195 49.4891 11.8836 49.5722 11.851L49.6269 11.8286L49.558 11.6901C49.4587 11.4927 49.2643 11.2056 49.1205 11.0468C48.6505 10.5256 48.1138 10.2243 47.3724 10.0655C47.1536 10.0187 47.0686 10.0126 46.6391 10.0065C46.2867 10.0003 46.1003 10.0065 45.9606 10.0268Z" fill="#1F2328"/>
</svg>
